CascadiaEU_narrow.glyphspackage
{
glyphname = cent;
layers = (
{
components = (
{
name = c;
}
);
layerId = m004;
paths = (
{
closed = 1;
nodes = (
"390 -334 LINE",
"390 1394 LINE",
"296 1394 LINE",
"296 -334 LINE"
);
}
);
width = 600;
},
{
components = (
{
name = c;
}
);
layerId = m005;
paths = (
{
closed = 1;
nodes = (
"412 -334 LINE",
"412 1394 LINE",
"274 1394 LINE",
"274 -334 LINE"
);
}
);
width = 600;
},
{
components = (
{
alignment = -1;
name = c;
}
);
layerId = m006;
paths = (
{
closed = 1;
nodes = (
"449 -334 LINE",
"449 1394 LINE",
"244 1394 LINE",
"244 -334 LINE"
);
}
);
width = 600;
},
{
components = (
{
name = c;
}
);
layerId = m007;
paths = (
{
closed = 1;
nodes = (
"710 -334 LINE",
"710 1394 LINE",
"616 1394 LINE",
"616 -334 LINE"
);
}
);
width = 1200;
},
{
components = (
{
name = c;
}
);
layerId = m008;
paths = (
{
closed = 1;
nodes = (
"732 -334 LINE",
"732 1394 LINE",
"594 1394 LINE",
"594 -334 LINE"
);
}
);
width = 1200;
},
{
components = (
{
alignment = -1;
name = c;
}
);
layerId = m009;
paths = (
{
closed = 1;
nodes = (
"792 -334 LINE",
"792 1394 LINE",
"534 1394 LINE",
"534 -334 LINE"
);
}
);
width = 1200;
},
{
associatedMasterId = m004;
components = (
{
name = c;
}
);
layerId = "A973B2FC-D76E-4081-AF72-4DBAA6B6E7E5";
name = "[600]";
paths = (
{
closed = 1;
nodes = (
"390 1031 LINE",
"390 1394 LINE",
"296 1394 LINE",
"296 1031 LINE"
);
},
{
closed = 1;
nodes = (
"390 -334 LINE",
"390 55 LINE",
"296 55 LINE",
"296 -334 LINE"
);
}
);
width = 600;
},
{
associatedMasterId = m005;
components = (
{
name = c;
}
);
layerId = "3D087C85-FB4B-434B-A71C-BA3ABAF8FB4A";
name = "[600]";
paths = (
{
closed = 1;
nodes = (
"412 978 LINE",
"412 1394 LINE",
"274 1394 LINE",
"274 978 LINE"
);
},
{
closed = 1;
nodes = (
"412 -334 LINE",
"412 72 LINE",
"274 72 LINE",
"274 -334 LINE"
);
}
);
width = 600;
},
{
associatedMasterId = m009;
components = (
{
alignment = -1;
name = c;
}
);
layerId = "44DD48AB-6A18-4989-9818-892A0E03E6E0";
name = "[600]";
paths = (
{
closed = 1;
nodes = (
"792 931 LINE",
"792 1394 LINE",
"534 1394 LINE",
"534 931 LINE"
);
},
{
closed = 1;
nodes = (
"792 -334 LINE",
"792 148 LINE",
"534 148 LINE",
"534 -334 LINE"
);
}
);
width = 1200;
},
{
associatedMasterId = m008;
components = (
{
name = c;
}
);
layerId = "86442F3A-C431-4E4F-9D58-ECE6CBC8848F";
name = "[600]";
paths = (
{
closed = 1;
nodes = (
"732 982 LINE",
"732 1394 LINE",
"594 1394 LINE",
"594 982 LINE"
);
},
{
closed = 1;
nodes = (
"732 -334 LINE",
"732 91 LINE",
"594 91 LINE",
"594 -334 LINE"
);
}
);
width = 1200;
},
{
associatedMasterId = m007;
components = (
{
name = c;
}
);
layerId = "CB64D5D8-D3DA-408B-8A6B-84C6E77C8D47";
name = "[600]";
paths = (
{
closed = 1;
nodes = (
"710 1033 LINE",
"710 1394 LINE",
"616 1394 LINE",
"616 1033 LINE"
);
},
{
closed = 1;
nodes = (
"710 -334 LINE",
"710 25 LINE",
"616 25 LINE",
"616 -334 LINE"
);
}
);
width = 1200;
},
{
associatedMasterId = m006;
components = (
{
alignment = -1;
name = c;
}
);
layerId = "D915B02B-E5EF-476C-8801-1C595E7E1021";
name = "[600]";
paths = (
{
closed = 1;
nodes = (
"449 953 LINE",
"449 1394 LINE",
"244 1394 LINE",
"244 953 LINE"
);
},
{
closed = 1;
nodes = (
"449 -334 LINE",
"449 79 LINE",
"244 79 LINE",
"244 -334 LINE"
);
}
);
width = 600;
},
{
components = (
{
alignment = -1;
name = c;
}
);
layerId = "8A5928CE-31B2-4F56-BC21-FB6F481DC46A";
paths = (
{
closed = 1;
nodes = (
"572 -334 LINE",
"572 1394 LINE",
"434 1394 LINE",
"434 -334 LINE"
);
}
);
width = 900;
},
{
components = (
{
alignment = -1;
name = c;
}
);
layerId = "A3FCBCC7-55DF-4604-8A77-DC78C4EF6076";
name = "[600]";
paths = (
{
closed = 1;
nodes = (
"621 942 LINE",
"621 1394 LINE",
"389 1394 LINE",
"389 942 LINE"
);
},
{
closed = 1;
nodes = (
"621 -334 LINE",
"621 114 LINE",
"389 114 LINE",
"389 -334 LINE"
);
}
);
width = 900;
},
{
components = (
{
alignment = -1;
name = c;
}
);
layerId = "4AED55CC-054D-4448-879E-1FE49A52CF83";
paths = (
{
closed = 1;
nodes = (
"550 -334 LINE",
"550 1394 LINE",
"456 1394 LINE",
"456 -334 LINE"
);
}
);
width = 900;
}
);
unicode = 00A2;
}
{
glyphname = degree;
layers = (
{
background = {
paths = (
{
closed = 1;
nodes = (
"430 690 OFFCURVE",
"490 808 OFFCURVE",
"490 1065 CURVE SMOOTH",
"490 1322 OFFCURVE",
"430 1440 OFFCURVE",
"300 1440 CURVE SMOOTH",
"170 1440 OFFCURVE",
"110 1322 OFFCURVE",
"110 1065 CURVE SMOOTH",
"110 808 OFFCURVE",
"170 690 OFFCURVE",
"300 690 CURVE SMOOTH"
);
},
{
closed = 1;
nodes = (
"236 782 OFFCURVE",
"206 871 OFFCURVE",
"206 1065 CURVE SMOOTH",
"206 1259 OFFCURVE",
"236 1348 OFFCURVE",
"300 1348 CURVE SMOOTH",
"364 1348 OFFCURVE",
"394 1259 OFFCURVE",
"394 1065 CURVE SMOOTH",
"394 871 OFFCURVE",
"364 782 OFFCURVE",
"300 782 CURVE SMOOTH"
);
}
);
};
layerId = m004;
paths = (
{
closed = 1;
nodes = (
"445 690 OFFCURVE",
"520 819 OFFCURVE",
"520 1065 CURVE SMOOTH",
"520 1311 OFFCURVE",
"445 1440 OFFCURVE",
"300 1440 CURVE SMOOTH",
"155 1440 OFFCURVE",
"80 1311 OFFCURVE",
"80 1065 CURVE SMOOTH",
"80 819 OFFCURVE",
"155 690 OFFCURVE",
"300 690 CURVE SMOOTH"
);
},
{
closed = 1;
nodes = (
"219 782 OFFCURVE",
"176 879 OFFCURVE",
"176 1065 CURVE SMOOTH",
"176 1251 OFFCURVE",
"219 1348 OFFCURVE",
"300 1348 CURVE SMOOTH",
"381 1348 OFFCURVE",
"424 1251 OFFCURVE",
"424 1065 CURVE SMOOTH",
"424 879 OFFCURVE",
"381 782 OFFCURVE",
"300 782 CURVE SMOOTH"
);
}
);
width = 600;
},
{
layerId = m005;
paths = (
{
closed = 1;
nodes = (
"460 690 OFFCURVE",
"543 819 OFFCURVE",
"543 1065 CURVE SMOOTH",
"543 1311 OFFCURVE",
"460 1440 OFFCURVE",
"300 1440 CURVE SMOOTH",
"140 1440 OFFCURVE",
"57 1311 OFFCURVE",
"57 1065 CURVE SMOOTH",
"57 819 OFFCURVE",
"140 690 OFFCURVE",
"300 690 CURVE SMOOTH"
);
},
{
closed = 1;
nodes = (
"242 860 OFFCURVE",
"211 930 OFFCURVE",
"211 1065 CURVE SMOOTH",
"211 1200 OFFCURVE",
"242 1270 OFFCURVE",
"300 1270 CURVE SMOOTH",
"358 1270 OFFCURVE",
"389 1200 OFFCURVE",
"389 1065 CURVE SMOOTH",
"389 930 OFFCURVE",
"358 860 OFFCURVE",
"300 860 CURVE SMOOTH"
);
}
);
width = 600;
},
{
layerId = m006;
paths = (
{
closed = 1;
nodes = (
"480 690 OFFCURVE",
"573 819 OFFCURVE",
"573 1065 CURVE SMOOTH",
"573 1311 OFFCURVE",
"480 1440 OFFCURVE",
"300 1440 CURVE SMOOTH",
"120 1440 OFFCURVE",
"27 1311 OFFCURVE",
"27 1065 CURVE SMOOTH",
"27 819 OFFCURVE",
"120 690 OFFCURVE",
"300 690 CURVE SMOOTH"
);
},
{
closed = 1;
nodes = (
"259 911 OFFCURVE",
"237 963 OFFCURVE",
"237 1065 CURVE SMOOTH",
"237 1167 OFFCURVE",
"259 1220 OFFCURVE",
"300 1220 CURVE SMOOTH",
"341 1220 OFFCURVE",
"363 1167 OFFCURVE",
"363 1065 CURVE SMOOTH",
"363 963 OFFCURVE",
"341 911 OFFCURVE",
"300 911 CURVE SMOOTH"
);
}
);
width = 600;
},
{
layerId = m007;
paths = (
{
closed = 1;
nodes = (
"840 690 OFFCURVE",
"982 829 OFFCURVE",
"982 1065 CURVE SMOOTH",
"982 1301 OFFCURVE",
"840 1440 OFFCURVE",
"600 1440 CURVE SMOOTH",
"360 1440 OFFCURVE",
"218 1301 OFFCURVE",
"218 1065 CURVE SMOOTH",
"218 829 OFFCURVE",
"360 690 OFFCURVE",
"600 690 CURVE SMOOTH"
);
},
{
closed = 1;
nodes = (
"420 782 OFFCURVE",
"314 887 OFFCURVE",
"314 1065 CURVE SMOOTH",
"314 1243 OFFCURVE",
"420 1348 OFFCURVE",
"600 1348 CURVE SMOOTH",
"780 1348 OFFCURVE",
"886 1243 OFFCURVE",
"886 1065 CURVE SMOOTH",
"886 887 OFFCURVE",
"780 782 OFFCURVE",
"600 782 CURVE SMOOTH"
);
}
);
width = 1200;
},
{
layerId = m008;
paths = (
{
closed = 1;
nodes = (
"840 690 OFFCURVE",
"982 829 OFFCURVE",
"982 1065 CURVE SMOOTH",
"982 1301 OFFCURVE",
"840 1440 OFFCURVE",
"600 1440 CURVE SMOOTH",
"360 1440 OFFCURVE",
"218 1301 OFFCURVE",
"218 1065 CURVE SMOOTH",
"218 829 OFFCURVE",
"360 690 OFFCURVE",
"600 690 CURVE SMOOTH"
);
},
{
closed = 1;
nodes = (
"482 860 OFFCURVE",
"413 936 OFFCURVE",
"413 1065 CURVE SMOOTH",
"413 1194 OFFCURVE",
"482 1270 OFFCURVE",
"600 1270 CURVE SMOOTH",
"718 1270 OFFCURVE",
"787 1194 OFFCURVE",
"787 1065 CURVE SMOOTH",
"787 936 OFFCURVE",
"718 860 OFFCURVE",
"600 860 CURVE SMOOTH"
);
}
);
width = 1200;
},
{
layerId = m009;
paths = (
{
closed = 1;
nodes = (
"836 690 OFFCURVE",
"994 840 OFFCURVE",
"994 1065 CURVE SMOOTH",
"994 1290 OFFCURVE",
"836 1440 OFFCURVE",
"600 1440 CURVE SMOOTH",
"364 1440 OFFCURVE",
"206 1290 OFFCURVE",
"206 1065 CURVE SMOOTH",
"206 840 OFFCURVE",
"364 690 OFFCURVE",
"600 690 CURVE SMOOTH"
);
},
{
closed = 1;
nodes = (
"504 892 OFFCURVE",
"440 961 OFFCURVE",
"440 1065 CURVE SMOOTH",
"440 1169 OFFCURVE",
"504 1238 OFFCURVE",
"600 1238 CURVE SMOOTH",
"696 1238 OFFCURVE",
"760 1169 OFFCURVE",
"760 1065 CURVE SMOOTH",
"760 961 OFFCURVE",
"696 892 OFFCURVE",
"600 892 CURVE SMOOTH"
);
}
);
width = 1200;
},
{
layerId = "8A5928CE-31B2-4F56-BC21-FB6F481DC46A";
paths = (
{
closed = 1;
nodes = (
"650 690 OFFCURVE",
"763 824 OFFCURVE",
"763 1065 CURVE SMOOTH",
"763 1306 OFFCURVE",
"650 1440 OFFCURVE",
"450 1440 CURVE SMOOTH",
"250 1440 OFFCURVE",
"138 1306 OFFCURVE",
"138 1065 CURVE SMOOTH",
"138 824 OFFCURVE",
"250 690 OFFCURVE",
"450 690 CURVE SMOOTH"
);
},
{
closed = 1;
nodes = (
"362 860 OFFCURVE",
"312 933 OFFCURVE",
"312 1065 CURVE SMOOTH",
"312 1197 OFFCURVE",
"362 1270 OFFCURVE",
"450 1270 CURVE SMOOTH",
"538 1270 OFFCURVE",
"588 1197 OFFCURVE",
"588 1065 CURVE SMOOTH",
"588 933 OFFCURVE",
"538 860 OFFCURVE",
"450 860 CURVE SMOOTH"
);
}
);
width = 900;
},
{
layerId = "A3FCBCC7-55DF-4604-8A77-DC78C4EF6076";
paths = (
{
closed = 1;
nodes = (
"658 690 OFFCURVE",
"784 830 OFFCURVE",
"784 1065 CURVE SMOOTH",
"784 1301 OFFCURVE",
"658 1440 OFFCURVE",
"450 1440 CURVE SMOOTH",
"242 1440 OFFCURVE",
"117 1301 OFFCURVE",
"117 1065 CURVE SMOOTH",
"117 830 OFFCURVE",
"242 690 OFFCURVE",
"450 690 CURVE SMOOTH"
);
},
{
closed = 1;
nodes = (
"382 902 OFFCURVE",
"339 962 OFFCURVE",
"339 1065 CURVE SMOOTH",
"339 1168 OFFCURVE",
"382 1229 OFFCURVE",
"450 1229 CURVE SMOOTH",
"519 1229 OFFCURVE",
"562 1168 OFFCURVE",
"562 1065 CURVE SMOOTH",
"562 962 OFFCURVE",
"519 902 OFFCURVE",
"450 902 CURVE SMOOTH"
);
}
);
width = 900;
},
{
layerId = "4AED55CC-054D-4448-879E-1FE49A52CF83";
paths = (
{
closed = 1;
nodes = (
"643 690 OFFCURVE",
"751 824 OFFCURVE",
"751 1065 CURVE SMOOTH",
"751 1306 OFFCURVE",
"643 1440 OFFCURVE",
"450 1440 CURVE SMOOTH",
"258 1440 OFFCURVE",
"149 1306 OFFCURVE",
"149 1065 CURVE SMOOTH",
"149 824 OFFCURVE",
"258 690 OFFCURVE",
"450 690 CURVE SMOOTH"
);
},
{
closed = 1;
nodes = (
"320 782 OFFCURVE",
"245 883 OFFCURVE",
"245 1065 CURVE SMOOTH",
"245 1247 OFFCURVE",
"320 1348 OFFCURVE",
"450 1348 CURVE SMOOTH",
"581 1348 OFFCURVE",
"655 1247 OFFCURVE",
"655 1065 CURVE SMOOTH",
"655 883 OFFCURVE",
"581 782 OFFCURVE",
"450 782 CURVE SMOOTH"
);
}
);
width = 900;
}
);
unicode = 00B0;
}
{
glyphname = multiply;
layers = (
{
guideLines = (
{
position = "{511, 114}";
},
{
position = "{511, 574}";
}
);
layerId = m004;
paths = (
{
closed = 1;
nodes = (
"65 284 LINE",
"283 734 LINE",
"472 1123 LINE",
"535 1090 LINE",
"325 658 LINE",
"128 253 LINE"
);
},
{
closed = 1;
nodes = (
"275 658 LINE",
"65 1090 LINE",
"128 1123 LINE",
"317 733 LINE",
"535 284 LINE",
"472 253 LINE"
);
}
);
width = 600;
},
{
guideLines = (
{
position = "{511, 114}";
},
{
position = "{511, 574}";
}
);
layerId = m005;
paths = (
{
closed = 1;
nodes = (
"45 304 LINE",
"260 766 LINE",
"432 1133 LINE",
"555 1070 LINE",
"341 613 LINE",
"168 243 LINE"
);
},
{
closed = 1;
nodes = (
"255 621 LINE",
"45 1070 LINE",
"168 1133 LINE",
"335 774 LINE",
"555 304 LINE",
"432 243 LINE"
);
}
);
width = 600;
},
{
background = {
paths = (
{
closed = 1;
nodes = (
"25 304 LINE",
"402 1133 LINE",
"575 1070 LINE",
"198 243 LINE"
);
},
{
closed = 1;
nodes = (
"25 1070 LINE",
"198 1133 LINE",
"575 304 LINE",
"402 243 LINE"
);
}
);
};
layerId = m006;
paths = (
{
closed = 1;
nodes = (
"25 324 LINE",
"256 787 LINE",
"392 1133 LINE",
"575 1050 LINE",
"346 592 LINE",
"208 243 LINE"
);
},
{
closed = 1;
nodes = (
"253 593 LINE",
"25 1050 LINE",
"208 1133 LINE",
"344 787 LINE",
"575 324 LINE",
"392 243 LINE"
);
}
);
width = 600;
},
{
guideLines = (
{
position = "{511, 114}";
},
{
position = "{511, 574}";
}
);
layerId = m007;
paths = (
{
closed = 1;
nodes = (
"145 309 LINE",
"571 718 LINE",
"992 1123 LINE",
"1055 1065 LINE",
"634 661 LINE",
"208 253 LINE"
);
},
{
closed = 1;
nodes = (
"564 663 LINE",
"145 1065 LINE",
"208 1123 LINE",
"630 717 LINE",
"1055 309 LINE",
"992 253 LINE"
);
}
);
width = 1200;
},
{
guideLines = (
{
position = "{511, 114}";
},
{
position = "{511, 574}";
}
);
layerId = m008;
paths = (
{
closed = 1;
nodes = (
"121 309 LINE",
"546 759 LINE",
"951 1188 LINE",
"1079 1065 LINE",
"670 633 LINE",
"249 188 LINE"
);
},
{
closed = 1;
nodes = (
"532 631 LINE",
"121 1065 LINE",
"249 1188 LINE",
"655 758 LINE",
"1079 309 LINE",
"951 188 LINE"
);
}
);
width = 1200;
},
{
layerId = m009;
paths = (
{
closed = 1;
nodes = (
"121 359 LINE",
"525 788 LINE",
"901 1188 LINE",
"1079 1015 LINE",
"690 603 LINE",
"299 188 LINE"
);
},
{
closed = 1;
nodes = (
"515 597 LINE",
"121 1015 LINE",
"299 1188 LINE",
"672 792 LINE",
"1079 359 LINE",
"901 188 LINE"
);
}
);
width = 1200;
},
{
layerId = "8A5928CE-31B2-4F56-BC21-FB6F481DC46A";
paths = (
{
closed = 1;
nodes = (
"83 307 LINE",
"403 763 LINE",
"692 1161 LINE",
"817 1068 LINE",
"506 623 LINE",
"209 216 LINE"
);
},
{
closed = 1;
nodes = (
"394 626 LINE",
"83 1068 LINE",
"209 1161 LINE",
"495 766 LINE",
"817 307 LINE",
"692 216 LINE"
);
}
);
width = 900;
},
{
layerId = "A3FCBCC7-55DF-4604-8A77-DC78C4EF6076";
paths = (
{
closed = 1;
nodes = (
"73 342 LINE",
"391 788 LINE",
"647 1161 LINE",
"827 1033 LINE",
"518 598 LINE",
"254 216 LINE"
);
},
{
closed = 1;
nodes = (
"384 595 LINE",
"73 1033 LINE",
"254 1161 LINE",
"508 790 LINE",
"827 342 LINE",
"647 216 LINE"
);
}
);
width = 900;
},
{
layerId = "4AED55CC-054D-4448-879E-1FE49A52CF83";
paths = (
{
closed = 1;
nodes = (
"105 297 LINE",
"427 726 LINE",
"732 1123 LINE",
"795 1078 LINE",
"480 660 LINE",
"168 253 LINE"
);
},
{
closed = 1;
nodes = (
"420 661 LINE",
"105 1078 LINE",
"168 1123 LINE",
"474 725 LINE",
"795 297 LINE",
"732 253 LINE"
);
}
);
width = 900;
}
);
unicode = 00D7;
}
{
color = 0;
export = 0;
glyphname = registered;
layers = (
{
background = {
paths = (
{
closed = 1;
nodes = (
"117 1054 LINE",
"120 1224 OFFCURVE",
"183 1313 OFFCURVE",
"300 1313 CURVE SMOOTH",
"417 1313 OFFCURVE",
"479 1224 OFFCURVE",
"482 1054 CURVE",
"574 1054 LINE",
"571 1285 OFFCURVE",
"477 1405 OFFCURVE",
"300 1405 CURVE SMOOTH",
"122 1405 OFFCURVE",
"28 1285 OFFCURVE",
"25 1054 CURVE"
);
},
{
closed = 1;
nodes = (
"477 15 OFFCURVE",
"571 135 OFFCURVE",
"574 366 CURVE",
"482 366 LINE",
"479 196 OFFCURVE",
"417 107 OFFCURVE",
"300 107 CURVE SMOOTH",
"183 107 OFFCURVE",
"120 196 OFFCURVE",
"117 366 CURVE",
"25 366 LINE",
"28 135 OFFCURVE",
"122 15 OFFCURVE",
"300 15 CURVE SMOOTH"
);
},
{
closed = 1;
nodes = (
"236 396 LINE",
"236 1010 LINE",
"142 1010 LINE",
"142 396 LINE"
);
},
{
closed = 1;
nodes = (
"459 396 LINE",
"366 655 LINE",
"282 628 LINE",
"361 396 LINE"
);
},
{
closed = 1;
nodes = (
"287 620 LINE SMOOTH",
"395 620 OFFCURVE",
"445 684 OFFCURVE",
"445 825 CURVE SMOOTH",
"445 952 OFFCURVE",
"395 1010 OFFCURVE",
"287 1010 CURVE SMOOTH",
"202 1010 LINE",
"202 920 LINE",
"287 920 LINE SMOOTH",
"330 920 OFFCURVE",
"349 887 OFFCURVE",
"349 815 CURVE SMOOTH",
"349 743 OFFCURVE",
"330 710 OFFCURVE",
"287 710 CURVE SMOOTH",
"222 710 LINE",
"222 620 LINE"
);
}
);
};
layerId = m004;
paths = (
{
closed = 1;
nodes = (
"521 15 OFFCURVE",
"598 190 OFFCURVE",
"598 695 CURVE SMOOTH",
"598 1222 OFFCURVE",
"521 1405 OFFCURVE",
"300 1405 CURVE SMOOTH",
"78 1405 OFFCURVE",
"1 1222 OFFCURVE",
"1 695 CURVE SMOOTH",
"1 190 OFFCURVE",
"78 15 OFFCURVE",
"300 15 CURVE SMOOTH"
);
},
{
closed = 1;
nodes = (
"236 396 LINE",
"236 1010 LINE",
"142 1010 LINE",
"142 396 LINE"
);
},
{
closed = 1;
nodes = (
"479 396 LINE",
"356 655 LINE",
"272 628 LINE",
"381 396 LINE"
);
},
{
closed = 1;
nodes = (
"146 105 OFFCURVE",
"93 257 OFFCURVE",
"93 695 CURVE SMOOTH",
"93 1154 OFFCURVE",
"146 1313 OFFCURVE",
"300 1313 CURVE SMOOTH",
"453 1313 OFFCURVE",
"506 1154 OFFCURVE",
"506 695 CURVE SMOOTH",
"506 257 OFFCURVE",
"453 105 OFFCURVE",
"300 105 CURVE SMOOTH"
);
},
{
closed = 1;
nodes = (
"247 620 LINE SMOOTH",
"386 620 OFFCURVE",
"465 695 OFFCURVE",
"465 825 CURVE SMOOTH",
"465 942 OFFCURVE",
"386 1010 OFFCURVE",
"247 1010 CURVE SMOOTH",
"202 1010 LINE",
"202 920 LINE",
"247 920 LINE SMOOTH",
"324 920 OFFCURVE",
"369 882 OFFCURVE",
"369 815 CURVE SMOOTH",
"369 748 OFFCURVE",
"324 710 OFFCURVE",
"247 710 CURVE SMOOTH",
"222 710 LINE",
"222 620 LINE"
);
}
);
width = 600;
},
{
layerId = m005;
paths = (
{
closed = 1;
nodes = (
"512 15 OFFCURVE",
"634 262 OFFCURVE",
"634 695 CURVE SMOOTH",
"634 1147 OFFCURVE",
"512 1405 OFFCURVE",
"300 1405 CURVE SMOOTH",
"88 1405 OFFCURVE",
"-34 1147 OFFCURVE",
"-34 695 CURVE SMOOTH",
"-34 262 OFFCURVE",
"88 15 OFFCURVE",
"300 15 CURVE SMOOTH"
);
},
{
closed = 1;
nodes = (
"289 396 LINE",
"289 1030 LINE",
"167 1030 LINE",
"167 396 LINE"
);
},
{
closed = 1;
nodes = (
"469 396 LINE",
"401 635 LINE",
"293 608 LINE",
"341 396 LINE"
);
},
{
closed = 1;
nodes = (
"177 169 OFFCURVE",
"106 361 OFFCURVE",
"106 695 CURVE SMOOTH",
"106 1048 OFFCURVE",
"177 1251 OFFCURVE",
"300 1251 CURVE SMOOTH",
"423 1251 OFFCURVE",
"494 1048 OFFCURVE",
"494 695 CURVE SMOOTH",
"494 361 OFFCURVE",
"423 169 OFFCURVE",
"300 169 CURVE SMOOTH"
);
},
{
closed = 1;
nodes = (
"316 600 LINE SMOOTH",
"403 600 OFFCURVE",
"453 682 OFFCURVE",
"453 815 CURVE SMOOTH",
"453 955 OFFCURVE",
"403 1030 OFFCURVE",
"316 1030 CURVE SMOOTH",
"254 1030 LINE",
"254 900 LINE",
"306 900 LINE SMOOTH",
"326 900 OFFCURVE",
"338 869 OFFCURVE",
"338 815 CURVE SMOOTH",
"338 761 OFFCURVE",
"326 730 OFFCURVE",
"306 730 CURVE SMOOTH",
"265 730 LINE",
"265 600 LINE"
);
}
);
width = 600;
},
{
layerId = m006;
paths = (
{
closed = 1;
nodes = (
"523 15 OFFCURVE",
"651 263 OFFCURVE",
"651 695 CURVE SMOOTH",
"651 1146 OFFCURVE",
"523 1405 OFFCURVE",
"300 1405 CURVE SMOOTH",
"77 1405 OFFCURVE",
"-51 1146 OFFCURVE",
"-51 695 CURVE SMOOTH",
"-51 263 OFFCURVE",
"77 15 OFFCURVE",
"300 15 CURVE SMOOTH"
);
},
{
closed = 1;
nodes = (
"306 396 LINE",
"306 1030 LINE",
"161 1030 LINE",
"161 396 LINE"
);
},
{
closed = 1;
nodes = (
"478 396 LINE",
"408 652 LINE",
"279 625 LINE",
"324 396 LINE"
);
},
{
closed = 1;
nodes = (
"185 227 OFFCURVE",
"119 398 OFFCURVE",
"119 695 CURVE SMOOTH",
"119 1011 OFFCURVE",
"185 1193 OFFCURVE",
"300 1193 CURVE SMOOTH",
"415 1193 OFFCURVE",
"481 1011 OFFCURVE",
"481 695 CURVE SMOOTH",
"481 398 OFFCURVE",
"415 227 OFFCURVE",
"300 227 CURVE SMOOTH"
);
},
{
closed = 1;
nodes = (
"313 583 LINE SMOOTH",
"406 583 OFFCURVE",
"459 665 OFFCURVE",
"459 808 CURVE SMOOTH",
"459 948 OFFCURVE",
"406 1030 OFFCURVE",
"313 1030 CURVE SMOOTH",
"265 1030 LINE",
"265 867 LINE",
"299 867 LINE SMOOTH",
"314 867 OFFCURVE",
"323 845 OFFCURVE",
"323 807 CURVE SMOOTH",
"323 769 OFFCURVE",
"314 747 OFFCURVE",
"299 747 CURVE SMOOTH",
"276 747 LINE",
"276 583 LINE"
);
}
);
width = 600;
},
{
layerId = m007;
paths = (
{
closed = 1;
nodes = (
"950 15 OFFCURVE",
"1150 263 OFFCURVE",
"1150 695 CURVE SMOOTH",
"1150 1146 OFFCURVE",
"950 1405 OFFCURVE",
"600 1405 CURVE SMOOTH",
"250 1405 OFFCURVE",
"50 1146 OFFCURVE",
"50 695 CURVE SMOOTH",
"50 263 OFFCURVE",
"250 15 OFFCURVE",
"600 15 CURVE SMOOTH"
);
},
{
closed = 1;
nodes = (
"475 396 LINE",
"475 1010 LINE",
"381 1010 LINE",
"381 396 LINE"
);
},
{
closed = 1;
nodes = (
"880 396 LINE",
"757 655 LINE",
"673 628 LINE",
"782 396 LINE"
);
},
{
closed = 1;
nodes = (
"309 105 OFFCURVE",
"142 320 OFFCURVE",
"142 695 CURVE SMOOTH",
"142 1087 OFFCURVE",
"309 1313 OFFCURVE",
"600 1313 CURVE SMOOTH",
"891 1313 OFFCURVE",
"1058 1087 OFFCURVE",
"1058 695 CURVE SMOOTH",
"1058 320 OFFCURVE",
"891 105 OFFCURVE",
"600 105 CURVE SMOOTH"
);
},
{
closed = 1;
nodes = (
"648 620 LINE SMOOTH",
"787 620 OFFCURVE",
"866 695 OFFCURVE",
"866 825 CURVE SMOOTH",
"866 942 OFFCURVE",
"787 1010 OFFCURVE",
"648 1010 CURVE SMOOTH",
"441 1010 LINE",
"441 920 LINE",
"648 920 LINE SMOOTH",
"725 920 OFFCURVE",
"770 882 OFFCURVE",
"770 815 CURVE SMOOTH",
"770 748 OFFCURVE",
"725 710 OFFCURVE",
"648 710 CURVE SMOOTH",
"461 710 LINE",
"461 620 LINE"
);
}
);
width = 1200;
},
{
layerId = m008;
paths = (
{
closed = 1;
nodes = (
"965 15 OFFCURVE",
"1174 263 OFFCURVE",
"1174 695 CURVE SMOOTH",
"1174 1146 OFFCURVE",
"965 1405 OFFCURVE",
"600 1405 CURVE SMOOTH",
"235 1405 OFFCURVE",
"26 1146 OFFCURVE",
"26 695 CURVE SMOOTH",
"26 263 OFFCURVE",
"235 15 OFFCURVE",
"600 15 CURVE SMOOTH"
);
},
{
closed = 1;
nodes = (
"508 396 LINE",
"508 1030 LINE",
"348 1030 LINE",
"348 396 LINE"
);
},
{
closed = 1;
nodes = (
"904 396 LINE",
"757 635 LINE",
"603 608 LINE",
"717 396 LINE"
);
},
{
closed = 1;
nodes = (
"343 169 OFFCURVE",
"196 361 OFFCURVE",
"196 695 CURVE SMOOTH",
"196 1048 OFFCURVE",
"343 1251 OFFCURVE",
"600 1251 CURVE SMOOTH",
"857 1251 OFFCURVE",
"1004 1048 OFFCURVE",
"1004 695 CURVE SMOOTH",
"1004 361 OFFCURVE",
"857 169 OFFCURVE",
"600 169 CURVE SMOOTH"
);
},
{
closed = 1;
nodes = (
"648 600 LINE SMOOTH",
"802 600 OFFCURVE",
"890 682 OFFCURVE",
"890 815 CURVE SMOOTH",
"890 955 OFFCURVE",
"802 1030 OFFCURVE",
"648 1030 CURVE SMOOTH",
"474 1030 LINE",
"474 900 LINE",
"648 900 LINE SMOOTH",
"706 900 OFFCURVE",
"740 869 OFFCURVE",
"740 815 CURVE SMOOTH",
"740 761 OFFCURVE",
"706 730 OFFCURVE",
"648 730 CURVE SMOOTH",
"494 730 LINE",
"494 600 LINE"
);
}
);
width = 1200;
},
{
layerId = m009;
paths = (
{
closed = 1;
nodes = (
"976 15 OFFCURVE",
"1191 263 OFFCURVE",
"1191 695 CURVE SMOOTH",
"1191 1146 OFFCURVE",
"976 1405 OFFCURVE",
"600 1405 CURVE SMOOTH",
"224 1405 OFFCURVE",
"9 1146 OFFCURVE",
"9 695 CURVE SMOOTH",
"9 263 OFFCURVE",
"224 15 OFFCURVE",
"600 15 CURVE SMOOTH"
);
},
{
closed = 1;
nodes = (
"566 396 LINE",
"566 1030 LINE",
"365 1030 LINE",
"365 396 LINE"
);
},
{
closed = 1;
nodes = (
"900 396 LINE",
"778 652 LINE",
"599 625 LINE",
"688 396 LINE"
);
},
{
closed = 1;
nodes = (
"370 227 OFFCURVE",
"238 398 OFFCURVE",
"238 695 CURVE SMOOTH",
"238 1011 OFFCURVE",
"370 1193 OFFCURVE",
"600 1193 CURVE SMOOTH",
"830 1193 OFFCURVE",
"962 1011 OFFCURVE",
"962 695 CURVE SMOOTH",
"962 398 OFFCURVE",
"830 227 OFFCURVE",
"600 227 CURVE SMOOTH"
);
},
{
closed = 1;
nodes = (
"631 583 LINE SMOOTH",
"785 583 OFFCURVE",
"873 665 OFFCURVE",
"873 808 CURVE SMOOTH",
"873 948 OFFCURVE",
"785 1030 OFFCURVE",
"631 1030 CURVE SMOOTH",
"507 1030 LINE",
"507 867 LINE",
"615 867 LINE SMOOTH",
"657 867 OFFCURVE",
"682 845 OFFCURVE",
"682 807 CURVE SMOOTH",
"682 769 OFFCURVE",
"657 747 OFFCURVE",
"615 747 CURVE SMOOTH",
"527 747 LINE",
"527 583 LINE"
);
}
);
width = 1200;
},
{
associatedMasterId = m004;
layerId = "ABCB5819-3CB1-4D56-90D5-FD18AF793095";
name = "[]";
paths = (
{
closed = 1;
nodes = (
"117 1054 LINE",
"120 1224 OFFCURVE",
"183 1313 OFFCURVE",
"300 1313 CURVE SMOOTH",
"417 1313 OFFCURVE",
"479 1224 OFFCURVE",
"482 1054 CURVE",
"574 1054 LINE",
"571 1285 OFFCURVE",
"477 1405 OFFCURVE",
"300 1405 CURVE SMOOTH",
"122 1405 OFFCURVE",
"28 1285 OFFCURVE",
"25 1054 CURVE"
);
},
{
closed = 1;
nodes = (
"477 15 OFFCURVE",
"571 135 OFFCURVE",
"574 366 CURVE",
"482 366 LINE",
"479 196 OFFCURVE",
"417 107 OFFCURVE",
"300 107 CURVE SMOOTH",
"183 107 OFFCURVE",
"120 196 OFFCURVE",
"117 366 CURVE",
"25 366 LINE",
"28 135 OFFCURVE",
"122 15 OFFCURVE",
"300 15 CURVE SMOOTH"
);
},
{
closed = 1;
nodes = (
"215 436 LINE",
"215 990 LINE",
"121 990 LINE",
"121 436 LINE"
);
},
{
closed = 1;
nodes = (
"520 436 LINE",
"407 675 LINE",
"323 648 LINE",
"422 436 LINE"
);
},
{
closed = 1;
nodes = (
"288 630 LINE SMOOTH",
"427 630 OFFCURVE",
"506 699 OFFCURVE",
"506 820 CURVE SMOOTH",
"506 927 OFFCURVE",
"427 990 OFFCURVE",
"288 990 CURVE SMOOTH",
"181 990 LINE",
"181 900 LINE",
"288 900 LINE SMOOTH",
"365 900 OFFCURVE",
"410 867 OFFCURVE",
"410 810 CURVE SMOOTH",
"410 753 OFFCURVE",
"365 720 OFFCURVE",
"288 720 CURVE SMOOTH",
"201 720 LINE",
"201 630 LINE"
);
}
);
width = 600;
},
{
associatedMasterId = m005;
background = {
paths = (
{
closed = 1;
nodes = (
"248 396 LINE",
"248 1030 LINE",
"108 1030 LINE",
"108 396 LINE"
);
},
{
closed = 1;
nodes = (
"564 396 LINE",
"417 635 LINE",
"283 608 LINE",
"397 396 LINE"
);
},
{
closed = 1;
nodes = (
"328 600 LINE SMOOTH",
"469 600 OFFCURVE",
"550 682 OFFCURVE",
"550 815 CURVE SMOOTH",
"550 955 OFFCURVE",
"469 1030 OFFCURVE",
"328 1030 CURVE SMOOTH",
"214 1030 LINE",
"214 900 LINE",
"328 900 LINE SMOOTH",
"386 900 OFFCURVE",
"420 869 OFFCURVE",
"420 815 CURVE SMOOTH",
"420 761 OFFCURVE",
"386 730 OFFCURVE",
"328 730 CURVE SMOOTH",
"234 730 LINE",
"234 600 LINE"
);
}
);
};
layerId = "2D5C5176-3310-420E-8FE0-EE37E22442A2";
name = "[]";
paths = (
{
closed = 1;
nodes = (
"180 1054 LINE",
"182 1173 OFFCURVE",
"223 1235 OFFCURVE",
"300 1235 CURVE SMOOTH",
"377 1235 OFFCURVE",
"417 1173 OFFCURVE",
"419 1054 CURVE",
"584 1054 LINE",
"581 1285 OFFCURVE",
"484 1405 OFFCURVE",
"300 1405 CURVE SMOOTH",
"115 1405 OFFCURVE",
"18 1285 OFFCURVE",
"15 1054 CURVE"
);
},
{
closed = 1;
nodes = (
"484 15 OFFCURVE",
"581 135 OFFCURVE",
"584 366 CURVE",
"419 366 LINE",
"417 247 OFFCURVE",
"377 185 OFFCURVE",
"300 185 CURVE SMOOTH",
"223 185 OFFCURVE",
"182 247 OFFCURVE",
"180 366 CURVE",
"15 366 LINE",
"18 135 OFFCURVE",
"115 15 OFFCURVE",
"300 15 CURVE SMOOTH"
);
},
{
closed = 1;
nodes = (
"238 396 LINE",
"238 1030 LINE",
"98 1030 LINE",
"98 396 LINE"
);
},
{
closed = 1;
nodes = (
"554 396 LINE",
"407 635 LINE",
"273 608 LINE",
"387 396 LINE"
);
},
{
closed = 1;
nodes = (
"318 600 LINE SMOOTH",
"459 600 OFFCURVE",
"540 682 OFFCURVE",
"540 815 CURVE SMOOTH",
"540 955 OFFCURVE",
"459 1030 OFFCURVE",
"318 1030 CURVE SMOOTH",
"204 1030 LINE",
"204 900 LINE",
"318 900 LINE SMOOTH",
"376 900 OFFCURVE",
"410 869 OFFCURVE",
"410 815 CURVE SMOOTH",
"410 761 OFFCURVE",
"376 730 OFFCURVE",
"318 730 CURVE SMOOTH",
"224 730 LINE",
"224 600 LINE"
);
}
);
width = 600;
},
{
associatedMasterId = m006;
layerId = "A6A80ED9-AD94-4AA8-9084-92F030BBE08B";
name = "[]";
paths = (
{
closed = 1;
nodes = (
"180 1054 LINE",
"182 1173 OFFCURVE",
"223 1235 OFFCURVE",
"300 1235 CURVE SMOOTH",
"377 1235 OFFCURVE",
"417 1173 OFFCURVE",
"419 1054 CURVE",
"584 1054 LINE",
"581 1285 OFFCURVE",
"484 1405 OFFCURVE",
"300 1405 CURVE SMOOTH",
"115 1405 OFFCURVE",
"18 1285 OFFCURVE",
"15 1054 CURVE"
);
},
{
closed = 1;
nodes = (
"484 15 OFFCURVE",
"581 135 OFFCURVE",
"584 366 CURVE",
"419 366 LINE",
"417 247 OFFCURVE",
"377 185 OFFCURVE",
"300 185 CURVE SMOOTH",
"223 185 OFFCURVE",
"182 247 OFFCURVE",
"180 366 CURVE",
"15 366 LINE",
"18 135 OFFCURVE",
"115 15 OFFCURVE",
"300 15 CURVE SMOOTH"
);
},
{
closed = 1;
nodes = (
"238 396 LINE",
"238 1030 LINE",
"98 1030 LINE",
"98 396 LINE"
);
},
{
closed = 1;
nodes = (
"554 396 LINE",
"407 635 LINE",
"273 608 LINE",
"387 396 LINE"
);
},
{
closed = 1;
nodes = (
"318 600 LINE SMOOTH",
"459 600 OFFCURVE",
"540 682 OFFCURVE",
"540 815 CURVE SMOOTH",
"540 955 OFFCURVE",
"459 1030 OFFCURVE",
"318 1030 CURVE SMOOTH",
"204 1030 LINE",
"204 900 LINE",
"318 900 LINE SMOOTH",
"376 900 OFFCURVE",
"410 869 OFFCURVE",
"410 815 CURVE SMOOTH",
"410 761 OFFCURVE",
"376 730 OFFCURVE",
"318 730 CURVE SMOOTH",
"224 730 LINE",
"224 600 LINE"
);
}
);
width = 600;
},
{
associatedMasterId = m007;
layerId = "FFC0C188-A2E0-4B3A-9CED-7F22233ECC27";
name = "[]";
paths = (
{
closed = 1;
nodes = (
"117 1054 LINE",
"120 1224 OFFCURVE",
"183 1313 OFFCURVE",
"300 1313 CURVE SMOOTH",
"417 1313 OFFCURVE",
"479 1224 OFFCURVE",
"482 1054 CURVE",
"574 1054 LINE",
"571 1285 OFFCURVE",
"477 1405 OFFCURVE",
"300 1405 CURVE SMOOTH",
"122 1405 OFFCURVE",
"28 1285 OFFCURVE",
"25 1054 CURVE"
);
},
{
closed = 1;
nodes = (
"477 15 OFFCURVE",
"571 135 OFFCURVE",
"574 366 CURVE",
"482 366 LINE",
"479 196 OFFCURVE",
"417 107 OFFCURVE",
"300 107 CURVE SMOOTH",
"183 107 OFFCURVE",
"120 196 OFFCURVE",
"117 366 CURVE",
"25 366 LINE",
"28 135 OFFCURVE",
"122 15 OFFCURVE",
"300 15 CURVE SMOOTH"
);
},
{
closed = 1;
nodes = (
"215 436 LINE",
"215 990 LINE",
"121 990 LINE",
"121 436 LINE"
);
},
{
closed = 1;
nodes = (
"520 436 LINE",
"407 675 LINE",
"323 648 LINE",
"422 436 LINE"
);
},
{
closed = 1;
nodes = (
"288 630 LINE SMOOTH",
"427 630 OFFCURVE",
"506 699 OFFCURVE",
"506 820 CURVE SMOOTH",
"506 927 OFFCURVE",
"427 990 OFFCURVE",
"288 990 CURVE SMOOTH",
"181 990 LINE",
"181 900 LINE",
"288 900 LINE SMOOTH",
"365 900 OFFCURVE",
"410 867 OFFCURVE",
"410 810 CURVE SMOOTH",
"410 753 OFFCURVE",
"365 720 OFFCURVE",
"288 720 CURVE SMOOTH",
"201 720 LINE",
"201 630 LINE"
);
}
);
width = 1200;
},
{
associatedMasterId = m008;
layerId = "21BD339B-8BF5-4C44-BA67-EE877BEA3895";
name = "[]";
paths = (
{
closed = 1;
nodes = (
"180 1054 LINE",
"182 1173 OFFCURVE",
"223 1235 OFFCURVE",
"300 1235 CURVE SMOOTH",
"377 1235 OFFCURVE",
"417 1173 OFFCURVE",
"419 1054 CURVE",
"584 1054 LINE",
"581 1285 OFFCURVE",
"484 1405 OFFCURVE",
"300 1405 CURVE SMOOTH",
"115 1405 OFFCURVE",
"18 1285 OFFCURVE",
"15 1054 CURVE"
);
},
{
closed = 1;
nodes = (
"484 15 OFFCURVE",
"581 135 OFFCURVE",
"584 366 CURVE",
"419 366 LINE",
"417 247 OFFCURVE",
"377 185 OFFCURVE",
"300 185 CURVE SMOOTH",
"223 185 OFFCURVE",
"182 247 OFFCURVE",
"180 366 CURVE",
"15 366 LINE",
"18 135 OFFCURVE",
"115 15 OFFCURVE",
"300 15 CURVE SMOOTH"
);
},
{
closed = 1;
nodes = (
"238 396 LINE",
"238 1030 LINE",
"98 1030 LINE",
"98 396 LINE"
);
},
{
closed = 1;
nodes = (
"554 396 LINE",
"407 635 LINE",
"273 608 LINE",
"387 396 LINE"
);
},
{
closed = 1;
nodes = (
"318 600 LINE SMOOTH",
"459 600 OFFCURVE",
"540 682 OFFCURVE",
"540 815 CURVE SMOOTH",
"540 955 OFFCURVE",
"459 1030 OFFCURVE",
"318 1030 CURVE SMOOTH",
"204 1030 LINE",
"204 900 LINE",
"318 900 LINE SMOOTH",
"376 900 OFFCURVE",
"410 869 OFFCURVE",
"410 815 CURVE SMOOTH",
"410 761 OFFCURVE",
"376 730 OFFCURVE",
"318 730 CURVE SMOOTH",
"224 730 LINE",
"224 600 LINE"
);
}
);
width = 1200;
},
{
associatedMasterId = m009;
layerId = "2EA5085A-8F0A-45A0-965C-9A15CD926A40";
name = "[]";
paths = (
{
closed = 1;
nodes = (
"180 1054 LINE",
"182 1173 OFFCURVE",
"223 1235 OFFCURVE",
"300 1235 CURVE SMOOTH",
"377 1235 OFFCURVE",
"417 1173 OFFCURVE",
"419 1054 CURVE",
"584 1054 LINE",
"581 1285 OFFCURVE",
"484 1405 OFFCURVE",
"300 1405 CURVE SMOOTH",
"115 1405 OFFCURVE",
"18 1285 OFFCURVE",
"15 1054 CURVE"
);
},
{
closed = 1;
nodes = (
"484 15 OFFCURVE",
"581 135 OFFCURVE",
"584 366 CURVE",
"419 366 LINE",
"417 247 OFFCURVE",
"377 185 OFFCURVE",
"300 185 CURVE SMOOTH",
"223 185 OFFCURVE",
"182 247 OFFCURVE",
"180 366 CURVE",
"15 366 LINE",
"18 135 OFFCURVE",
"115 15 OFFCURVE",
"300 15 CURVE SMOOTH"
);
},
{
closed = 1;
nodes = (
"238 396 LINE",
"238 1030 LINE",
"98 1030 LINE",
"98 396 LINE"
);
},
{
closed = 1;
nodes = (
"554 396 LINE",
"407 635 LINE",
"273 608 LINE",
"387 396 LINE"
);
},
{
closed = 1;
nodes = (
"318 600 LINE SMOOTH",
"459 600 OFFCURVE",
"540 682 OFFCURVE",
"540 815 CURVE SMOOTH",
"540 955 OFFCURVE",
"459 1030 OFFCURVE",
"318 1030 CURVE SMOOTH",
"204 1030 LINE",
"204 900 LINE",
"318 900 LINE SMOOTH",
"376 900 OFFCURVE",
"410 869 OFFCURVE",
"410 815 CURVE SMOOTH",
"410 761 OFFCURVE",
"376 730 OFFCURVE",
"318 730 CURVE SMOOTH",
"224 730 LINE",
"224 600 LINE"
);
}
);
width = 1200;
},
{
layerId = "8A5928CE-31B2-4F56-BC21-FB6F481DC46A";
paths = (
{
closed = 1;
nodes = (
"739 15 OFFCURVE",
"904 263 OFFCURVE",
"904 695 CURVE SMOOTH",
"904 1147 OFFCURVE",
"739 1405 OFFCURVE",
"450 1405 CURVE SMOOTH",
"162 1405 OFFCURVE",
"-4 1147 OFFCURVE",
"-4 695 CURVE SMOOTH",
"-4 263 OFFCURVE",
"162 15 OFFCURVE",
"450 15 CURVE SMOOTH"
);
},
{
closed = 1;
nodes = (
"399 396 LINE",
"399 1030 LINE",
"258 1030 LINE",
"258 396 LINE"
);
},
{
closed = 1;
nodes = (
"687 396 LINE",
"579 635 LINE",
"448 608 LINE",
"529 396 LINE"
);
},
{
closed = 1;
nodes = (
"260 169 OFFCURVE",
"151 361 OFFCURVE",
"151 695 CURVE SMOOTH",
"151 1048 OFFCURVE",
"260 1251 OFFCURVE",
"450 1251 CURVE SMOOTH",
"640 1251 OFFCURVE",
"749 1048 OFFCURVE",
"749 695 CURVE SMOOTH",
"749 361 OFFCURVE",
"640 169 OFFCURVE",
"450 169 CURVE SMOOTH"
);
},
{
closed = 1;
nodes = (
"482 600 LINE SMOOTH",
"603 600 OFFCURVE",
"672 682 OFFCURVE",
"672 815 CURVE SMOOTH",
"672 955 OFFCURVE",
"603 1030 OFFCURVE",
"482 1030 CURVE SMOOTH",
"364 1030 LINE",
"364 900 LINE",
"477 900 LINE SMOOTH",
"516 900 OFFCURVE",
"539 869 OFFCURVE",
"539 815 CURVE SMOOTH",
"539 761 OFFCURVE",
"516 730 OFFCURVE",
"477 730 CURVE SMOOTH",
"380 730 LINE",
"380 600 LINE"
);
}
);
width = 900;
},
{
layerId = "A3FCBCC7-55DF-4604-8A77-DC78C4EF6076";
paths = (
{
closed = 1;
nodes = (
"750 15 OFFCURVE",
"921 263 OFFCURVE",
"921 695 CURVE SMOOTH",
"921 1146 OFFCURVE",
"750 1405 OFFCURVE",
"450 1405 CURVE SMOOTH",
"151 1405 OFFCURVE",
"-21 1146 OFFCURVE",
"-21 695 CURVE SMOOTH",
"-21 263 OFFCURVE",
"151 15 OFFCURVE",
"450 15 CURVE SMOOTH"
);
},
{
closed = 1;
nodes = (
"436 396 LINE",
"436 1030 LINE",
"263 1030 LINE",
"263 396 LINE"
);
},
{
closed = 1;
nodes = (
"689 396 LINE",
"593 652 LINE",
"439 625 LINE",
"506 396 LINE"
);
},
{
closed = 1;
nodes = (
"278 227 OFFCURVE",
"179 398 OFFCURVE",
"179 695 CURVE SMOOTH",
"179 1011 OFFCURVE",
"278 1193 OFFCURVE",
"450 1193 CURVE SMOOTH",
"623 1193 OFFCURVE",
"722 1011 OFFCURVE",
"722 695 CURVE SMOOTH",
"722 398 OFFCURVE",
"623 227 OFFCURVE",
"450 227 CURVE SMOOTH"
);
},
{
closed = 1;
nodes = (
"472 583 LINE SMOOTH",
"596 583 OFFCURVE",
"666 665 OFFCURVE",
"666 808 CURVE SMOOTH",
"666 948 OFFCURVE",
"596 1030 OFFCURVE",
"472 1030 CURVE SMOOTH",
"386 1030 LINE",
"386 867 LINE",
"457 867 LINE SMOOTH",
"486 867 OFFCURVE",
"503 845 OFFCURVE",
"503 807 CURVE SMOOTH",
"503 769 OFFCURVE",
"486 747 OFFCURVE",
"457 747 CURVE SMOOTH",
"402 747 LINE",
"402 583 LINE"
);
}
);
width = 900;
},
{
layerId = "4AED55CC-054D-4448-879E-1FE49A52CF83";
paths = (
{
closed = 1;
nodes = (
"736 15 OFFCURVE",
"874 227 OFFCURVE",
"874 695 CURVE SMOOTH",
"874 1184 OFFCURVE",
"736 1405 OFFCURVE",
"450 1405 CURVE SMOOTH",
"164 1405 OFFCURVE",
"26 1184 OFFCURVE",
"26 695 CURVE SMOOTH",
"26 227 OFFCURVE",
"164 15 OFFCURVE",
"450 15 CURVE SMOOTH"
);
},
{
closed = 1;
nodes = (
"356 396 LINE",
"356 1010 LINE",
"262 1010 LINE",
"262 396 LINE"
);
},
{
closed = 1;
nodes = (
"680 396 LINE",
"557 655 LINE",
"473 628 LINE",
"582 396 LINE"
);
},
{
closed = 1;
nodes = (
"228 105 OFFCURVE",
"118 289 OFFCURVE",
"118 695 CURVE SMOOTH",
"118 1121 OFFCURVE",
"228 1313 OFFCURVE",
"450 1313 CURVE SMOOTH",
"672 1313 OFFCURVE",
"782 1121 OFFCURVE",
"782 695 CURVE SMOOTH",
"782 289 OFFCURVE",
"672 105 OFFCURVE",
"450 105 CURVE SMOOTH"
);
},
{
closed = 1;
nodes = (
"448 620 LINE SMOOTH",
"587 620 OFFCURVE",
"666 695 OFFCURVE",
"666 825 CURVE SMOOTH",
"666 942 OFFCURVE",
"587 1010 OFFCURVE",
"448 1010 CURVE SMOOTH",
"322 1010 LINE",
"322 920 LINE",
"448 920 LINE SMOOTH",
"525 920 OFFCURVE",
"570 882 OFFCURVE",
"570 815 CURVE SMOOTH",
"570 748 OFFCURVE",
"525 710 OFFCURVE",
"448 710 CURVE SMOOTH",
"342 710 LINE",
"342 620 LINE"
);
}
);
width = 900;
}
);
unicode = 00AE;
}
{
glyphname = sterling;
layers = (
{
background = {
components = (
{
name = C;
}
);
};
layerId = m004;
paths = (
{
closed = 1;
nodes = (
"156 0 LINE",
"156 90 LINE",
"211 278 OFFCURVE",
"237 441 OFFCURVE",
"237 627 CURVE SMOOTH",
"237 1146 LINE SMOOTH",
"237 1280 OFFCURVE",
"278 1350 OFFCURVE",
"358 1350 CURVE SMOOTH",
"403 1350 OFFCURVE",
"441 1311 OFFCURVE",
"468 1237 CURVE",
"555 1277 LINE",
"519 1384 OFFCURVE",
"452 1440 OFFCURVE",
"362 1440 CURVE SMOOTH",
"212 1440 OFFCURVE",
"133 1340 OFFCURVE",
"133 1147 CURVE SMOOTH",
"133 627 LINE SMOOTH",
"133 441 OFFCURVE",
"118 278 OFFCURVE",
"86 90 CURVE",
"86 0 LINE"
);
},
{
closed = 1;
nodes = (
"538 0 LINE",
"538 90 LINE",
"116 90 LINE",
"116 0 LINE"
);
},
{
closed = 1;
nodes = (
"457 605 LINE",
"457 695 LINE",
"44 695 LINE",
"44 605 LINE"
);
}
);
width = 600;
},
{
layerId = m005;
paths = (
{
closed = 1;
nodes = (
"223 0 LINE",
"201 160 LINE",
"270 322 OFFCURVE",
"304 465 OFFCURVE",
"304 627 CURVE SMOOTH",
"304 1136 LINE SMOOTH",
"304 1228 OFFCURVE",
"326 1270 OFFCURVE",
"375 1270 CURVE SMOOTH",
"402 1270 OFFCURVE",
"426 1244 OFFCURVE",
"441 1199 CURVE",
"570 1266 LINE",
"539 1374 OFFCURVE",
"468 1440 OFFCURVE",
"368 1440 CURVE SMOOTH",
"216 1440 OFFCURVE",
"146 1345 OFFCURVE",
"146 1137 CURVE SMOOTH",
"146 627 LINE SMOOTH",
"146 464 OFFCURVE",
"116 322 OFFCURVE",
"54 160 CURVE",
"54 0 LINE"
);
},
{
closed = 1;
nodes = (
"561 0 LINE",
"561 160 LINE",
"95 160 LINE",
"95 0 LINE"
);
},
{
closed = 1;
nodes = (
"450 581 LINE",
"450 719 LINE",
"54 719 LINE",
"54 581 LINE"
);
}
);
width = 600;
},
{
background = {
paths = (
{
closed = 1;
nodes = (
"211 0 LINE",
"189 221 LINE",
"284 362 OFFCURVE",
"331 486 OFFCURVE",
"331 627 CURVE SMOOTH",
"331 1136 LINE SMOOTH",
"331 1186 OFFCURVE",
"345 1209 OFFCURVE",
"375 1209 CURVE SMOOTH",
"404 1209 OFFCURVE",
"415 1179 OFFCURVE",
"421 1128 CURVE",
"590 1185 LINE",
"576 1343 OFFCURVE",
"498 1440 OFFCURVE",
"368 1440 CURVE SMOOTH",
"202 1440 OFFCURVE",
"126 1345 OFFCURVE",
"126 1137 CURVE SMOOTH",
"126 627 LINE SMOOTH",
"126 485 OFFCURVE",
"98 362 OFFCURVE",
"42 221 CURVE",
"42 0 LINE"
);
},
{
closed = 1;
nodes = (
"573 0 LINE",
"573 221 LINE",
"83 221 LINE",
"83 0 LINE"
);
},
{
closed = 1;
nodes = (
"470 540 LINE",
"470 760 LINE",
"44 760 LINE",
"44 540 LINE"
);
}
);
};
layerId = m006;
paths = (
{
closed = 1;
nodes = (
"211 0 LINE",
"189 221 LINE",
"284 362 OFFCURVE",
"331 486 OFFCURVE",
"331 627 CURVE SMOOTH",
"331 1136 LINE SMOOTH",
"331 1186 OFFCURVE",
"345 1209 OFFCURVE",
"375 1209 CURVE SMOOTH",
"404 1209 OFFCURVE",
"415 1179 OFFCURVE",
"421 1128 CURVE",
"590 1185 LINE",
"576 1343 OFFCURVE",
"498 1440 OFFCURVE",
"368 1440 CURVE SMOOTH",
"202 1440 OFFCURVE",
"126 1345 OFFCURVE",
"126 1137 CURVE SMOOTH",
"126 627 LINE SMOOTH",
"126 485 OFFCURVE",
"98 362 OFFCURVE",
"42 221 CURVE",
"42 0 LINE"
);
},
{
closed = 1;
nodes = (
"573 0 LINE",
"573 221 LINE",
"83 221 LINE",
"83 0 LINE"
);
},
{
closed = 1;
nodes = (
"470 540 LINE",
"470 760 LINE",
"44 760 LINE",
"44 540 LINE"
);
}
);
width = 600;
},
{
layerId = m007;
paths = (
{
closed = 1;
nodes = (
"239 0 LINE",
"239 90 LINE",
"338 275 OFFCURVE",
"386 441 OFFCURVE",
"386 627 CURVE SMOOTH",
"386 1035 LINE SMOOTH",
"386 1239 OFFCURVE",
"523 1350 OFFCURVE",
"722 1350 CURVE SMOOTH",
"845 1350 OFFCURVE",
"955 1282 OFFCURVE",
"1025 1164 CURVE",
"1103 1221 LINE",
"1030 1360 OFFCURVE",
"894 1440 OFFCURVE",
"730 1440 CURVE SMOOTH",
"455 1440 OFFCURVE",
"292 1294 OFFCURVE",
"292 1036 CURVE SMOOTH",
"292 627 LINE SMOOTH",
"292 441 OFFCURVE",
"244 278 OFFCURVE",
"144 90 CURVE",
"144 0 LINE"
);
},
{
closed = 1;
nodes = (
"1084 0 LINE",
"1084 90 LINE",
"204 90 LINE",
"204 0 LINE"
);
},
{
closed = 1;
nodes = (
"885 605 LINE",
"885 695 LINE",
"121 695 LINE",
"121 605 LINE"
);
}
);
width = 1200;
},
{
layerId = m008;
paths = (
{
closed = 1;
nodes = (
"344 0 LINE",
"344 186 LINE",
"453 338 OFFCURVE",
"506 474 OFFCURVE",
"506 627 CURVE SMOOTH",
"506 1035 LINE SMOOTH",
"506 1178 OFFCURVE",
"586 1256 OFFCURVE",
"702 1256 CURVE SMOOTH",
"802 1256 OFFCURVE",
"891 1197 OFFCURVE",
"947 1094 CURVE",
"1105 1211 LINE",
"1041 1356 OFFCURVE",
"897 1440 OFFCURVE",
"710 1440 CURVE SMOOTH",
"448 1440 OFFCURVE",
"292 1294 OFFCURVE",
"292 1036 CURVE SMOOTH",
"292 627 LINE SMOOTH",
"292 474 OFFCURVE",
"240 340 OFFCURVE",
"132 186 CURVE",
"132 0 LINE"
);
},
{
closed = 1;
nodes = (
"1096 0 LINE",
"1096 186 LINE",
"192 186 LINE",
"192 0 LINE"
);
},
{
closed = 1;
nodes = (
"897 581 LINE",
"897 719 LINE",
"109 719 LINE",
"109 581 LINE"
);
}
);
width = 1200;
},
{
layerId = m009;
paths = (
{
closed = 1;
nodes = (
"427 0 LINE",
"394 243 LINE",
"503 376 OFFCURVE",
"556 494 OFFCURVE",
"556 627 CURVE SMOOTH",
"556 973 LINE SMOOTH",
"556 1111 OFFCURVE",
"636 1187 OFFCURVE",
"752 1187 CURVE SMOOTH",
"825 1187 OFFCURVE",
"889 1140 OFFCURVE",
"930 1057 CURVE",
"1132 1213 LINE",
"1068 1357 OFFCURVE",
"928 1440 OFFCURVE",
"743 1440 CURVE SMOOTH",
"450 1440 OFFCURVE",
"275 1294 OFFCURVE",
"275 1036 CURVE SMOOTH",
"275 627 LINE SMOOTH",
"275 494 OFFCURVE",
"223 377 OFFCURVE",
"115 243 CURVE",
"115 0 LINE"
);
},
{
closed = 1;
nodes = (
"1113 0 LINE",
"1113 243 LINE",
"192 243 LINE",
"192 0 LINE"
);
},
{
closed = 1;
nodes = (
"897 533 LINE",
"897 767 LINE",
"109 767 LINE",
"109 533 LINE"
);
}
);
width = 1200;
},
{
layerId = "8A5928CE-31B2-4F56-BC21-FB6F481DC46A";
paths = (
{
closed = 1;
nodes = (
"284 0 LINE",
"273 173 LINE",
"362 330 OFFCURVE",
"405 470 OFFCURVE",
"405 627 CURVE SMOOTH",
"405 1086 LINE SMOOTH",
"405 1203 OFFCURVE",
"456 1263 OFFCURVE",
"539 1263 CURVE SMOOTH",
"602 1263 OFFCURVE",
"659 1221 OFFCURVE",
"694 1147 CURVE",
"838 1239 LINE",
"790 1365 OFFCURVE",
"683 1440 OFFCURVE",
"539 1440 CURVE SMOOTH",
"332 1440 OFFCURVE",
"219 1320 OFFCURVE",
"219 1087 CURVE SMOOTH",
"219 627 LINE SMOOTH",
"219 469 OFFCURVE",
"178 331 OFFCURVE",
"93 173 CURVE",
"93 0 LINE"
);
},
{
closed = 1;
nodes = (
"829 0 LINE",
"829 173 LINE",
"144 173 LINE",
"144 0 LINE"
);
},
{
closed = 1;
nodes = (
"674 581 LINE",
"674 719 LINE",
"82 719 LINE",
"82 581 LINE"
);
}
);
width = 900;
},
{
layerId = "A3FCBCC7-55DF-4604-8A77-DC78C4EF6076";
paths = (
{
closed = 1;
nodes = (
"319 0 LINE",
"292 232 LINE",
"394 369 OFFCURVE",
"444 490 OFFCURVE",
"444 627 CURVE SMOOTH",
"444 1055 LINE SMOOTH",
"444 1149 OFFCURVE",
"491 1198 OFFCURVE",
"564 1198 CURVE SMOOTH",
"615 1198 OFFCURVE",
"652 1160 OFFCURVE",
"676 1093 CURVE",
"861 1199 LINE",
"822 1350 OFFCURVE",
"713 1440 OFFCURVE",
"556 1440 CURVE SMOOTH",
"326 1440 OFFCURVE",
"201 1320 OFFCURVE",
"201 1087 CURVE SMOOTH",
"201 627 LINE SMOOTH",
"201 490 OFFCURVE",
"161 370 OFFCURVE",
"79 232 CURVE",
"79 0 LINE"
);
},
{
closed = 1;
nodes = (
"843 0 LINE",
"843 232 LINE",
"138 232 LINE",
"138 0 LINE"
);
},
{
closed = 1;
nodes = (
"684 537 LINE",
"684 764 LINE",
"77 764 LINE",
"77 537 LINE"
);
}
);
width = 900;
},
{
layerId = "4AED55CC-054D-4448-879E-1FE49A52CF83";
paths = (
{
closed = 1;
nodes = (
"198 0 LINE",
"198 90 LINE",
"275 277 OFFCURVE",
"312 441 OFFCURVE",
"312 627 CURVE SMOOTH",
"312 1091 LINE SMOOTH",
"312 1260 OFFCURVE",
"401 1350 OFFCURVE",
"540 1350 CURVE SMOOTH",
"624 1350 OFFCURVE",
"698 1297 OFFCURVE",
"747 1201 CURVE",
"829 1249 LINE",
"775 1372 OFFCURVE",
"673 1440 OFFCURVE",
"546 1440 CURVE SMOOTH",
"334 1440 OFFCURVE",
"213 1317 OFFCURVE",
"213 1092 CURVE SMOOTH",
"213 627 LINE SMOOTH",
"213 441 OFFCURVE",
"181 278 OFFCURVE",
"115 90 CURVE",
"115 0 LINE"
);
},
{
closed = 1;
nodes = (
"811 0 LINE",
"811 90 LINE",
"160 90 LINE",
"160 0 LINE"
);
},
{
closed = 1;
nodes = (
"671 605 LINE",
"671 695 LINE",
"83 695 LINE",
"83 605 LINE"
);
}
);
width = 900;
}
);
unicode = 00A3;
}
{
glyphname = yen;
layers = (
{
components = (
{
name = Y;
}
);
layerId = m004;
paths = (
{
closed = 1;
nodes = (
"499 479 LINE",
"499 569 LINE",
"101 569 LINE",
"101 479 LINE"
);
},
{
closed = 1;
nodes = (
"499 220 LINE",
"499 310 LINE",
"101 310 LINE",
"101 220 LINE"
);
}
);
width = 600;
},
{
components = (
{
name = Y;
}
);
layerId = m005;
paths = (
{
closed = 1;
nodes = (
"519 451 LINE",
"519 589 LINE",
"81 589 LINE",
"81 451 LINE"
);
},
{
closed = 1;
nodes = (
"519 191 LINE",
"519 329 LINE",
"81 329 LINE",
"81 191 LINE"
);
}
);
width = 600;
},
{
components = (
{
alignment = -1;
name = Y;
}
);
layerId = m006;
paths = (
{
closed = 1;
nodes = (
"556 404 LINE",
"556 611 LINE",
"44 611 LINE",
"44 404 LINE"
);
},
{
closed = 1;
nodes = (
"556 123 LINE",
"556 329 LINE",
"44 329 LINE",
"44 123 LINE"
);
}
);
width = 600;
},
{
components = (
{
name = Y;
}
);
layerId = m007;
paths = (
{
closed = 1;
nodes = (
"1039 509 LINE",
"1039 599 LINE",
"161 599 LINE",
"161 509 LINE"
);
},
{
closed = 1;
nodes = (
"1039 215 LINE",
"1039 305 LINE",
"161 305 LINE",
"161 215 LINE"
);
}
);
width = 1200;
},
{
components = (
{
name = Y;
}
);
layerId = m008;
paths = (
{
closed = 1;
nodes = (
"1039 501 LINE",
"1039 639 LINE",
"161 639 LINE",
"161 501 LINE"
);
},
{
closed = 1;
nodes = (
"1039 191 LINE",
"1039 329 LINE",
"161 329 LINE",
"161 191 LINE"
);
}
);
width = 1200;
},
{
components = (
{
alignment = -1;
name = Y;
}
);
layerId = m009;
paths = (
{
closed = 1;
nodes = (
"1056 459 LINE",
"1056 681 LINE",
"144 681 LINE",
"144 459 LINE"
);
},
{
closed = 1;
nodes = (
"1056 133 LINE",
"1056 354 LINE",
"144 354 LINE",
"144 133 LINE"
);
}
);
width = 1200;
},
{
components = (
{
alignment = -1;
name = Y;
}
);
layerId = "8A5928CE-31B2-4F56-BC21-FB6F481DC46A";
paths = (
{
closed = 1;
nodes = (
"779 476 LINE",
"779 614 LINE",
"121 614 LINE",
"121 476 LINE"
);
},
{
closed = 1;
nodes = (
"779 191 LINE",
"779 329 LINE",
"121 329 LINE",
"121 191 LINE"
);
}
);
width = 900;
},
{
components = (
{
alignment = -1;
name = Y;
}
);
layerId = "A3FCBCC7-55DF-4604-8A77-DC78C4EF6076";
paths = (
{
closed = 1;
nodes = (
"806 432 LINE",
"806 646 LINE",
"94 646 LINE",
"94 432 LINE"
);
},
{
closed = 1;
nodes = (
"806 128 LINE",
"806 342 LINE",
"94 342 LINE",
"94 128 LINE"
);
}
);
width = 900;
},
{
components = (
{
alignment = -1;
name = Y;
}
);
layerId = "4AED55CC-054D-4448-879E-1FE49A52CF83";
paths = (
{
closed = 1;
nodes = (
"769 494 LINE",
"769 584 LINE",
"131 584 LINE",
"131 494 LINE"
);
},
{
closed = 1;
nodes = (
"769 218 LINE",
"769 308 LINE",
"131 308 LINE",
"131 218 LINE"
);
}
);
width = 900;
}
);
unicode = 00A5;
}
{
glyphname = comma;
layers = (
{
layerId = m004;
paths = (
{
closed = 1;
nodes = (
"289 -436 LINE",
"374 254 LINE",
"287 254 LINE",
"207 -436 LINE"
);
}
);
width = 600;
},
{
layerId = m005;
paths = (
{
closed = 1;
nodes = (
"302 -436 LINE",
"415 213 LINE",
"236 213 LINE",
"161 -436 LINE"
);
}
);
width = 600;
},
{
layerId = m006;
paths = (
{
closed = 1;
nodes = (
"337 -436 LINE",
"457 254 LINE",
"219 254 LINE",
"139 -436 LINE"
);
}
);
width = 600;
},
{
layerId = m007;
paths = (
{
closed = 1;
nodes = (
"574 -436 LINE",
"659 254 LINE",
"562 254 LINE",
"482 -436 LINE"
);
}
);
width = 1200;
},
{
layerId = m008;
paths = (
{
closed = 1;
nodes = (
"604 -436 LINE",
"724 254 LINE",
"492 254 LINE",
"412 -436 LINE"
);
}
);
width = 1200;
},
{
layerId = m009;
paths = (
{
closed = 1;
nodes = (
"637 -436 LINE",
"757 254 LINE",
"459 254 LINE",
"379 -436 LINE"
);
}
);
width = 1200;
},
{
layerId = "8A5928CE-31B2-4F56-BC21-FB6F481DC46A";
paths = (
{
closed = 1;
nodes = (
"453 -436 LINE",
"570 234 LINE",
"364 234 LINE",
"287 -436 LINE"
);
}
);
width = 900;
},
{
layerId = "A3FCBCC7-55DF-4604-8A77-DC78C4EF6076";
paths = (
{
closed = 1;
nodes = (
"487 -436 LINE",
"607 254 LINE",
"339 254 LINE",
"259 -436 LINE"
);
}
);
width = 900;
},
{
layerId = "4AED55CC-054D-4448-879E-1FE49A52CF83";
paths = (
{
closed = 1;
nodes = (
"432 -436 LINE",
"517 254 LINE",
"425 254 LINE",
"345 -436 LINE"
);
}
);
width = 900;
}
);
unicode = 002C;
}
{
glyphname = period;
layers = (
{
layerId = m004;
paths = (
{
closed = 1;
nodes = (
"355 -20 OFFCURVE",
"400 24 OFFCURVE",
"400 79 CURVE SMOOTH",
"400 134 OFFCURVE",
"355 179 OFFCURVE",
"300 179 CURVE SMOOTH",
"245 179 OFFCURVE",
"200 134 OFFCURVE",
"200 79 CURVE SMOOTH",
"200 24 OFFCURVE",
"245 -20 OFFCURVE",
"300 -20 CURVE SMOOTH"
);
}
);
width = 600;
},
{
layerId = m005;
paths = (
{
closed = 1;
nodes = (
"377 -20 OFFCURVE",
"439 42 OFFCURVE",
"439 119 CURVE SMOOTH",
"439 196 OFFCURVE",
"377 259 OFFCURVE",
"300 259 CURVE SMOOTH",
"223 259 OFFCURVE",
"161 196 OFFCURVE",
"161 119 CURVE SMOOTH",
"161 42 OFFCURVE",
"223 -20 OFFCURVE",
"300 -20 CURVE SMOOTH"
);
}
);
width = 600;
},
{
layerId = m006;
paths = (
{
closed = 1;
nodes = (
"401 -20 OFFCURVE",
"482 62 OFFCURVE",
"482 162 CURVE SMOOTH",
"482 263 OFFCURVE",
"401 344 OFFCURVE",
"300 344 CURVE SMOOTH",
"199 344 OFFCURVE",
"118 263 OFFCURVE",
"118 162 CURVE SMOOTH",
"118 62 OFFCURVE",
"199 -20 OFFCURVE",
"300 -20 CURVE SMOOTH"
);
}
);
width = 600;
},
{
layerId = m007;
paths = (
{
closed = 1;
nodes = (
"661 -20 OFFCURVE",
"711 29 OFFCURVE",
"711 90 CURVE SMOOTH",
"711 150 OFFCURVE",
"661 200 OFFCURVE",
"600 200 CURVE SMOOTH",
"539 200 OFFCURVE",
"489 150 OFFCURVE",
"489 90 CURVE SMOOTH",
"489 29 OFFCURVE",
"539 -20 OFFCURVE",
"600 -20 CURVE SMOOTH"
);
}
);
width = 1200;
},
{
layerId = m008;
paths = (
{
closed = 1;
nodes = (
"691 -20 OFFCURVE",
"764 53 OFFCURVE",
"764 144 CURVE SMOOTH",
"764 234 OFFCURVE",
"691 307 OFFCURVE",
"600 307 CURVE SMOOTH",
"509 307 OFFCURVE",
"436 234 OFFCURVE",
"436 144 CURVE SMOOTH",
"436 53 OFFCURVE",
"509 -20 OFFCURVE",
"600 -20 CURVE SMOOTH"
);
}
);
width = 1200;
},
{
layerId = m009;
paths = (
{
closed = 1;
nodes = (
"712 -20 OFFCURVE",
"801 71 OFFCURVE",
"801 181 CURVE SMOOTH",
"801 293 OFFCURVE",
"712 383 OFFCURVE",
"600 383 CURVE SMOOTH",
"488 383 OFFCURVE",
"399 293 OFFCURVE",
"399 181 CURVE SMOOTH",
"399 71 OFFCURVE",
"488 -20 OFFCURVE",
"600 -20 CURVE SMOOTH"
);
}
);
width = 1200;
},
{
layerId = "8A5928CE-31B2-4F56-BC21-FB6F481DC46A";
paths = (
{
closed = 1;
nodes = (
"534 -20 OFFCURVE",
"602 48 OFFCURVE",
"602 132 CURVE SMOOTH",
"602 215 OFFCURVE",
"534 283 OFFCURVE",
"450 283 CURVE SMOOTH",
"366 283 OFFCURVE",
"299 215 OFFCURVE",
"299 132 CURVE SMOOTH",
"299 48 OFFCURVE",
"366 -20 OFFCURVE",
"450 -20 CURVE SMOOTH"
);
}
);
width = 900;
},
{
layerId = "A3FCBCC7-55DF-4604-8A77-DC78C4EF6076";
paths = (
{
closed = 1;
nodes = (
"557 -20 OFFCURVE",
"642 67 OFFCURVE",
"642 172 CURVE SMOOTH",
"642 278 OFFCURVE",
"557 364 OFFCURVE",
"450 364 CURVE SMOOTH",
"344 364 OFFCURVE",
"259 278 OFFCURVE",
"259 172 CURVE SMOOTH",
"259 67 OFFCURVE",
"344 -20 OFFCURVE",
"450 -20 CURVE SMOOTH"
);
}
);
width = 900;
},
{
layerId = "4AED55CC-054D-4448-879E-1FE49A52CF83";
paths = (
{
closed = 1;
nodes = (
"508 -20 OFFCURVE",
"556 27 OFFCURVE",
"556 85 CURVE SMOOTH",
"556 142 OFFCURVE",
"508 190 OFFCURVE",
"450 190 CURVE SMOOTH",
"392 190 OFFCURVE",
"345 142 OFFCURVE",
"345 85 CURVE SMOOTH",
"345 27 OFFCURVE",
"392 -20 OFFCURVE",
"450 -20 CURVE SMOOTH"
);
}
);
width = 900;
}
);
unicode = 002E;
}
{
glyphname = equal;
layers = (
{
layerId = m004;
paths = (
{
closed = 1;
nodes = (
"556 874 LINE",
"556 964 LINE",
"44 964 LINE",
"44 874 LINE"
);
},
{
closed = 1;
nodes = (
"556 454 LINE",
"556 544 LINE",
"44 544 LINE",
"44 454 LINE"
);
}
);
width = 600;
},
{
layerId = m005;
paths = (
{
closed = 1;
nodes = (
"560 879 LINE",
"560 1039 LINE",
"40 1039 LINE",
"40 879 LINE"
);
},
{
closed = 1;
nodes = (
"560 379 LINE",
"560 539 LINE",
"40 539 LINE",
"40 379 LINE"
);
}
);
width = 600;
},
{
layerId = m006;
paths = (
{
closed = 1;
nodes = (
"577 830 LINE",
"577 1050 LINE",
"23 1050 LINE",
"23 830 LINE"
);
},
{
closed = 1;
nodes = (
"577 368 LINE",
"577 588 LINE",
"23 588 LINE",
"23 368 LINE"
);
}
);
width = 600;
},
{
layerId = m007;
paths = (
{
closed = 1;
nodes = (
"1076 914 LINE",
"1076 1004 LINE",
"124 1004 LINE",
"124 914 LINE"
);
},
{
closed = 1;
nodes = (
"1076 414 LINE",
"1076 504 LINE",
"124 504 LINE",
"124 414 LINE"
);
}
);
width = 1200;
},
{
layerId = m008;
paths = (
{
closed = 1;
nodes = (
"1100 866 LINE",
"1100 1052 LINE",
"100 1052 LINE",
"100 866 LINE"
);
},
{
closed = 1;
nodes = (
"1100 366 LINE",
"1100 552 LINE",
"100 552 LINE",
"100 366 LINE"
);
}
);
width = 1200;
},
{
layerId = m009;
paths = (
{
closed = 1;
nodes = (
"1117 835 LINE",
"1117 1085 LINE",
"83 1085 LINE",
"83 835 LINE"
);
},
{
closed = 1;
nodes = (
"1117 333 LINE",
"1117 583 LINE",
"83 583 LINE",
"83 333 LINE"
);
}
);
width = 1200;
},
{
layerId = "8A5928CE-31B2-4F56-BC21-FB6F481DC46A";
paths = (
{
closed = 1;
nodes = (
"830 873 LINE",
"830 1046 LINE",
"70 1046 LINE",
"70 873 LINE"
);
},
{
closed = 1;
nodes = (
"830 373 LINE",
"830 546 LINE",
"70 546 LINE",
"70 373 LINE"
);
}
);
width = 900;
},
{
layerId = "A3FCBCC7-55DF-4604-8A77-DC78C4EF6076";
paths = (
{
closed = 1;
nodes = (
"847 833 LINE",
"847 1068 LINE",
"53 1068 LINE",
"53 833 LINE"
);
},
{
closed = 1;
nodes = (
"847 351 LINE",
"847 586 LINE",
"53 586 LINE",
"53 351 LINE"
);
}
);
width = 900;
},
{
layerId = "4AED55CC-054D-4448-879E-1FE49A52CF83";
paths = (
{
closed = 1;
nodes = (
"816 894 LINE",
"816 984 LINE",
"84 984 LINE",
"84 894 LINE"
);
},
{
closed = 1;
nodes = (
"816 434 LINE",
"816 524 LINE",
"84 524 LINE",
"84 434 LINE"
);
}
);
width = 900;
}
);
unicode = 003D;
}
{
glyphname = less;
layers = (
{
layerId = m004;
paths = (
{
closed = 1;
nodes = (
"523 334 LINE",
"127 705 LINE",
"127 713 LINE",
"523 1084 LINE",
"523 1204 LINE",
"53 765 LINE",
"53 653 LINE",
"523 214 LINE"
);
}
);
width = 600;
},
{
layerId = m005;
paths = (
{
closed = 1;
nodes = (
"528 424 LINE",
"193 700 LINE",
"193 718 LINE",
"528 994 LINE",
"528 1204 LINE",
"50 800 LINE",
"50 618 LINE",
"528 214 LINE"
);
}
);
width = 600;
},
{
layerId = m006;
paths = (
{
closed = 1;
nodes = (
"560 467 LINE",
"209 700 LINE",
"209 718 LINE",
"560 951 LINE",
"560 1216 LINE",
"16 838 LINE",
"16 580 LINE",
"560 202 LINE"
);
}
);
width = 600;
},
{
layerId = m007;
paths = (
{
closed = 1;
nodes = (
"1030 314 LINE",
"198 705 LINE",
"198 713 LINE",
"1030 1104 LINE",
"1030 1204 LINE",
"120 765 LINE",
"120 653 LINE",
"1030 214 LINE"
);
}
);
width = 1200;
},
{
layerId = m008;
paths = (
{
closed = 1;
nodes = (
"1054 434 LINE",
"314 700 LINE",
"314 718 LINE",
"1054 984 LINE",
"1054 1204 LINE",
"96 810 LINE",
"96 608 LINE",
"1054 214 LINE"
);
}
);
width = 1200;
},
{
layerId = m009;
paths = (
{
closed = 1;
nodes = (
"1087 467 LINE",
"331 700 LINE",
"331 718 LINE",
"1087 951 LINE",
"1087 1221 LINE",
"63 843 LINE",
"63 575 LINE",
"1087 197 LINE"
);
}
);
width = 1200;
},
{
layerId = "8A5928CE-31B2-4F56-BC21-FB6F481DC46A";
paths = (
{
closed = 1;
nodes = (
"791 429 LINE",
"254 700 LINE",
"254 718 LINE",
"791 989 LINE",
"791 1204 LINE",
"73 805 LINE",
"73 613 LINE",
"791 214 LINE"
);
}
);
width = 900;
},
{
layerId = "A3FCBCC7-55DF-4604-8A77-DC78C4EF6076";
paths = (
{
closed = 1;
nodes = (
"824 467 LINE",
"270 700 LINE",
"270 718 LINE",
"824 951 LINE",
"824 1219 LINE",
"40 841 LINE",
"40 578 LINE",
"824 200 LINE"
);
}
);
width = 900;
},
{
layerId = "4AED55CC-054D-4448-879E-1FE49A52CF83";
paths = (
{
closed = 1;
nodes = (
"777 324 LINE",
"163 705 LINE",
"163 713 LINE",
"777 1094 LINE",
"777 1204 LINE",
"87 765 LINE",
"87 653 LINE",
"777 214 LINE"
);
}
);
width = 900;
}
);
unicode = 003C;
}
{
glyphname = question;
layers = (
{
components = (
{
name = period;
transform = "{1, 0, 0, 1, -17, 0}";
}
);
layerId = m004;
paths = (
{
closed = 1;
nodes = (
"330 356 LINE",
"330 589 LINE SMOOTH",
"330 761 OFFCURVE",
"363 854 OFFCURVE",
"393 930 CURVE SMOOTH",
"435 1034 OFFCURVE",
"485 1115 OFFCURVE",
"485 1233 CURVE SMOOTH",
"485 1365 OFFCURVE",
"417 1440 OFFCURVE",
"299 1440 CURVE",
"298 1350 LINE",
"356 1350 OFFCURVE",
"389 1304 OFFCURVE",
"389 1223 CURVE SMOOTH",
"389 1125 OFFCURVE",
"348 1056 OFFCURVE",
"314 976 CURVE SMOOTH",
"270 871 OFFCURVE",
"236 775 OFFCURVE",
"236 624 CURVE SMOOTH",
"236 356 LINE"
);
},
{
closed = 1;
nodes = (
"205 1314 OFFCURVE",
"250 1350 OFFCURVE",
"298 1350 CURVE",
"299 1440 LINE",
"213 1440 OFFCURVE",
"137 1390 OFFCURVE",
"83 1271 CURVE",
"166 1228 LINE"
);
}
);
width = 600;
},
{
background = {
paths = (
{
closed = 1;
nodes = (
"361 356 LINE",
"361 589 LINE SMOOTH",
"361 725 OFFCURVE",
"389 798 OFFCURVE",
"413 859 CURVE SMOOTH",
"458 970 OFFCURVE",
"505 1057 OFFCURVE",
"505 1183 CURVE SMOOTH",
"505 1347 OFFCURVE",
"430 1440 OFFCURVE",
"299 1440 CURVE",
"258 1270 LINE",
"316 1270 OFFCURVE",
"349 1235 OFFCURVE",
"349 1173 CURVE SMOOTH",
"349 1091 OFFCURVE",
"323 1034 OFFCURVE",
"294 966 CURVE SMOOTH",
"250 861 OFFCURVE",
"203 771 OFFCURVE",
"203 624 CURVE SMOOTH",
"203 356 LINE"
);
},
{
closed = 1;
nodes = (
"173 1243 OFFCURVE",
"217 1270 OFFCURVE",
"258 1270 CURVE",
"299 1440 LINE",
"205 1440 OFFCURVE",
"122 1390 OFFCURVE",
"63 1272 CURVE",
"146 1189 LINE"
);
},
{
closed = 1;
nodes = (
"359 -20 OFFCURVE",
"421 42 OFFCURVE",
"421 119 CURVE SMOOTH",
"421 196 OFFCURVE",
"359 259 OFFCURVE",
"282 259 CURVE SMOOTH",
"205 259 OFFCURVE",
"143 196 OFFCURVE",
"143 119 CURVE SMOOTH",
"143 42 OFFCURVE",
"205 -20 OFFCURVE",
"282 -20 CURVE SMOOTH"
);
}
);
};
components = (
{
name = period;
transform = "{1, 0, 0, 1, -7, 0}";
}
);
layerId = m005;
paths = (
{
closed = 1;
nodes = (
"369 457 LINE",
"369 589 LINE SMOOTH",
"369 725 OFFCURVE",
"390 800 OFFCURVE",
"413 859 CURVE SMOOTH",
"458 970 OFFCURVE",
"505 1057 OFFCURVE",
"505 1183 CURVE SMOOTH",
"505 1347 OFFCURVE",
"430 1440 OFFCURVE",
"299 1440 CURVE",
"263 1270 LINE",
"318 1270 OFFCURVE",
"349 1235 OFFCURVE",
"349 1173 CURVE SMOOTH",
"349 1091 OFFCURVE",
"323 1034 OFFCURVE",
"294 966 CURVE SMOOTH",
"251 863 OFFCURVE",
"215 771 OFFCURVE",
"215 624 CURVE SMOOTH",
"215 457 LINE"
);
},
{
closed = 1;
nodes = (
"174 1243 OFFCURVE",
"220 1270 OFFCURVE",
"263 1270 CURVE",
"299 1440 LINE",
"201 1440 OFFCURVE",
"114 1396 OFFCURVE",
"53 1292 CURVE",
"146 1189 LINE"
);
}
);
width = 600;
},
{
background = {
paths = (
{
closed = 1;
nodes = (
"389 487 LINE",
"389 528 LINE SMOOTH",
"389 680 OFFCURVE",
"419 760 OFFCURVE",
"443 829 CURVE SMOOTH",
"492 973 OFFCURVE",
"535 1068 OFFCURVE",
"535 1183 CURVE SMOOTH",
"535 1347 OFFCURVE",
"449 1440 OFFCURVE",
"299 1440 CURVE",
"258 1209 LINE",
"301 1209 OFFCURVE",
"325 1174 OFFCURVE",
"325 1112 CURVE SMOOTH",
"325 1046 OFFCURVE",
"298 1003 OFFCURVE",
"274 946 CURVE SMOOTH",
"226 832 OFFCURVE",
"195 728 OFFCURVE",
"195 563 CURVE SMOOTH",
"195 487 LINE"
);
},
{
closed = 1;
nodes = (
"175 1179 OFFCURVE",
"223 1209 OFFCURVE",
"258 1209 CURVE",
"299 1440 LINE",
"189 1440 OFFCURVE",
"91 1369 OFFCURVE",
"23 1262 CURVE",
"136 1118 LINE"
);
}
);
};
components = (
{
alignment = -1;
name = period;
}
);
layerId = m006;
paths = (
{
closed = 1;
nodes = (
"389 487 LINE",
"389 528 LINE SMOOTH",
"389 680 OFFCURVE",
"419 760 OFFCURVE",
"443 829 CURVE SMOOTH",
"492 973 OFFCURVE",
"535 1068 OFFCURVE",
"535 1183 CURVE SMOOTH",
"535 1347 OFFCURVE",
"449 1440 OFFCURVE",
"299 1440 CURVE",
"258 1209 LINE",
"301 1209 OFFCURVE",
"325 1174 OFFCURVE",
"325 1112 CURVE SMOOTH",
"325 1046 OFFCURVE",
"298 1003 OFFCURVE",
"274 946 CURVE SMOOTH",
"226 832 OFFCURVE",
"195 728 OFFCURVE",
"195 563 CURVE SMOOTH",
"195 487 LINE"
);
},
{
closed = 1;
nodes = (
"175 1179 OFFCURVE",
"223 1209 OFFCURVE",
"258 1209 CURVE",
"299 1440 LINE",
"189 1440 OFFCURVE",
"91 1369 OFFCURVE",
"23 1262 CURVE",
"136 1118 LINE"
);
}
);
width = 600;
},
{
components = (
{
name = period;
transform = "{1, 0, 0, 1, -38, 0}";
}
);
layerId = m007;
paths = (
{
closed = 1;
nodes = (
"605 356 LINE",
"605 458 LINE SMOOTH",
"605 560 OFFCURVE",
"647 632 OFFCURVE",
"742 699 CURVE SMOOTH",
"910 818 OFFCURVE",
"982 934 OFFCURVE",
"982 1092 CURVE SMOOTH",
"982 1313 OFFCURVE",
"841 1440 OFFCURVE",
"596 1440 CURVE",
"594 1350 LINE",
"781 1350 OFFCURVE",
"888 1252 OFFCURVE",
"888 1082 CURVE SMOOTH",
"888 960 OFFCURVE",
"831 867 OFFCURVE",
"693 771 CURVE SMOOTH",
"567 683 OFFCURVE",
"511 594 OFFCURVE",
"511 472 CURVE SMOOTH",
"511 356 LINE"
);
},
{
closed = 1;
nodes = (
"336 1305 OFFCURVE",
"454 1350 OFFCURVE",
"594 1350 CURVE",
"596 1440 LINE",
"424 1440 OFFCURVE",
"288 1387 OFFCURVE",
"140 1261 CURVE",
"199 1198 LINE"
);
}
);
width = 1200;
},
{
components = (
{
name = period;
transform = "{1, 0, 0, 1, -38, 0}";
}
);
layerId = m008;
paths = (
{
closed = 1;
nodes = (
"656 456 LINE",
"656 538 LINE SMOOTH",
"656 616 OFFCURVE",
"698 682 OFFCURVE",
"786 739 CURVE SMOOTH",
"932 833 OFFCURVE",
"1006 954 OFFCURVE",
"1006 1102 CURVE SMOOTH",
"1006 1316 OFFCURVE",
"856 1440 OFFCURVE",
"596 1440 CURVE",
"594 1250 LINE",
"716 1250 OFFCURVE",
"786 1192 OFFCURVE",
"786 1092 CURVE SMOOTH",
"786 999 OFFCURVE",
"731 921 OFFCURVE",
"623 853 CURVE SMOOTH",
"515 785 OFFCURVE",
"460 685 OFFCURVE",
"460 552 CURVE SMOOTH",
"460 456 LINE"
);
},
{
closed = 1;
nodes = (
"339 1182 OFFCURVE",
"469 1250 OFFCURVE",
"594 1250 CURVE",
"596 1440 LINE",
"395 1440 OFFCURVE",
"209 1353 OFFCURVE",
"116 1221 CURVE",
"254 1078 LINE"
);
}
);
width = 1200;
},
{
components = (
{
alignment = -1;
name = period;
transform = "{1, 0, 0, 1, -38, 0}";
}
);
layerId = m009;
paths = (
{
closed = 1;
nodes = (
"689 489 LINE",
"689 526 LINE SMOOTH",
"689 609 OFFCURVE",
"719 663 OFFCURVE",
"786 706 CURVE SMOOTH",
"944 807 OFFCURVE",
"1023 942 OFFCURVE",
"1023 1102 CURVE SMOOTH",
"1023 1316 OFFCURVE",
"867 1440 OFFCURVE",
"596 1440 CURVE",
"577 1188 LINE",
"679 1188 OFFCURVE",
"736 1144 OFFCURVE",
"736 1067 CURVE SMOOTH",
"736 998 OFFCURVE",
"696 934 OFFCURVE",
"623 886 CURVE SMOOTH",
"491 799 OFFCURVE",
"427 710 OFFCURVE",
"427 573 CURVE SMOOTH",
"427 489 LINE"
);
},
{
closed = 1;
nodes = (
"322 1120 OFFCURVE",
"452 1188 OFFCURVE",
"577 1188 CURVE",
"596 1440 LINE",
"384 1440 OFFCURVE",
"189 1346 OFFCURVE",
"91 1204 CURVE",
"237 1016 LINE"
);
}
);
width = 1200;
},
{
components = (
{
alignment = -1;
name = period;
transform = "{1, 0, 0, 1, -22, 0}";
}
);
layerId = "8A5928CE-31B2-4F56-BC21-FB6F481DC46A";
paths = (
{
closed = 1;
nodes = (
"513 457 LINE",
"513 564 LINE SMOOTH",
"513 671 OFFCURVE",
"544 741 OFFCURVE",
"600 799 CURVE SMOOTH",
"695 902 OFFCURVE",
"756 1006 OFFCURVE",
"756 1143 CURVE SMOOTH",
"756 1332 OFFCURVE",
"643 1440 OFFCURVE",
"448 1440 CURVE",
"429 1260 LINE",
"517 1260 OFFCURVE",
"568 1214 OFFCURVE",
"568 1133 CURVE SMOOTH",
"568 1045 OFFCURVE",
"527 978 OFFCURVE",
"459 910 CURVE SMOOTH",
"383 824 OFFCURVE",
"338 728 OFFCURVE",
"338 588 CURVE SMOOTH",
"338 457 LINE"
);
},
{
closed = 1;
nodes = (
"257 1213 OFFCURVE",
"345 1260 OFFCURVE",
"429 1260 CURVE",
"448 1440 LINE",
"298 1440 OFFCURVE",
"162 1375 OFFCURVE",
"85 1257 CURVE",
"200 1134 LINE"
);
}
);
width = 900;
},
{
components = (
{
alignment = -1;
name = period;
transform = "{1, 0, 0, 1, -19, 0}";
}
);
layerId = "A3FCBCC7-55DF-4604-8A77-DC78C4EF6076";
paths = (
{
closed = 1;
nodes = (
"539 488 LINE",
"539 527 LINE SMOOTH",
"539 645 OFFCURVE",
"569 712 OFFCURVE",
"615 768 CURVE SMOOTH",
"718 890 OFFCURVE",
"779 1005 OFFCURVE",
"779 1143 CURVE SMOOTH",
"779 1332 OFFCURVE",
"658 1440 OFFCURVE",
"448 1440 CURVE",
"418 1199 LINE",
"490 1199 OFFCURVE",
"531 1159 OFFCURVE",
"531 1090 CURVE SMOOTH",
"531 1022 OFFCURVE",
"497 969 OFFCURVE",
"449 916 CURVE SMOOTH",
"359 816 OFFCURVE",
"311 719 OFFCURVE",
"311 568 CURVE SMOOTH",
"311 488 LINE"
);
},
{
closed = 1;
nodes = (
"249 1150 OFFCURVE",
"338 1199 OFFCURVE",
"418 1199 CURVE",
"448 1440 LINE",
"287 1440 OFFCURVE",
"140 1358 OFFCURVE",
"57 1233 CURVE",
"187 1067 LINE"
);
}
);
width = 900;
},
{
components = (
{
alignment = -1;
name = period;
transform = "{1, 0, 0, 1, -27, 0}";
}
);
layerId = "4AED55CC-054D-4448-879E-1FE49A52CF83";
paths = (
{
closed = 1;
nodes = (
"468 356 LINE",
"468 524 LINE SMOOTH",
"468 661 OFFCURVE",
"505 743 OFFCURVE",
"568 815 CURVE SMOOTH",
"673 926 OFFCURVE",
"734 1025 OFFCURVE",
"734 1163 CURVE SMOOTH",
"734 1339 OFFCURVE",
"629 1440 OFFCURVE",
"448 1440 CURVE",
"446 1350 LINE",
"569 1350 OFFCURVE",
"639 1278 OFFCURVE",
"639 1153 CURVE SMOOTH",
"639 1043 OFFCURVE",
"590 962 OFFCURVE",
"504 874 CURVE SMOOTH",
"419 777 OFFCURVE",
"374 685 OFFCURVE",
"374 548 CURVE SMOOTH",
"374 356 LINE"
);
},
{
closed = 1;
nodes = (
"271 1310 OFFCURVE",
"352 1350 OFFCURVE",
"446 1350 CURVE",
"448 1440 LINE",
"319 1440 OFFCURVE",
"213 1389 OFFCURVE",
"112 1266 CURVE",
"183 1213 LINE"
);
}
);
width = 900;
}
);
unicode = 003F;
}
{
glyphname = semicolon;
layers = (
{
background = {
paths = (
{
closed = 1;
nodes = (
"375 881 OFFCURVE",
"420 925 OFFCURVE",
"420 980 CURVE SMOOTH",
"420 1035 OFFCURVE",
"375 1080 OFFCURVE",
"320 1080 CURVE SMOOTH",
"265 1080 OFFCURVE",
"220 1035 OFFCURVE",
"220 980 CURVE SMOOTH",
"220 925 OFFCURVE",
"265 881 OFFCURVE",
"320 881 CURVE SMOOTH"
);
},
{
closed = 1;
nodes = (
"294 -436 LINE",
"379 254 LINE",
"282 254 LINE",
"202 -436 LINE"
);
}
);
};
components = (
{
name = comma;
},
{
name = period;
transform = "{1, 0, 0, 1, 25, 880}";
}
);
layerId = m004;
width = 600;
},
{
background = {
paths = (
{
closed = 1;
nodes = (
"402 784 OFFCURVE",
"468 850 OFFCURVE",
"468 932 CURVE SMOOTH",
"468 1014 OFFCURVE",
"402 1080 OFFCURVE",
"320 1080 CURVE SMOOTH",
"238 1080 OFFCURVE",
"172 1014 OFFCURVE",
"172 932 CURVE SMOOTH",
"172 850 OFFCURVE",
"238 784 OFFCURVE",
"320 784 CURVE SMOOTH"
);
},
{
closed = 1;
nodes = (
"324 -436 LINE",
"444 254 LINE",
"212 254 LINE",
"132 -436 LINE"
);
}
);
};
components = (
{
name = comma;
},
{
name = period;
transform = "{1, 0, 0, 1, 20, 791}";
}
);
layerId = m005;
width = 600;
},
{
background = {
paths = (
{
closed = 1;
nodes = (
"431 716 OFFCURVE",
"512 798 OFFCURVE",
"512 898 CURVE SMOOTH",
"512 999 OFFCURVE",
"431 1080 OFFCURVE",
"330 1080 CURVE SMOOTH",
"229 1080 OFFCURVE",
"148 999 OFFCURVE",
"148 898 CURVE SMOOTH",
"148 798 OFFCURVE",
"229 716 OFFCURVE",
"330 716 CURVE SMOOTH"
);
},
{
closed = 1;
nodes = (
"367 -436 LINE",
"487 254 LINE",
"189 254 LINE",
"109 -436 LINE"
);
}
);
};
components = (
{
alignment = -1;
name = comma;
},
{
name = period;
transform = "{1, 0, 0, 1, 35, 697}";
}
);
layerId = m006;
width = 600;
},
{
components = (
{
name = comma;
},
{
name = period;
transform = "{1, 0, 0, 1, 0, 880}";
}
);
layerId = m007;
width = 1200;
},
{
components = (
{
name = comma;
},
{
name = period;
transform = "{1, 0, 0, 1, 0, 773}";
}
);
layerId = m008;
width = 1200;
},
{
components = (
{
alignment = -1;
name = comma;
},
{
name = period;
transform = "{1, 0, 0, 1, 0, 697}";
}
);
layerId = m009;
width = 1200;
},
{
components = (
{
alignment = -1;
name = comma;
},
{
alignment = -1;
name = period;
transform = "{1, 0, 0, 1, 10, 782}";
}
);
layerId = "8A5928CE-31B2-4F56-BC21-FB6F481DC46A";
width = 900;
},
{
components = (
{
alignment = -1;
name = comma;
},
{
alignment = -1;
name = period;
transform = "{1, 0, 0, 1, 18, 697}";
}
);
layerId = "A3FCBCC7-55DF-4604-8A77-DC78C4EF6076";
width = 900;
},
{
components = (
{
alignment = -1;
name = comma;
},
{
alignment = -1;
name = period;
transform = "{1, 0, 0, 1, 13, 880}";
}
);
layerId = "4AED55CC-054D-4448-879E-1FE49A52CF83";
width = 900;
}
);
unicode = 003B;
}
{
glyphname = J;
layers = (
{
anchors = (
{
name = bottom;
position = "{300, 0}";
},
{
name = top;
position = "{390, 1420}";
}
);
layerId = m004;
paths = (
{
closed = 1;
nodes = (
"442 -20 OFFCURVE",
"522 91 OFFCURVE",
"522 304 CURVE SMOOTH",
"522 1420 LINE",
"428 1420 LINE",
"428 304 LINE SMOOTH",
"428 150 OFFCURVE",
"381 70 OFFCURVE",
"290 70 CURVE SMOOTH",
"197 70 OFFCURVE",
"148 150 OFFCURVE",
"148 304 CURVE",
"54 304 LINE",
"54 91 OFFCURVE",
"134 -20 OFFCURVE",
"288 -20 CURVE SMOOTH"
);
},
{
closed = 1;
nodes = (
"489 1330 LINE",
"489 1420 LINE",
"238 1420 LINE",
"238 1330 LINE"
);
}
);
width = 600;
},
{
anchors = (
{
name = bottom;
position = "{300, 0}";
},
{
name = top;
position = "{391, 1420}";
}
);
layerId = m005;
paths = (
{
closed = 1;
nodes = (
"472 -20 OFFCURVE",
"536 79 OFFCURVE",
"536 365 CURVE SMOOTH",
"536 1420 LINE",
"378 1420 LINE",
"378 365 LINE SMOOTH",
"378 205 OFFCURVE",
"355 150 OFFCURVE",
"290 150 CURVE SMOOTH",
"222 150 OFFCURVE",
"198 205 OFFCURVE",
"198 365 CURVE",
"40 365 LINE",
"40 79 OFFCURVE",
"104 -20 OFFCURVE",
"288 -20 CURVE SMOOTH"
);
},
{
closed = 1;
nodes = (
"463 1260 LINE",
"463 1420 LINE",
"198 1420 LINE",
"198 1260 LINE"
);
}
);
width = 600;
},
{
anchors = (
{
name = bottom;
position = "{300, 0}";
},
{
name = top;
position = "{395, 1420}";
}
);
layerId = m006;
paths = (
{
closed = 1;
nodes = (
"496 -20 OFFCURVE",
"567 84 OFFCURVE",
"567 383 CURVE SMOOTH",
"567 1420 LINE",
"362 1420 LINE",
"362 383 LINE SMOOTH",
"362 254 OFFCURVE",
"345 210 OFFCURVE",
"294 210 CURVE SMOOTH",
"244 210 OFFCURVE",
"227 254 OFFCURVE",
"227 383 CURVE",
"22 383 LINE",
"22 84 OFFCURVE",
"91 -20 OFFCURVE",
"292 -20 CURVE SMOOTH"
);
},
{
closed = 1;
nodes = (
"480 1200 LINE",
"480 1420 LINE",
"145 1420 LINE",
"145 1200 LINE"
);
}
);
width = 600;
},
{
anchors = (
{
name = bottom;
position = "{600, 0}";
},
{
name = top;
position = "{790, 1420}";
}
);
layerId = m007;
paths = (
{
closed = 1;
nodes = (
"884 -20 OFFCURVE",
"1038 144 OFFCURVE",
"1038 476 CURVE SMOOTH",
"1038 1420 LINE",
"944 1420 LINE",
"944 476 LINE SMOOTH",
"944 205 OFFCURVE",
"823 70 OFFCURVE",
"579 70 CURVE SMOOTH",
"330 70 OFFCURVE",
"206 205 OFFCURVE",
"206 476 CURVE",
"110 476 LINE",
"110 144 OFFCURVE",
"264 -20 OFFCURVE",
"574 -20 CURVE SMOOTH"
);
},
{
closed = 1;
nodes = (
"996 1330 LINE",
"996 1420 LINE",
"490 1420 LINE",
"490 1330 LINE"
);
}
);
width = 1200;
},
{
anchors = (
{
name = bottom;
position = "{600, 0}";
},
{
name = top;
position = "{790, 1420}";
}
);
layerId = m008;
paths = (
{
closed = 1;
nodes = (
"880 -20 OFFCURVE",
"1062 161 OFFCURVE",
"1062 476 CURVE SMOOTH",
"1062 1420 LINE",
"854 1420 LINE",
"854 476 LINE SMOOTH",
"854 274 OFFCURVE",
"755 160 OFFCURVE",
"579 160 CURVE SMOOTH",
"397 160 OFFCURVE",
"294 276 OFFCURVE",
"294 476 CURVE",
"86 476 LINE",
"86 162 OFFCURVE",
"262 -20 OFFCURVE",
"574 -20 CURVE SMOOTH"
);
},
{
closed = 1;
nodes = (
"956 1230 LINE",
"956 1420 LINE",
"490 1420 LINE",
"490 1230 LINE"
);
}
);
width = 1200;
},
{
anchors = (
{
name = bottom;
position = "{600, 0}";
},
{
name = top;
position = "{790, 1420}";
}
);
layerId = m009;
paths = (
{
closed = 1;
nodes = (
"891 -20 OFFCURVE",
"1079 164 OFFCURVE",
"1079 484 CURVE SMOOTH",
"1079 1420 LINE",
"815 1420 LINE",
"815 484 LINE SMOOTH",
"815 322 OFFCURVE",
"730 231 OFFCURVE",
"579 231 CURVE SMOOTH",
"430 231 OFFCURVE",
"344 324 OFFCURVE",
"344 484 CURVE",
"69 484 LINE",
"69 165 OFFCURVE",
"251 -20 OFFCURVE",
"574 -20 CURVE SMOOTH"
);
},
{
closed = 1;
nodes = (
"956 1177 LINE",
"956 1420 LINE",
"490 1420 LINE",
"490 1177 LINE"
);
}
);
width = 1200;
},
{
anchors = (
{
name = bottom;
position = "{450, 0}";
},
{
name = top;
position = "{591, 1420}";
}
);
layerId = "8A5928CE-31B2-4F56-BC21-FB6F481DC46A";
paths = (
{
closed = 1;
nodes = (
"676 -20 OFFCURVE",
"799 120 OFFCURVE",
"799 421 CURVE SMOOTH",
"799 1420 LINE",
"616 1420 LINE",
"616 421 LINE SMOOTH",
"616 240 OFFCURVE",
"555 155 OFFCURVE",
"435 155 CURVE SMOOTH",
"310 155 OFFCURVE",
"246 241 OFFCURVE",
"246 421 CURVE",
"63 421 LINE",
"63 121 OFFCURVE",
"183 -20 OFFCURVE",
"431 -20 CURVE SMOOTH"
);
},
{
closed = 1;
nodes = (
"710 1245 LINE",
"710 1420 LINE",
"344 1420 LINE",
"344 1245 LINE"
);
}
);
width = 900;
},
{
anchors = (
{
name = bottom;
position = "{450, 0}";
},
{
name = top;
position = "{593, 1420}";
}
);
layerId = "A3FCBCC7-55DF-4604-8A77-DC78C4EF6076";
paths = (
{
closed = 1;
nodes = (
"694 -20 OFFCURVE",
"823 124 OFFCURVE",
"823 434 CURVE SMOOTH",
"823 1420 LINE",
"589 1420 LINE",
"589 434 LINE SMOOTH",
"589 288 OFFCURVE",
"538 221 OFFCURVE",
"437 221 CURVE SMOOTH",
"337 221 OFFCURVE",
"286 289 OFFCURVE",
"286 434 CURVE",
"46 434 LINE",
"46 125 OFFCURVE",
"171 -20 OFFCURVE",
"433 -20 CURVE SMOOTH"
);
},
{
closed = 1;
nodes = (
"718 1189 LINE",
"718 1420 LINE",
"318 1420 LINE",
"318 1189 LINE"
);
}
);
width = 900;
},
{
anchors = (
{
name = bottom;
position = "{450, 0}";
},
{
name = top;
position = "{590, 1420}";
}
);
layerId = "4AED55CC-054D-4448-879E-1FE49A52CF83";
paths = (
{
closed = 1;
nodes = (
"663 -20 OFFCURVE",
"780 118 OFFCURVE",
"780 390 CURVE SMOOTH",
"780 1420 LINE",
"686 1420 LINE",
"686 390 LINE SMOOTH",
"686 178 OFFCURVE",
"602 70 OFFCURVE",
"435 70 CURVE SMOOTH",
"264 70 OFFCURVE",
"177 178 OFFCURVE",
"177 390 CURVE",
"82 390 LINE",
"82 118 OFFCURVE",
"199 -20 OFFCURVE",
"431 -20 CURVE SMOOTH"
);
},
{
closed = 1;
nodes = (
"743 1330 LINE",
"743 1420 LINE",
"364 1420 LINE",
"364 1330 LINE"
);
}
);
width = 900;
}
);
unicode = 004A;
}
{
glyphname = K;
layers = (
{
anchors = (
{
name = bottom;
position = "{310, 0}";
},
{
name = top;
position = "{310, 1420}";
}
);
layerId = m004;
paths = (
{
closed = 1;
nodes = (
"392 492 OFFCURVE",
"547 830 OFFCURVE",
"547 1420 CURVE",
"453 1420 LINE",
"453 887 OFFCURVE",
"342 582 OFFCURVE",
"129 582 CURVE",
"120 492 LINE"
);
},
{
closed = 1;
nodes = (
"580 0 LINE",
"372 710 LINE",
"299 650 LINE",
"486 0 LINE"
);
},
{
closed = 1;
nodes = (
"170 0 LINE",
"170 1420 LINE",
"76 1420 LINE",
"76 0 LINE"
);
}
);
width = 600;
},
{
anchors = (
{
name = bottom;
position = "{310, 0}";
},
{
name = top;
position = "{310, 1420}";
}
);
background = {
paths = (
{
closed = 1;
nodes = (
"653 452 OFFCURVE",
"953 915 OFFCURVE",
"953 1420 CURVE",
"747 1420 LINE",
"747 1029 OFFCURVE",
"563 650 OFFCURVE",
"153 650 CURVE",
"135 452 LINE"
);
},
{
closed = 1;
nodes = (
"217 0 LINE",
"217 1420 LINE",
"9 1420 LINE",
"9 0 LINE"
);
},
{
closed = 1;
nodes = (
"1021 0 LINE",
"599 794 LINE",
"419 692 LINE",
"779 0 LINE"
);
}
);
};
layerId = m005;
paths = (
{
closed = 1;
nodes = (
"461 500 OFFCURVE",
"560 737 OFFCURVE",
"560 1420 CURVE",
"402 1420 LINE",
"402 855 OFFCURVE",
"346 660 OFFCURVE",
"184 660 CURVE",
"175 500 LINE"
);
},
{
closed = 1;
nodes = (
"594 0 LINE",
"419 696 LINE",
"292 594 LINE",
"429 0 LINE"
);
},
{
closed = 1;
nodes = (
"220 0 LINE",
"220 1420 LINE",
"62 1420 LINE",
"62 0 LINE"
);
}
);
width = 600;
},
{
anchors = (
{
name = bottom;
position = "{310, 0}";
},
{
name = top;
position = "{310, 1420}";
}
);
layerId = m006;
paths = (
{
closed = 1;
nodes = (
"471 472 OFFCURVE",
"577 743 OFFCURVE",
"577 1420 CURVE",
"372 1420 LINE",
"372 878 OFFCURVE",
"324 662 OFFCURVE",
"204 661 CURVE",
"205 472 LINE"
);
},
{
closed = 1;
nodes = (
"602 0 LINE",
"441 731 LINE",
"263 629 LINE",
"387 0 LINE"
);
},
{
closed = 1;
nodes = (
"251 0 LINE",
"251 1420 LINE",
"46 1420 LINE",
"46 0 LINE"
);
}
);
width = 600;
},
{
anchors = (
{
name = bottom;
position = "{620, 0}";
},
{
name = top;
position = "{620, 1420}";
}
);
layerId = m007;
paths = (
{
closed = 1;
nodes = (
"770 492 OFFCURVE",
"1070 830 OFFCURVE",
"1070 1420 CURVE",
"974 1420 LINE",
"974 887 OFFCURVE",
"715 582 OFFCURVE",
"258 582 CURVE",
"240 492 LINE"
);
},
{
closed = 1;
nodes = (
"1138 0 LINE",
"782 710 LINE",
"700 650 LINE",
"1026 0 LINE"
);
},
{
closed = 1;
nodes = (
"268 0 LINE",
"268 1420 LINE",
"174 1420 LINE",
"174 0 LINE"
);
}
);
width = 1200;
},
{
anchors = (
{
name = bottom;
position = "{620, 0}";
},
{
name = top;
position = "{620, 1420}";
}
);
layerId = m008;
paths = (
{
closed = 1;
nodes = (
"794 452 OFFCURVE",
"1094 915 OFFCURVE",
"1094 1420 CURVE",
"888 1420 LINE",
"888 1029 OFFCURVE",
"704 650 OFFCURVE",
"294 650 CURVE",
"276 452 LINE"
);
},
{
closed = 1;
nodes = (
"1162 0 LINE",
"740 794 LINE",
"560 692 LINE",
"920 0 LINE"
);
},
{
closed = 1;
nodes = (
"358 0 LINE",
"358 1420 LINE",
"150 1420 LINE",
"150 0 LINE"
);
}
);
width = 1200;
},
{
anchors = (
{
name = bottom;
position = "{620, 0}";
},
{
name = top;
position = "{620, 1420}";
}
);
layerId = m009;
paths = (
{
closed = 1;
nodes = (
"805 452 OFFCURVE",
"1111 915 OFFCURVE",
"1111 1420 CURVE",
"843 1420 LINE",
"843 1063 OFFCURVE",
"673 717 OFFCURVE",
"294 717 CURVE",
"276 452 LINE"
);
},
{
closed = 1;
nodes = (
"1179 0 LINE",
"814 731 LINE",
"568 629 LINE",
"853 0 LINE"
);
},
{
closed = 1;
nodes = (
"397 0 LINE",
"397 1420 LINE",
"133 1420 LINE",
"133 0 LINE"
);
}
);
width = 1200;
},
{
anchors = (
{
name = bottom;
position = "{465, 0}";
},
{
name = top;
position = "{465, 1420}";
}
);
layerId = "8A5928CE-31B2-4F56-BC21-FB6F481DC46A";
paths = (
{
closed = 1;
nodes = (
"628 476 OFFCURVE",
"827 826 OFFCURVE",
"827 1420 CURVE",
"645 1420 LINE",
"645 942 OFFCURVE",
"525 655 OFFCURVE",
"239 655 CURVE",
"226 476 LINE"
);
},
{
closed = 1;
nodes = (
"878 0 LINE",
"580 745 LINE",
"426 643 LINE",
"675 0 LINE"
);
},
{
closed = 1;
nodes = (
"289 0 LINE",
"289 1420 LINE",
"106 1420 LINE",
"106 0 LINE"
);
}
);
width = 900;
},
{
anchors = (
{
name = bottom;
position = "{465, 0}";
},
{
name = top;
position = "{465, 1420}";
}
);
layerId = "A3FCBCC7-55DF-4604-8A77-DC78C4EF6076";
paths = (
{
closed = 1;
nodes = (
"638 462 OFFCURVE",
"844 829 OFFCURVE",
"844 1420 CURVE",
"608 1420 LINE",
"608 971 OFFCURVE",
"499 690 OFFCURVE",
"249 689 CURVE",
"241 462 LINE"
);
},
{
closed = 1;
nodes = (
"891 0 LINE",
"628 731 LINE",
"416 629 LINE",
"620 0 LINE"
);
},
{
closed = 1;
nodes = (
"324 0 LINE",
"324 1420 LINE",
"90 1420 LINE",
"90 0 LINE"
);
}
);
width = 900;
},
{
anchors = (
{
name = bottom;
position = "{465, 0}";
},
{
name = top;
position = "{465, 1420}";
}
);
layerId = "4AED55CC-054D-4448-879E-1FE49A52CF83";
paths = (
{
closed = 1;
nodes = (
"581 492 OFFCURVE",
"809 830 OFFCURVE",
"809 1420 CURVE",
"714 1420 LINE",
"714 887 OFFCURVE",
"529 582 OFFCURVE",
"194 582 CURVE",
"180 492 LINE"
);
},
{
closed = 1;
nodes = (
"859 0 LINE",
"577 710 LINE",
"500 650 LINE",
"756 0 LINE"
);
},
{
closed = 1;
nodes = (
"219 0 LINE",
"219 1420 LINE",
"125 1420 LINE",
"125 0 LINE"
);
}
);
width = 900;
}
);
unicode = 004B;
}
{
glyphname = L;
layers = (
{
anchors = (
{
name = bottom;
position = "{309, 0}";
},
{
name = center;
position = "{300, 710}";
},
{
name = top;
position = "{135, 1420}";
},
{
name = topright;
position = "{562, 1420}";
}
);
layerId = m004;
paths = (
{
closed = 1;
nodes = (
"192 0 LINE",
"192 1420 LINE",
"98 1420 LINE",
"98 0 LINE"
);
},
{
closed = 1;
nodes = (
"530 0 LINE",
"530 90 LINE",
"98 90 LINE",
"98 0 LINE"
);
}
);
width = 600;
},
{
anchors = (
{
name = bottom;
position = "{309, 0}";
},
{
name = center;
position = "{300, 710}";
},
{
name = top;
position = "{149, 1420}";
},
{
name = topright;
position = "{565, 1420}";
}
);
layerId = m005;
paths = (
{
closed = 1;
nodes = (
"228 0 LINE",
"228 1420 LINE",
"70 1420 LINE",
"70 0 LINE"
);
},
{
closed = 1;
nodes = (
"544 0 LINE",
"544 160 LINE",
"70 160 LINE",
"70 0 LINE"
);
}
);
width = 600;
},
{
anchors = (
{
name = bottom;
position = "{309, 0}";
},
{
name = center;
position = "{300, 710}";
},
{
name = top;
position = "{169, 1420}";
},
{
name = topright;
position = "{578, 1420}";
}
);
layerId = m006;
paths = (
{
closed = 1;
nodes = (
"272 0 LINE",
"272 1420 LINE",
"67 1420 LINE",
"67 0 LINE"
);
},
{
closed = 1;
nodes = (
"561 0 LINE",
"561 220 LINE",
"67 220 LINE",
"67 0 LINE"
);
}
);
width = 600;
},
{
anchors = (
{
name = bottom;
position = "{620, 0}";
},
{
name = center;
position = "{600, 710}";
},
{
name = top;
position = "{229, 1420}";
},
{
name = topright;
position = "{1180, 1420}";
}
);
layerId = m007;
paths = (
{
closed = 1;
nodes = (
"278 0 LINE",
"278 1420 LINE",
"184 1420 LINE",
"184 0 LINE"
);
},
{
closed = 1;
nodes = (
"1076 0 LINE",
"1076 90 LINE",
"184 90 LINE",
"184 0 LINE"
);
}
);
width = 1200;
},
{
anchors = (
{
name = bottom;
position = "{620, 0}";
},
{
name = center;
position = "{600, 710}";
},
{
name = top;
position = "{264, 1420}";
},
{
name = topright;
position = "{1180, 1420}";
}
);
layerId = m008;
paths = (
{
closed = 1;
nodes = (
"368 0 LINE",
"368 1420 LINE",
"160 1420 LINE",
"160 0 LINE"
);
},
{
closed = 1;
nodes = (
"1100 0 LINE",
"1100 190 LINE",
"160 190 LINE",
"160 0 LINE"
);
}
);
width = 1200;
},
{
anchors = (
{
name = bottom;
position = "{620, 0}";
},
{
name = center;
position = "{600, 710}";
},
{
name = top;
position = "{275, 1420}";
},
{
name = topright;
position = "{1180, 1420}";
}
);
layerId = m009;
paths = (
{
closed = 1;
nodes = (
"407 0 LINE",
"407 1420 LINE",
"143 1420 LINE",
"143 0 LINE"
);
},
{
closed = 1;
nodes = (
"1117 0 LINE",
"1117 243 LINE",
"143 243 LINE",
"143 0 LINE"
);
}
);
width = 1200;
},
{
anchors = (
{
name = bottom;
position = "{465, 0}";
},
{
name = center;
position = "{450, 710}";
},
{
name = top;
position = "{207, 1420}";
},
{
name = topright;
position = "{873, 1420}";
}
);
layerId = "8A5928CE-31B2-4F56-BC21-FB6F481DC46A";
paths = (
{
closed = 1;
nodes = (
"298 0 LINE",
"298 1420 LINE",
"115 1420 LINE",
"115 0 LINE"
);
},
{
closed = 1;
nodes = (
"822 0 LINE",
"822 175 LINE",
"115 175 LINE",
"115 0 LINE"
);
}
);
width = 900;
},
{
anchors = (
{
name = bottom;
position = "{465, 0}";
},
{
name = center;
position = "{450, 710}";
},
{
name = top;
position = "{222, 1420}";
},
{
name = topright;
position = "{879, 1420}";
}
);
layerId = "A3FCBCC7-55DF-4604-8A77-DC78C4EF6076";
paths = (
{
closed = 1;
nodes = (
"340 0 LINE",
"340 1420 LINE",
"105 1420 LINE",
"105 0 LINE"
);
},
{
closed = 1;
nodes = (
"839 0 LINE",
"839 232 LINE",
"105 232 LINE",
"105 0 LINE"
);
}
);
width = 900;
},
{
anchors = (
{
name = bottom;
position = "{465, 0}";
},
{
name = center;
position = "{450, 710}";
},
{
name = top;
position = "{182, 1420}";
},
{
name = topright;
position = "{871, 1420}";
}
);
layerId = "4AED55CC-054D-4448-879E-1FE49A52CF83";
paths = (
{
closed = 1;
nodes = (
"235 0 LINE",
"235 1420 LINE",
"141 1420 LINE",
"141 0 LINE"
);
},
{
closed = 1;
nodes = (
"803 0 LINE",
"803 90 LINE",
"141 90 LINE",
"141 0 LINE"
);
}
);
width = 900;
}
);
unicode = 004C;
}
{
glyphname = M;
layers = (
{
anchors = (
{
name = bottom;
position = "{300, 0}";
},
{
name = top;
position = "{300, 1420}";
}
);
layerId = m004;
paths = (
{
closed = 1;
nodes = (
"349 660 LINE",
"416 1332 LINE",
"448 1332 LINE",
"448 1420 LINE",
"364 1420 LINE",
"302 748 LINE",
"299 748 LINE",
"290 660 LINE"
);
},
{
closed = 1;
nodes = (
"166 0 LINE",
"166 1420 LINE",
"72 1420 LINE",
"72 0 LINE"
);
},
{
closed = 1;
nodes = (
"308 660 LINE",
"300 748 LINE",
"298 748 LINE",
"236 1420 LINE",
"156 1420 LINE",
"156 1332 LINE",
"184 1332 LINE",
"241 660 LINE"
);
},
{
closed = 1;
nodes = (
"528 0 LINE",
"528 1420 LINE",
"434 1420 LINE",
"434 0 LINE"
);
}
);
width = 600;
},
{
anchors = (
{
name = bottom;
position = "{300, 0}";
},
{
name = top;
position = "{300, 1420}";
}
);
layerId = m005;
paths = (
{
closed = 1;
nodes = (
"358 580 LINE",
"399 1260 LINE",
"432 1260 LINE",
"422 1420 LINE",
"347 1420 LINE",
"305 740 LINE",
"297 740 LINE",
"280 580 LINE"
);
},
{
closed = 1;
nodes = (
"182 0 LINE",
"182 1420 LINE",
"50 1420 LINE",
"50 0 LINE"
);
},
{
closed = 1;
nodes = (
"316 580 LINE",
"300 740 LINE",
"295 740 LINE",
"253 1420 LINE",
"175 1420 LINE",
"164 1260 LINE",
"201 1260 LINE",
"242 580 LINE"
);
},
{
closed = 1;
nodes = (
"550 0 LINE",
"550 1420 LINE",
"418 1420 LINE",
"418 0 LINE"
);
}
);
width = 600;
},
{
anchors = (
{
name = bottom;
position = "{300, 0}";
},
{
name = top;
position = "{300, 1420}";
}
);
layerId = m006;
paths = (
{
closed = 1;
nodes = (
"355 497 LINE",
"379 1200 LINE",
"416 1200 LINE",
"433 1420 LINE",
"337 1420 LINE",
"310 675 LINE",
"290 675 LINE",
"247 497 LINE"
);
},
{
closed = 1;
nodes = (
"199 0 LINE",
"199 1420 LINE",
"21 1420 LINE",
"21 0 LINE"
);
},
{
closed = 1;
nodes = (
"298 497 LINE",
"310 675 LINE",
"290 675 LINE",
"263 1420 LINE",
"191 1420 LINE",
"168 1200 LINE",
"211 1200 LINE",
"245 497 LINE"
);
},
{
closed = 1;
nodes = (
"579 0 LINE",
"579 1420 LINE",
"401 1420 LINE",
"401 0 LINE"
);
}
);
width = 600;
},
{
anchors = (
{
name = bottom;
position = "{600, 0}";
},
{
name = top;
position = "{600, 1420}";
}
);
layerId = m007;
paths = (
{
closed = 1;
nodes = (
"660 660 LINE",
"944 1332 LINE",
"986 1332 LINE",
"986 1420 LINE",
"886 1420 LINE",
"602 748 LINE",
"600 748 LINE",
"587 660 LINE"
);
},
{
closed = 1;
nodes = (
"246 0 LINE",
"246 1420 LINE",
"152 1420 LINE",
"152 0 LINE"
);
},
{
closed = 1;
nodes = (
"614 660 LINE",
"601 748 LINE",
"598 748 LINE",
"314 1420 LINE",
"232 1420 LINE",
"232 1332 LINE",
"256 1332 LINE",
"540 660 LINE"
);
},
{
closed = 1;
nodes = (
"1048 0 LINE",
"1048 1420 LINE",
"954 1420 LINE",
"954 0 LINE"
);
}
);
width = 1200;
},
{
anchors = (
{
name = bottom;
position = "{600, 0}";
},
{
name = top;
position = "{600, 1420}";
}
);
layerId = m008;
paths = (
{
closed = 1;
nodes = (
"692 580 LINE",
"846 1168 LINE",
"904 1168 LINE",
"904 1420 LINE",
"762 1420 LINE",
"608 810 LINE",
"596 810 LINE",
"566 580 LINE"
);
},
{
closed = 1;
nodes = (
"328 0 LINE",
"328 1420 LINE",
"128 1420 LINE",
"128 0 LINE"
);
},
{
closed = 1;
nodes = (
"620 580 LINE",
"600 810 LINE",
"592 810 LINE",
"438 1420 LINE",
"296 1420 LINE",
"296 1168 LINE",
"354 1168 LINE",
"508 580 LINE"
);
},
{
closed = 1;
nodes = (
"1072 0 LINE",
"1072 1420 LINE",
"872 1420 LINE",
"872 0 LINE"
);
}
);
width = 1200;
},
{
anchors = (
{
name = bottom;
position = "{600, 0}";
},
{
name = top;
position = "{600, 1420}";
}
);
layerId = m009;
paths = (
{
closed = 1;
nodes = (
"692 497 LINE",
"812 1168 LINE",
"875 1168 LINE",
"859 1420 LINE",
"712 1420 LINE",
"608 785 LINE",
"596 785 LINE",
"566 497 LINE"
);
},
{
closed = 1;
nodes = (
"357 0 LINE",
"357 1420 LINE",
"111 1420 LINE",
"111 0 LINE"
);
},
{
closed = 1;
nodes = (
"628 497 LINE",
"600 785 LINE",
"592 785 LINE",
"488 1420 LINE",
"341 1420 LINE",
"325 1168 LINE",
"388 1168 LINE",
"508 497 LINE"
);
},
{
closed = 1;
nodes = (
"1089 0 LINE",
"1089 1420 LINE",
"843 1420 LINE",
"843 0 LINE"
);
}
);
width = 1200;
},
{
anchors = (
{
name = bottom;
position = "{450, 0}";
},
{
name = top;
position = "{450, 1420}";
}
);
layerId = "8A5928CE-31B2-4F56-BC21-FB6F481DC46A";
paths = (
{
closed = 1;
nodes = (
"525 580 LINE",
"623 1214 LINE",
"668 1214 LINE",
"663 1420 LINE",
"555 1420 LINE",
"457 775 LINE",
"447 775 LINE",
"423 580 LINE"
);
},
{
closed = 1;
nodes = (
"255 0 LINE",
"255 1420 LINE",
"89 1420 LINE",
"89 0 LINE"
);
},
{
closed = 1;
nodes = (
"468 580 LINE",
"450 775 LINE",
"444 775 LINE",
"346 1420 LINE",
"236 1420 LINE",
"230 1214 LINE",
"278 1214 LINE",
"375 580 LINE"
);
},
{
closed = 1;
nodes = (
"811 0 LINE",
"811 1420 LINE",
"645 1420 LINE",
"645 0 LINE"
);
}
);
width = 900;
},
{
anchors = (
{
name = bottom;
position = "{450, 0}";
},
{
name = top;
position = "{450, 1420}";
}
);
layerId = "A3FCBCC7-55DF-4604-8A77-DC78C4EF6076";
paths = (
{
closed = 1;
nodes = (
"524 497 LINE",
"596 1184 LINE",
"646 1184 LINE",
"646 1420 LINE",
"525 1420 LINE",
"459 730 LINE",
"443 730 LINE",
"407 497 LINE"
);
},
{
closed = 1;
nodes = (
"278 0 LINE",
"278 1420 LINE",
"66 1420 LINE",
"66 0 LINE"
);
},
{
closed = 1;
nodes = (
"463 497 LINE",
"455 730 LINE",
"441 730 LINE",
"376 1420 LINE",
"266 1420 LINE",
"247 1184 LINE",
"300 1184 LINE",
"377 497 LINE"
);
},
{
closed = 1;
nodes = (
"834 0 LINE",
"834 1420 LINE",
"622 1420 LINE",
"622 0 LINE"
);
}
);
width = 900;
},
{
anchors = (
{
name = bottom;
position = "{450, 0}";
},
{
name = top;
position = "{450, 1420}";
}
);
layerId = "4AED55CC-054D-4448-879E-1FE49A52CF83";
paths = (
{
closed = 1;
nodes = (
"505 660 LINE",
"680 1332 LINE",
"717 1332 LINE",
"717 1420 LINE",
"625 1420 LINE",
"452 748 LINE",
"450 748 LINE",
"439 660 LINE"
);
},
{
closed = 1;
nodes = (
"206 0 LINE",
"206 1420 LINE",
"112 1420 LINE",
"112 0 LINE"
);
},
{
closed = 1;
nodes = (
"461 660 LINE",
"451 748 LINE",
"448 748 LINE",
"275 1420 LINE",
"194 1420 LINE",
"194 1332 LINE",
"220 1332 LINE",
"391 660 LINE"
);
},
{
closed = 1;
nodes = (
"788 0 LINE",
"788 1420 LINE",
"694 1420 LINE",
"694 0 LINE"
);
}
);
width = 900;
}
);
unicode = 004D;
}
{
glyphname = N;
layers = (
{
anchors = (
{
name = bottom;
position = "{300, 0}";
},
{
name = top;
position = "{300, 1420}";
}
);
layerId = m004;
paths = (
{
closed = 1;
nodes = (
"428 0 LINE",
"428 88 LINE",
"399 88 LINE",
"268 1420 LINE",
"159 1420 LINE",
"159 1332 LINE",
"202 1332 LINE",
"333 0 LINE"
);
},
{
closed = 1;
nodes = (
"186 0 LINE",
"186 1420 LINE",
"92 1420 LINE",
"92 0 LINE"
);
},
{
closed = 1;
nodes = (
"508 0 LINE",
"508 1420 LINE",
"414 1420 LINE",
"414 0 LINE"
);
}
);
width = 600;
},
{
anchors = (
{
name = bottom;
position = "{300, 0}";
},
{
name = top;
position = "{300, 1420}";
}
);
annotations = (
{
position = "{603.456, 1706.061}";
text = "vertical stems feel light. Maybe need a little boost? (see D)";
type = Text;
}
);
layerId = m005;
paths = (
{
closed = 1;
nodes = (
"406 0 LINE",
"406 160 LINE",
"372 160 LINE",
"289 1420 LINE",
"170 1420 LINE",
"170 1260 LINE",
"228 1260 LINE",
"311 0 LINE"
);
},
{
closed = 1;
nodes = (
"205 0 LINE",
"205 1420 LINE",
"70 1420 LINE",
"70 0 LINE"
);
},
{
closed = 1;
nodes = (
"530 0 LINE",
"530 1420 LINE",
"395 1420 LINE",
"395 0 LINE"
);
}
);
width = 600;
},
{
anchors = (
{
name = bottom;
position = "{300, 0}";
},
{
name = top;
position = "{300, 1420}";
}
);
layerId = m006;
paths = (
{
closed = 1;
nodes = (
"371 0 LINE",
"371 220 LINE",
"332 220 LINE",
"313 1420 LINE",
"201 1420 LINE",
"201 1200 LINE",
"268 1200 LINE",
"297 0 LINE"
);
},
{
closed = 1;
nodes = (
"241 0 LINE",
"241 1420 LINE",
"71 1420 LINE",
"71 0 LINE"
);
},
{
closed = 1;
nodes = (
"529 0 LINE",
"529 1420 LINE",
"359 1420 LINE",
"359 0 LINE"
);
}
);
width = 600;
},
{
anchors = (
{
name = bottom;
position = "{600, 0}";
},
{
name = top;
position = "{600, 1420}";
}
);
layerId = m007;
paths = (
{
closed = 1;
nodes = (
"969 0 LINE",
"969 88 LINE",
"927 88 LINE",
"333 1420 LINE",
"215 1420 LINE",
"215 1332 LINE",
"274 1332 LINE",
"868 0 LINE"
);
},
{
closed = 1;
nodes = (
"266 0 LINE",
"266 1420 LINE",
"172 1420 LINE",
"172 0 LINE"
);
},
{
closed = 1;
nodes = (
"1028 0 LINE",
"1028 1420 LINE",
"934 1420 LINE",
"934 0 LINE"
);
}
);
width = 1200;
},
{
anchors = (
{
name = bottom;
position = "{600, 0}";
},
{
name = top;
position = "{600, 1420}";
}
);
annotations = (
{
position = "{603.456, 1706.061}";
text = "vertical stems feel light. Maybe need a little boost? (see D)";
type = Text;
}
);
layerId = m008;
paths = (
{
closed = 1;
nodes = (
"874 0 LINE",
"874 340 LINE",
"824 340 LINE",
"416 1420 LINE",
"284 1420 LINE",
"284 1080 LINE",
"376 1080 LINE",
"784 0 LINE"
);
},
{
closed = 1;
nodes = (
"356 0 LINE",
"356 1420 LINE",
"148 1420 LINE",
"148 0 LINE"
);
},
{
closed = 1;
nodes = (
"1052 0 LINE",
"1052 1420 LINE",
"844 1420 LINE",
"844 0 LINE"
);
}
);
width = 1200;
},
{
anchors = (
{
name = bottom;
position = "{600, 0}";
},
{
name = top;
position = "{600, 1420}";
}
);
layerId = m009;
paths = (
{
closed = 1;
nodes = (
"845 0 LINE",
"845 310 LINE",
"778 310 LINE",
"528 1420 LINE",
"313 1420 LINE",
"313 1110 LINE",
"422 1110 LINE",
"672 0 LINE"
);
},
{
closed = 1;
nodes = (
"385 0 LINE",
"385 1420 LINE",
"131 1420 LINE",
"131 0 LINE"
);
},
{
closed = 1;
nodes = (
"1069 0 LINE",
"1069 1420 LINE",
"815 1420 LINE",
"815 0 LINE"
);
}
);
width = 1200;
},
{
anchors = (
{
name = bottom;
position = "{450, 0}";
},
{
name = top;
position = "{450, 1420}";
}
);
layerId = "8A5928CE-31B2-4F56-BC21-FB6F481DC46A";
paths = (
{
closed = 1;
nodes = (
"640 0 LINE",
"640 250 LINE",
"598 250 LINE",
"353 1420 LINE",
"227 1420 LINE",
"227 1170 LINE",
"302 1170 LINE",
"548 0 LINE"
);
},
{
closed = 1;
nodes = (
"281 0 LINE",
"281 1420 LINE",
"109 1420 LINE",
"109 0 LINE"
);
},
{
closed = 1;
nodes = (
"791 0 LINE",
"791 1420 LINE",
"620 1420 LINE",
"620 0 LINE"
);
}
);
width = 900;
},
{
anchors = (
{
name = bottom;
position = "{450, 0}";
},
{
name = top;
position = "{450, 1420}";
}
);
layerId = "A3FCBCC7-55DF-4604-8A77-DC78C4EF6076";
paths = (
{
closed = 1;
nodes = (
"608 0 LINE",
"608 265 LINE",
"555 265 LINE",
"421 1420 LINE",
"257 1420 LINE",
"257 1155 LINE",
"345 1155 LINE",
"485 0 LINE"
);
},
{
closed = 1;
nodes = (
"313 0 LINE",
"313 1420 LINE",
"101 1420 LINE",
"101 0 LINE"
);
},
{
closed = 1;
nodes = (
"799 0 LINE",
"799 1420 LINE",
"587 1420 LINE",
"587 0 LINE"
);
}
);
width = 900;
},
{
anchors = (
{
name = bottom;
position = "{450, 0}";
},
{
name = top;
position = "{450, 1420}";
}
);
layerId = "4AED55CC-054D-4448-879E-1FE49A52CF83";
paths = (
{
closed = 1;
nodes = (
"699 0 LINE",
"699 88 LINE",
"663 88 LINE",
"301 1420 LINE",
"187 1420 LINE",
"187 1332 LINE",
"238 1332 LINE",
"601 0 LINE"
);
},
{
closed = 1;
nodes = (
"226 0 LINE",
"226 1420 LINE",
"132 1420 LINE",
"132 0 LINE"
);
},
{
closed = 1;
nodes = (
"768 0 LINE",
"768 1420 LINE",
"674 1420 LINE",
"674 0 LINE"
);
}
);
width = 900;
}
);
unicode = 004E;
}
{
glyphname = O;
layers = (
{
anchors = (
{
name = bottom;
position = "{300, 0}";
},
{
name = center;
position = "{300, 710}";
},
{
name = ogonek;
position = "{391, 10}";
},
{
name = top;
position = "{300, 1420}";
},
{
name = topleft;
position = "{4, 1420}";
},
{
name = topright;
position = "{596, 1420}";
}
);
layerId = m004;
paths = (
{
closed = 1;
nodes = (
"479 -20 OFFCURVE",
"550 186 OFFCURVE",
"550 700 CURVE SMOOTH",
"550 1229 OFFCURVE",
"479 1440 OFFCURVE",
"300 1440 CURVE SMOOTH",
"121 1440 OFFCURVE",
"50 1229 OFFCURVE",
"50 700 CURVE SMOOTH",
"50 186 OFFCURVE",
"121 -20 OFFCURVE",
"300 -20 CURVE SMOOTH"
);
},
{
closed = 1;
nodes = (
"190 70 OFFCURVE",
"146 250 OFFCURVE",
"146 700 CURVE SMOOTH",
"146 1164 OFFCURVE",
"190 1350 OFFCURVE",
"300 1350 CURVE SMOOTH",
"410 1350 OFFCURVE",
"454 1164 OFFCURVE",
"454 700 CURVE SMOOTH",
"454 250 OFFCURVE",
"410 70 OFFCURVE",
"300 70 CURVE SMOOTH"
);
}
);
width = 600;
},
{
anchors = (
{
name = bottom;
position = "{300, 0}";
},
{
name = center;
position = "{300, 710}";
},
{
name = ogonek;
position = "{612, 10}";
},
{
name = top;
position = "{300, 1420}";
},
{
name = topleft;
position = "{1, 1420}";
},
{
name = topright;
position = "{599, 1420}";
}
);
guideLines = (
{
angle = 90;
position = "{1124, 1269}";
}
);
layerId = m005;
paths = (
{
closed = 1;
nodes = (
"493 -20 OFFCURVE",
"560 165 OFFCURVE",
"560 700 CURVE SMOOTH",
"560 1250 OFFCURVE",
"493 1440 OFFCURVE",
"300 1440 CURVE SMOOTH",
"107 1440 OFFCURVE",
"40 1250 OFFCURVE",
"40 700 CURVE SMOOTH",
"40 165 OFFCURVE",
"107 -20 OFFCURVE",
"300 -20 CURVE SMOOTH"
);
},
{
closed = 1;
nodes = (
"229 150 OFFCURVE",
"204 291 OFFCURVE",
"204 700 CURVE SMOOTH",
"204 1123 OFFCURVE",
"229 1270 OFFCURVE",
"300 1270 CURVE SMOOTH",
"371 1270 OFFCURVE",
"396 1123 OFFCURVE",
"396 700 CURVE SMOOTH",
"396 291 OFFCURVE",
"371 150 OFFCURVE",
"300 150 CURVE SMOOTH"
);
}
);
width = 600;
},
{
anchors = (
{
name = bottom;
position = "{300, 0}";
},
{
name = center;
position = "{300, 710}";
},
{
name = ogonek;
position = "{701, 10}";
},
{
name = top;
position = "{300, 1420}";
},
{
name = topleft;
position = "{-9, 1420}";
},
{
name = topright;
position = "{609, 1420}";
}
);
layerId = m006;
paths = (
{
closed = 1;
nodes = (
"500 -20 OFFCURVE",
"580 186 OFFCURVE",
"580 700 CURVE SMOOTH",
"580 1229 OFFCURVE",
"500 1440 OFFCURVE",
"300 1440 CURVE SMOOTH",
"100 1440 OFFCURVE",
"20 1229 OFFCURVE",
"20 700 CURVE SMOOTH",
"20 186 OFFCURVE",
"100 -20 OFFCURVE",
"300 -20 CURVE SMOOTH"
);
},
{
closed = 1;
nodes = (
"250 210 OFFCURVE",
"230 350 OFFCURVE",
"230 700 CURVE SMOOTH",
"230 1064 OFFCURVE",
"250 1210 OFFCURVE",
"300 1210 CURVE SMOOTH",
"350 1210 OFFCURVE",
"370 1064 OFFCURVE",
"370 700 CURVE SMOOTH",
"370 350 OFFCURVE",
"350 210 OFFCURVE",
"300 210 CURVE SMOOTH"
);
}
);
width = 600;
},
{
anchors = (
{
name = bottom;
position = "{600, 0}";
},
{
name = center;
position = "{600, 710}";
},
{
name = ogonek;
position = "{599, 10}";
},
{
name = top;
position = "{600, 1420}";
},
{
name = topleft;
position = "{20, 1420}";
},
{
name = topright;
position = "{1180, 1420}";
}
);
layerId = m007;
paths = (
{
closed = 1;
nodes = (
"932 -20 OFFCURVE",
"1100 218 OFFCURVE",
"1100 700 CURVE SMOOTH",
"1100 1194 OFFCURVE",
"932 1440 OFFCURVE",
"600 1440 CURVE SMOOTH",
"268 1440 OFFCURVE",
"100 1194 OFFCURVE",
"100 700 CURVE SMOOTH",
"100 218 OFFCURVE",
"268 -20 OFFCURVE",
"600 -20 CURVE SMOOTH"
);
},
{
closed = 1;
nodes = (
"331 70 OFFCURVE",
"196 280 OFFCURVE",
"196 700 CURVE SMOOTH",
"196 1135 OFFCURVE",
"331 1350 OFFCURVE",
"600 1350 CURVE SMOOTH",
"869 1350 OFFCURVE",
"1004 1135 OFFCURVE",
"1004 700 CURVE SMOOTH",
"1004 280 OFFCURVE",
"869 70 OFFCURVE",
"600 70 CURVE SMOOTH"
);
}
);
width = 1200;
},
{
anchors = (
{
name = bottom;
position = "{600, 0}";
},
{
name = center;
position = "{600, 710}";
},
{
name = ogonek;
position = "{1080, 10}";
},
{
name = top;
position = "{600, 1420}";
},
{
name = topleft;
position = "{20, 1420}";
},
{
name = topright;
position = "{1180, 1420}";
}
);
guideLines = (
{
angle = 90;
position = "{1124, 1269}";
}
);
layerId = m008;
paths = (
{
closed = 1;
nodes = (
"948 -20 OFFCURVE",
"1124 218 OFFCURVE",
"1124 700 CURVE SMOOTH",
"1124 1194 OFFCURVE",
"948 1440 OFFCURVE",
"600 1440 CURVE SMOOTH",
"252 1440 OFFCURVE",
"76 1194 OFFCURVE",
"76 700 CURVE SMOOTH",
"76 218 OFFCURVE",
"252 -20 OFFCURVE",
"600 -20 CURVE SMOOTH"
);
},
{
closed = 1;
nodes = (
"394 164 OFFCURVE",
"290 342 OFFCURVE",
"290 700 CURVE SMOOTH",
"290 1072 OFFCURVE",
"394 1256 OFFCURVE",
"600 1256 CURVE SMOOTH",
"806 1256 OFFCURVE",
"910 1072 OFFCURVE",
"910 700 CURVE SMOOTH",
"910 342 OFFCURVE",
"806 164 OFFCURVE",
"600 164 CURVE SMOOTH"
);
}
);
width = 1200;
},
{
anchors = (
{
name = bottom;
position = "{600, 0}";
},
{
name = center;
position = "{600, 710}";
},
{
name = ogonek;
position = "{1080, 10}";
},
{
name = top;
position = "{600, 1420}";
},
{
name = topleft;
position = "{20, 1420}";
},
{
name = topright;
position = "{1180, 1420}";
}
);
layerId = m009;
paths = (
{
closed = 1;
nodes = (
"959 -20 OFFCURVE",
"1141 218 OFFCURVE",
"1141 700 CURVE SMOOTH",
"1141 1194 OFFCURVE",
"959 1440 OFFCURVE",
"600 1440 CURVE SMOOTH",
"241 1440 OFFCURVE",
"59 1194 OFFCURVE",
"59 700 CURVE SMOOTH",
"59 218 OFFCURVE",
"241 -20 OFFCURVE",
"600 -20 CURVE SMOOTH"
);
},
{
closed = 1;
nodes = (
"424 232 OFFCURVE",
"336 387 OFFCURVE",
"336 700 CURVE SMOOTH",
"336 1026 OFFCURVE",
"424 1188 OFFCURVE",
"600 1188 CURVE SMOOTH",
"776 1188 OFFCURVE",
"864 1026 OFFCURVE",
"864 700 CURVE SMOOTH",
"864 387 OFFCURVE",
"776 232 OFFCURVE",
"600 232 CURVE SMOOTH"
);
}
);
width = 1200;
},
{
anchors = (
{
name = bottom;
position = "{450, 0}";
},
{
name = center;
position = "{450, 710}";
},
{
name = ogonek;
position = "{846, 10}";
},
{
name = top;
position = "{450, 1420}";
},
{
name = topleft;
position = "{11, 1420}";
},
{
name = topright;
position = "{890, 1420}";
}
);
layerId = "8A5928CE-31B2-4F56-BC21-FB6F481DC46A";
paths = (
{
closed = 1;
nodes = (
"721 -20 OFFCURVE",
"842 192 OFFCURVE",
"842 700 CURVE SMOOTH",
"842 1222 OFFCURVE",
"721 1440 OFFCURVE",
"450 1440 CURVE SMOOTH",
"180 1440 OFFCURVE",
"58 1222 OFFCURVE",
"58 700 CURVE SMOOTH",
"58 192 OFFCURVE",
"180 -20 OFFCURVE",
"450 -20 CURVE SMOOTH"
);
},
{
closed = 1;
nodes = (
"312 157 OFFCURVE",
"247 317 OFFCURVE",
"247 700 CURVE SMOOTH",
"247 1098 OFFCURVE",
"312 1263 OFFCURVE",
"450 1263 CURVE SMOOTH",
"589 1263 OFFCURVE",
"653 1098 OFFCURVE",
"653 700 CURVE SMOOTH",
"653 317 OFFCURVE",
"589 157 OFFCURVE",
"450 157 CURVE SMOOTH"
);
}
);
width = 900;
},
{
anchors = (
{
name = bottom;
position = "{450, 0}";
},
{
name = center;
position = "{450, 710}";
},
{
name = ogonek;
position = "{891, 10}";
},
{
name = top;
position = "{450, 1420}";
},
{
name = topleft;
position = "{6, 1420}";
},
{
name = topright;
position = "{895, 1420}";
}
);
layerId = "A3FCBCC7-55DF-4604-8A77-DC78C4EF6076";
paths = (
{
closed = 1;
nodes = (
"730 -20 OFFCURVE",
"861 202 OFFCURVE",
"861 700 CURVE SMOOTH",
"861 1212 OFFCURVE",
"730 1440 OFFCURVE",
"450 1440 CURVE SMOOTH",
"171 1440 OFFCURVE",
"40 1212 OFFCURVE",
"40 700 CURVE SMOOTH",
"40 202 OFFCURVE",
"171 -20 OFFCURVE",
"450 -20 CURVE SMOOTH"
);
},
{
closed = 1;
nodes = (
"337 221 OFFCURVE",
"283 369 OFFCURVE",
"283 700 CURVE SMOOTH",
"283 1045 OFFCURVE",
"337 1199 OFFCURVE",
"450 1199 CURVE SMOOTH",
"563 1199 OFFCURVE",
"617 1045 OFFCURVE",
"617 700 CURVE SMOOTH",
"617 369 OFFCURVE",
"563 221 OFFCURVE",
"450 221 CURVE SMOOTH"
);
}
);
width = 900;
},
{
anchors = (
{
name = bottom;
position = "{450, 0}";
},
{
name = center;
position = "{450, 710}";
},
{
name = ogonek;
position = "{495, 10}";
},
{
name = top;
position = "{450, 1420}";
},
{
name = topleft;
position = "{12, 1420}";
},
{
name = topright;
position = "{888, 1420}";
}
);
layerId = "4AED55CC-054D-4448-879E-1FE49A52CF83";
paths = (
{
closed = 1;
nodes = (
"706 -20 OFFCURVE",
"825 202 OFFCURVE",
"825 700 CURVE SMOOTH",
"825 1212 OFFCURVE",
"706 1440 OFFCURVE",
"450 1440 CURVE SMOOTH",
"195 1440 OFFCURVE",
"75 1212 OFFCURVE",
"75 700 CURVE SMOOTH",
"75 202 OFFCURVE",
"195 -20 OFFCURVE",
"450 -20 CURVE SMOOTH"
);
},
{
closed = 1;
nodes = (
"261 70 OFFCURVE",
"171 265 OFFCURVE",
"171 700 CURVE SMOOTH",
"171 1150 OFFCURVE",
"261 1350 OFFCURVE",
"450 1350 CURVE SMOOTH",
"640 1350 OFFCURVE",
"729 1150 OFFCURVE",
"729 700 CURVE SMOOTH",
"729 265 OFFCURVE",
"640 70 OFFCURVE",
"450 70 CURVE SMOOTH"
);
}
);
width = 900;
}
);
unicode = 004F;
}
{
glyphname = Z;
layers = (
{
anchors = (
{
name = bottom;
position = "{300, 0}";
},
{
name = center;
position = "{300, 710}";
},
{
name = top;
position = "{300, 1420}";
}
);
layerId = m004;
paths = (
{
closed = 1;
nodes = (
"511 1330 LINE",
"437 1382 LINE",
"88 90 LINE",
"162 38 LINE"
);
},
{
closed = 1;
nodes = (
"520 0 LINE",
"520 90 LINE",
"88 90 LINE",
"88 0 LINE"
);
},
{
closed = 1;
nodes = (
"511 1330 LINE",
"511 1420 LINE",
"88 1420 LINE",
"88 1330 LINE"
);
}
);
width = 600;
},
{
anchors = (
{
name = bottom;
position = "{300, 0}";
},
{
name = center;
position = "{300, 710}";
},
{
name = top;
position = "{300, 1420}";
}
);
layerId = m005;
paths = (
{
closed = 1;
nodes = (
"511 1260 LINE",
"381 1362 LINE",
"80 160 LINE",
"211 68 LINE"
);
},
{
closed = 1;
nodes = (
"520 0 LINE",
"520 160 LINE",
"80 160 LINE",
"80 0 LINE"
);
},
{
closed = 1;
nodes = (
"511 1260 LINE",
"511 1420 LINE",
"80 1420 LINE",
"80 1260 LINE"
);
}
);
width = 600;
},
{
anchors = (
{
name = bottom;
position = "{300, 0}";
},
{
name = center;
position = "{300, 710}";
},
{
name = top;
position = "{300, 1420}";
}
);
layerId = m006;
paths = (
{
closed = 1;
nodes = (
"529 1200 LINE",
"381 1362 LINE",
"64 220 LINE",
"212 68 LINE"
);
},
{
closed = 1;
nodes = (
"538 0 LINE",
"538 220 LINE",
"64 220 LINE",
"64 0 LINE"
);
},
{
closed = 1;
nodes = (
"529 1200 LINE",
"529 1420 LINE",
"64 1420 LINE",
"64 1200 LINE"
);
}
);
width = 600;
},
{
anchors = (
{
name = bottom;
position = "{600, 0}";
},
{
name = center;
position = "{600, 710}";
},
{
name = top;
position = "{600, 1420}";
}
);
layerId = m007;
paths = (
{
closed = 1;
nodes = (
"1026 1330 LINE",
"954 1382 LINE",
"174 90 LINE",
"246 38 LINE"
);
},
{
closed = 1;
nodes = (
"1046 0 LINE",
"1046 90 LINE",
"174 90 LINE",
"174 0 LINE"
);
},
{
closed = 1;
nodes = (
"1026 1330 LINE",
"1026 1420 LINE",
"174 1420 LINE",
"174 1330 LINE"
);
}
);
width = 1200;
},
{
anchors = (
{
name = bottom;
position = "{600, 0}";
},
{
name = center;
position = "{600, 710}";
},
{
name = top;
position = "{600, 1420}";
}
);
layerId = m008;
paths = (
{
closed = 1;
nodes = (
"1050 1230 LINE",
"898 1362 LINE",
"150 190 LINE",
"302 68 LINE"
);
},
{
closed = 1;
nodes = (
"1070 0 LINE",
"1070 190 LINE",
"150 190 LINE",
"150 0 LINE"
);
},
{
closed = 1;
nodes = (
"1050 1230 LINE",
"1050 1420 LINE",
"150 1420 LINE",
"150 1230 LINE"
);
}
);
width = 1200;
},
{
anchors = (
{
name = bottom;
position = "{600, 0}";
},
{
name = center;
position = "{600, 710}";
},
{
name = top;
position = "{600, 1420}";
}
);
layerId = m009;
paths = (
{
closed = 1;
nodes = (
"1062 1177 LINE",
"885 1362 LINE",
"128 243 LINE",
"305 68 LINE"
);
},
{
closed = 1;
nodes = (
"1082 0 LINE",
"1082 243 LINE",
"128 243 LINE",
"128 0 LINE"
);
},
{
closed = 1;
nodes = (
"1062 1177 LINE",
"1062 1420 LINE",
"128 1420 LINE",
"128 1177 LINE"
);
}
);
width = 1200;
},
{
anchors = (
{
name = bottom;
position = "{450, 0}";
},
{
name = center;
position = "{450, 710}";
},
{
name = top;
position = "{450, 1420}";
}
);
layerId = "8A5928CE-31B2-4F56-BC21-FB6F481DC46A";
paths = (
{
closed = 1;
nodes = (
"781 1245 LINE",
"640 1362 LINE",
"115 175 LINE",
"257 68 LINE"
);
},
{
closed = 1;
nodes = (
"795 0 LINE",
"795 175 LINE",
"115 175 LINE",
"115 0 LINE"
);
},
{
closed = 1;
nodes = (
"781 1245 LINE",
"781 1420 LINE",
"115 1420 LINE",
"115 1245 LINE"
);
}
);
width = 900;
},
{
anchors = (
{
name = bottom;
position = "{450, 0}";
},
{
name = center;
position = "{450, 710}";
},
{
name = top;
position = "{450, 1420}";
}
);
layerId = "A3FCBCC7-55DF-4604-8A77-DC78C4EF6076";
paths = (
{
closed = 1;
nodes = (
"796 1189 LINE",
"633 1362 LINE",
"96 232 LINE",
"259 68 LINE"
);
},
{
closed = 1;
nodes = (
"810 0 LINE",
"810 232 LINE",
"96 232 LINE",
"96 0 LINE"
);
},
{
closed = 1;
nodes = (
"796 1189 LINE",
"796 1420 LINE",
"96 1420 LINE",
"96 1189 LINE"
);
}
);
width = 900;
},
{
anchors = (
{
name = bottom;
position = "{450, 0}";
},
{
name = center;
position = "{450, 710}";
},
{
name = top;
position = "{450, 1420}";
}
);
layerId = "4AED55CC-054D-4448-879E-1FE49A52CF83";
paths = (
{
closed = 1;
nodes = (
"769 1330 LINE",
"696 1382 LINE",
"131 90 LINE",
"204 38 LINE"
);
},
{
closed = 1;
nodes = (
"783 0 LINE",
"783 90 LINE",
"131 90 LINE",
"131 0 LINE"
);
},
{
closed = 1;
nodes = (
"769 1330 LINE",
"769 1420 LINE",
"131 1420 LINE",
"131 1330 LINE"
);
}
);
width = 900;
}
);
unicode = 005A;
}
{
glyphname = backslash;
layers = (
{
layerId = m004;
paths = (
{
closed = 1;
nodes = (
"544 -190 LINE",
"107 1610 LINE",
"16 1610 LINE",
"453 -190 LINE"
);
}
);
width = 600;
},
{
layerId = m005;
paths = (
{
closed = 1;
nodes = (
"573 -190 LINE",
"186 1610 LINE",
"37 1610 LINE",
"424 -190 LINE"
);
}
);
width = 600;
},
{
layerId = m006;
paths = (
{
closed = 1;
nodes = (
"597 -190 LINE",
"237 1610 LINE",
"27 1610 LINE",
"397 -190 LINE"
);
}
);
width = 600;
},
{
layerId = m007;
paths = (
{
closed = 1;
nodes = (
"1032 -190 LINE",
"162 1610 LINE",
"64 1610 LINE",
"934 -190 LINE"
);
}
);
width = 1200;
},
{
layerId = m008;
paths = (
{
closed = 1;
nodes = (
"1086 -190 LINE",
"282 1610 LINE",
"70 1610 LINE",
"874 -190 LINE"
);
}
);
width = 1200;
},
{
layerId = m009;
paths = (
{
closed = 1;
nodes = (
"1120 -190 LINE",
"345 1610 LINE",
"70 1610 LINE",
"845 -190 LINE"
);
}
);
width = 1200;
},
{
layerId = "8A5928CE-31B2-4F56-BC21-FB6F481DC46A";
paths = (
{
closed = 1;
nodes = (
"830 -190 LINE",
"234 1610 LINE",
"54 1610 LINE",
"649 -190 LINE"
);
}
);
width = 900;
},
{
layerId = "A3FCBCC7-55DF-4604-8A77-DC78C4EF6076";
paths = (
{
closed = 1;
nodes = (
"859 -190 LINE",
"291 1610 LINE",
"49 1610 LINE",
"621 -190 LINE"
);
}
);
width = 900;
},
{
layerId = "4AED55CC-054D-4448-879E-1FE49A52CF83";
paths = (
{
closed = 1;
nodes = (
"788 -190 LINE",
"135 1610 LINE",
"40 1610 LINE",
"694 -190 LINE"
);
}
);
width = 900;
}
);
unicode = 005C;
}
{
glyphname = bracketleft;
layers = (
{
layerId = m004;
paths = (
{
closed = 1;
nodes = (
"286 -214 LINE",
"286 1634 LINE",
"192 1634 LINE",
"192 -214 LINE"
);
},
{
closed = 1;
nodes = (
"510 -214 LINE",
"510 -124 LINE",
"266 -124 LINE",
"266 -214 LINE"
);
},
{
closed = 1;
nodes = (
"510 1544 LINE",
"510 1634 LINE",
"266 1634 LINE",
"266 1544 LINE"
);
}
);
width = 600;
},
{
layerId = m005;
paths = (
{
closed = 1;
nodes = (
"348 -214 LINE",
"348 1634 LINE",
"190 1634 LINE",
"190 -214 LINE"
);
},
{
closed = 1;
nodes = (
"510 -214 LINE",
"510 -54 LINE",
"328 -54 LINE",
"328 -214 LINE"
);
},
{
closed = 1;
nodes = (
"510 1474 LINE",
"510 1634 LINE",
"328 1634 LINE",
"328 1474 LINE"
);
}
);
width = 600;
},
{
layerId = m006;
paths = (
{
closed = 1;
nodes = (
"355 -214 LINE",
"355 1634 LINE",
"150 1634 LINE",
"150 -214 LINE"
);
},
{
closed = 1;
nodes = (
"510 -214 LINE",
"510 6 LINE",
"325 6 LINE",
"325 -214 LINE"
);
},
{
closed = 1;
nodes = (
"510 1414 LINE",
"510 1634 LINE",
"325 1634 LINE",
"325 1414 LINE"
);
}
);
width = 600;
},
{
layerId = m007;
paths = (
{
closed = 1;
nodes = (
"490 -214 LINE",
"490 1634 LINE",
"396 1634 LINE",
"396 -214 LINE"
);
},
{
closed = 1;
nodes = (
"974 -214 LINE",
"974 -124 LINE",
"470 -124 LINE",
"470 -214 LINE"
);
},
{
closed = 1;
nodes = (
"974 1544 LINE",
"974 1634 LINE",
"470 1634 LINE",
"470 1544 LINE"
);
}
);
width = 1200;
},
{
layerId = m008;
paths = (
{
closed = 1;
nodes = (
"580 -214 LINE",
"580 1634 LINE",
"372 1634 LINE",
"372 -214 LINE"
);
},
{
closed = 1;
nodes = (
"998 -214 LINE",
"998 -24 LINE",
"560 -24 LINE",
"560 -214 LINE"
);
},
{
closed = 1;
nodes = (
"998 1444 LINE",
"998 1634 LINE",
"560 1634 LINE",
"560 1444 LINE"
);
}
);
width = 1200;
},
{
layerId = m009;
paths = (
{
closed = 1;
nodes = (
"619 -214 LINE",
"619 1634 LINE",
"355 1634 LINE",
"355 -214 LINE"
);
},
{
closed = 1;
nodes = (
"1015 -214 LINE",
"1015 38 LINE",
"599 38 LINE",
"599 -214 LINE"
);
},
{
closed = 1;
nodes = (
"1015 1382 LINE",
"1015 1634 LINE",
"599 1634 LINE",
"599 1382 LINE"
);
}
);
width = 1200;
},
{
layerId = "8A5928CE-31B2-4F56-BC21-FB6F481DC46A";
paths = (
{
closed = 1;
nodes = (
"464 -214 LINE",
"464 1634 LINE",
"281 1634 LINE",
"281 -214 LINE"
);
},
{
closed = 1;
nodes = (
"754 -214 LINE",
"754 -39 LINE",
"444 -39 LINE",
"444 -214 LINE"
);
},
{
closed = 1;
nodes = (
"754 1459 LINE",
"754 1634 LINE",
"444 1634 LINE",
"444 1459 LINE"
);
}
);
width = 900;
},
{
layerId = "A3FCBCC7-55DF-4604-8A77-DC78C4EF6076";
paths = (
{
closed = 1;
nodes = (
"487 -214 LINE",
"487 1634 LINE",
"253 1634 LINE",
"253 -214 LINE"
);
},
{
closed = 1;
nodes = (
"763 -214 LINE",
"763 22 LINE",
"462 22 LINE",
"462 -214 LINE"
);
},
{
closed = 1;
nodes = (
"763 1398 LINE",
"763 1634 LINE",
"462 1634 LINE",
"462 1398 LINE"
);
}
);
width = 900;
},
{
layerId = "4AED55CC-054D-4448-879E-1FE49A52CF83";
paths = (
{
closed = 1;
nodes = (
"388 -214 LINE",
"388 1634 LINE",
"294 1634 LINE",
"294 -214 LINE"
);
},
{
closed = 1;
nodes = (
"742 -214 LINE",
"742 -124 LINE",
"368 -124 LINE",
"368 -214 LINE"
);
},
{
closed = 1;
nodes = (
"742 1544 LINE",
"742 1634 LINE",
"368 1634 LINE",
"368 1544 LINE"
);
}
);
width = 900;
}
);
unicode = 005B;
}
{
glyphname = underscore;
layers = (
{
layerId = m004;
paths = (
{
closed = 1;
nodes = (
"560 -90 LINE",
"560 0 LINE",
"40 0 LINE",
"40 -90 LINE"
);
}
);
width = 600;
},
{
layerId = m005;
paths = (
{
closed = 1;
nodes = (
"560 -160 LINE",
"560 0 LINE",
"40 0 LINE",
"40 -160 LINE"
);
}
);
width = 600;
},
{
layerId = m006;
paths = (
{
closed = 1;
nodes = (
"560 -220 LINE",
"560 0 LINE",
"40 0 LINE",
"40 -220 LINE"
);
}
);
width = 600;
},
{
layerId = m007;
paths = (
{
closed = 1;
nodes = (
"1100 -90 LINE",
"1100 0 LINE",
"100 0 LINE",
"100 -90 LINE"
);
}
);
width = 1200;
},
{
layerId = m008;
paths = (
{
closed = 1;
nodes = (
"1100 -186 LINE",
"1100 0 LINE",
"100 0 LINE",
"100 -186 LINE"
);
}
);
width = 1200;
},
{
layerId = m009;
paths = (
{
closed = 1;
nodes = (
"1100 -250 LINE",
"1100 0 LINE",
"100 0 LINE",
"100 -250 LINE"
);
}
);
width = 1200;
},
{
layerId = "8A5928CE-31B2-4F56-BC21-FB6F481DC46A";
paths = (
{
closed = 1;
nodes = (
"830 -173 LINE",
"830 0 LINE",
"70 0 LINE",
"70 -173 LINE"
);
}
);
width = 900;
},
{
layerId = "A3FCBCC7-55DF-4604-8A77-DC78C4EF6076";
paths = (
{
closed = 1;
nodes = (
"830 -235 LINE",
"830 0 LINE",
"70 0 LINE",
"70 -235 LINE"
);
}
);
width = 900;
},
{
layerId = "4AED55CC-054D-4448-879E-1FE49A52CF83";
paths = (
{
closed = 1;
nodes = (
"830 -90 LINE",
"830 0 LINE",
"70 0 LINE",
"70 -90 LINE"
);
}
);
width = 900;
}
);
unicode = 005F;
}
{
glyphname = j;
layers = (
{
anchors = (
{
name = bottom;
position = "{288, -480}";
},
{
name = top;
position = "{398, 1480}";
}
);
background = {
paths = (
{
closed = 1;
nodes = (
"-98 -468 LINE SMOOTH",
"264 -439 OFFCURVE",
"416 -284 OFFCURVE",
"416 94 CURVE SMOOTH",
"416 384 LINE",
"322 384 LINE",
"322 62 LINE SMOOTH",
"322 -227 OFFCURVE",
"204 -352 OFFCURVE",
"-78 -378 CURVE SMOOTH",
"-254 -394 LINE",
"-250 -480 LINE"
);
},
{
closed = 1;
nodes = (
"338 970 LINE",
"338 1060 LINE",
"-166 1060 LINE",
"-166 970 LINE"
);
},
{
closed = 1;
nodes = (
"416 350 LINE",
"416 1060 LINE",
"322 1060 LINE",
"322 350 LINE"
);
},
{
closed = 1;
nodes = (
"405 1323 OFFCURVE",
"450 1367 OFFCURVE",
"450 1422 CURVE SMOOTH",
"450 1477 OFFCURVE",
"405 1522 OFFCURVE",
"350 1522 CURVE SMOOTH",
"295 1522 OFFCURVE",
"250 1477 OFFCURVE",
"250 1422 CURVE SMOOTH",
"250 1367 OFFCURVE",
"295 1323 OFFCURVE",
"350 1323 CURVE SMOOTH"
);
}
);
};
layerId = m004;
paths = (
{
closed = 1;
nodes = (
"174 -468 LINE SMOOTH",
"370 -422 OFFCURVE",
"457 -338 OFFCURVE",
"457 -98 CURVE SMOOTH",
"457 384 LINE",
"362 384 LINE",
"362 -130 LINE SMOOTH",
"362 -289 OFFCURVE",
"296 -338 OFFCURVE",
"169 -376 CURVE SMOOTH",
"109 -394 LINE",
"123 -480 LINE"
);
},
{
closed = 1;
nodes = (
"457 350 LINE",
"457 1060 LINE",
"362 1060 LINE",
"362 350 LINE"
);
},
{
closed = 1;
nodes = (
"367 970 LINE",
"367 1060 LINE",
"148 1060 LINE",
"148 970 LINE"
);
},
{
closed = 1;
nodes = (
"449 1338 OFFCURVE",
"490 1379 OFFCURVE",
"490 1430 CURVE SMOOTH",
"490 1480 OFFCURVE",
"449 1522 OFFCURVE",
"398 1522 CURVE SMOOTH",
"347 1522 OFFCURVE",
"306 1480 OFFCURVE",
"306 1430 CURVE SMOOTH",
"306 1379 OFFCURVE",
"347 1338 OFFCURVE",
"398 1338 CURVE SMOOTH"
);
}
);
width = 600;
},
{
anchors = (
{
name = bottom;
position = "{287, -480}";
},
{
name = top;
position = "{363, 1480}";
}
);
background = {
paths = (
{
closed = 1;
nodes = (
"461 0 LINE",
"461 1000 LINE",
"307 1000 LINE",
"307 0 LINE"
);
},
{
closed = 1;
nodes = (
"316 0 LINE",
"316 170 LINE",
"133 170 LINE",
"133 0 LINE"
);
},
{
closed = 1;
nodes = (
"595 0 LINE",
"595 170 LINE",
"452 170 LINE",
"452 0 LINE"
);
},
{
closed = 1;
nodes = (
"461 890 LINE",
"461 1060 LINE",
"160 1060 LINE",
"160 890 LINE"
);
},
{
closed = 1;
nodes = (
"437 1257 OFFCURVE",
"495 1316 OFFCURVE",
"495 1389 CURVE SMOOTH",
"495 1461 OFFCURVE",
"437 1520 OFFCURVE",
"364 1520 CURVE SMOOTH",
"291 1520 OFFCURVE",
"233 1461 OFFCURVE",
"233 1389 CURVE SMOOTH",
"233 1316 OFFCURVE",
"291 1257 OFFCURVE",
"364 1257 CURVE SMOOTH"
);
}
);
};
layerId = m005;
paths = (
{
closed = 1;
nodes = (
"159 -471 LINE SMOOTH",
"381 -438 OFFCURVE",
"482 -289 OFFCURVE",
"482 94 CURVE SMOOTH",
"482 384 LINE",
"328 384 LINE",
"328 62 LINE SMOOTH",
"328 -163 OFFCURVE",
"283 -265 OFFCURVE",
"165 -293 CURVE SMOOTH",
"93 -310 LINE",
"98 -480 LINE"
);
},
{
closed = 1;
nodes = (
"482 350 LINE",
"482 1060 LINE",
"328 1060 LINE",
"328 350 LINE"
);
},
{
closed = 1;
nodes = (
"331 900 LINE",
"330 1060 LINE",
"125 1060 LINE",
"125 900 LINE"
);
},
{
closed = 1;
nodes = (
"457 1257 OFFCURVE",
"515 1316 OFFCURVE",
"515 1389 CURVE SMOOTH",
"515 1461 OFFCURVE",
"457 1520 OFFCURVE",
"384 1520 CURVE SMOOTH",
"311 1520 OFFCURVE",
"253 1461 OFFCURVE",
"253 1389 CURVE SMOOTH",
"253 1316 OFFCURVE",
"311 1257 OFFCURVE",
"384 1257 CURVE SMOOTH"
);
}
);
width = 600;
},
{
anchors = (
{
name = bottom;
position = "{286, -480}";
},
{
name = top;
position = "{367, 1480}";
}
);
background = {
paths = (
{
closed = 1;
nodes = (
"449 0 LINE",
"449 1000 LINE",
"249 1000 LINE",
"249 0 LINE"
);
},
{
closed = 1;
nodes = (
"258 0 LINE",
"258 220 LINE",
"82 220 LINE",
"82 0 LINE"
);
},
{
closed = 1;
nodes = (
"578 0 LINE",
"578 220 LINE",
"440 220 LINE",
"440 0 LINE"
);
},
{
closed = 1;
nodes = (
"449 840 LINE",
"449 1060 LINE",
"111 1060 LINE",
"111 840 LINE"
);
},
{
closed = 1;
nodes = (
"416 1255 OFFCURVE",
"476 1314 OFFCURVE",
"476 1402 CURVE SMOOTH",
"476 1489 OFFCURVE",
"416 1549 OFFCURVE",
"329 1549 CURVE SMOOTH",
"241 1549 OFFCURVE",
"182 1489 OFFCURVE",
"182 1402 CURVE SMOOTH",
"182 1314 OFFCURVE",
"241 1255 OFFCURVE",
"329 1255 CURVE SMOOTH"
);
}
);
};
layerId = m006;
paths = (
{
closed = 1;
nodes = (
"145 -468 LINE SMOOTH",
"401 -421 OFFCURVE",
"490 -292 OFFCURVE",
"490 33 CURVE SMOOTH",
"490 384 LINE",
"289 384 LINE",
"289 1 LINE SMOOTH",
"289 -165 OFFCURVE",
"254 -228 OFFCURVE",
"151 -246 CURVE SMOOTH",
"74 -260 LINE",
"80 -480 LINE"
);
},
{
closed = 1;
nodes = (
"490 350 LINE",
"490 1060 LINE",
"289 1060 LINE",
"289 350 LINE"
);
},
{
closed = 1;
nodes = (
"294 840 LINE",
"294 1060 LINE",
"108 1060 LINE",
"108 840 LINE"
);
},
{
closed = 1;
nodes = (
"456 1255 OFFCURVE",
"516 1314 OFFCURVE",
"516 1402 CURVE SMOOTH",
"516 1489 OFFCURVE",
"456 1549 OFFCURVE",
"369 1549 CURVE SMOOTH",
"281 1549 OFFCURVE",
"222 1489 OFFCURVE",
"222 1402 CURVE SMOOTH",
"222 1314 OFFCURVE",
"281 1255 OFFCURVE",
"369 1255 CURVE SMOOTH"
);
}
);
width = 600;
},
{
anchors = (
{
name = bottom;
position = "{558, -480}";
},
{
name = top;
position = "{798, 1480}";
}
);
layerId = m007;
paths = (
{
closed = 1;
nodes = (
"350 -468 LINE SMOOTH",
"712 -439 OFFCURVE",
"864 -284 OFFCURVE",
"864 94 CURVE SMOOTH",
"864 384 LINE",
"770 384 LINE",
"770 62 LINE SMOOTH",
"770 -227 OFFCURVE",
"652 -352 OFFCURVE",
"370 -378 CURVE SMOOTH",
"194 -394 LINE",
"198 -480 LINE"
);
},
{
closed = 1;
nodes = (
"864 350 LINE",
"864 1060 LINE",
"770 1060 LINE",
"770 350 LINE"
);
},
{
closed = 1;
nodes = (
"786 970 LINE",
"786 1060 LINE",
"282 1060 LINE",
"282 970 LINE"
);
},
{
closed = 1;
nodes = (
"853 1323 OFFCURVE",
"898 1367 OFFCURVE",
"898 1422 CURVE SMOOTH",
"898 1477 OFFCURVE",
"853 1522 OFFCURVE",
"798 1522 CURVE SMOOTH",
"743 1522 OFFCURVE",
"698 1477 OFFCURVE",
"698 1422 CURVE SMOOTH",
"698 1367 OFFCURVE",
"743 1323 OFFCURVE",
"798 1323 CURVE SMOOTH"
);
}
);
width = 1200;
},
{
anchors = (
{
name = bottom;
position = "{558, -480}";
},
{
name = top;
position = "{798, 1480}";
}
);
layerId = m008;
paths = (
{
closed = 1;
nodes = (
"350 -468 LINE SMOOTH",
"726 -441 OFFCURVE",
"888 -284 OFFCURVE",
"888 94 CURVE SMOOTH",
"888 384 LINE",
"676 384 LINE",
"676 62 LINE SMOOTH",
"676 -156 OFFCURVE",
"584 -255 OFFCURVE",
"370 -274 CURVE SMOOTH",
"170 -292 LINE",
"180 -480 LINE"
);
},
{
closed = 1;
nodes = (
"888 350 LINE",
"888 1060 LINE",
"676 1060 LINE",
"676 350 LINE"
);
},
{
closed = 1;
nodes = (
"692 874 LINE",
"692 1060 LINE",
"264 1060 LINE",
"264 874 LINE"
);
},
{
closed = 1;
nodes = (
"842 1228 OFFCURVE",
"908 1294 OFFCURVE",
"908 1376 CURVE SMOOTH",
"908 1458 OFFCURVE",
"842 1524 OFFCURVE",
"760 1524 CURVE SMOOTH",
"678 1524 OFFCURVE",
"612 1458 OFFCURVE",
"612 1376 CURVE SMOOTH",
"612 1294 OFFCURVE",
"678 1228 OFFCURVE",
"760 1228 CURVE SMOOTH"
);
}
);
width = 1200;
},
{
anchors = (
{
name = bottom;
position = "{558, -480}";
},
{
name = top;
position = "{798, 1480}";
}
);
layerId = m009;
paths = (
{
closed = 1;
nodes = (
"350 -468 LINE SMOOTH",
"738 -441 OFFCURVE",
"905 -284 OFFCURVE",
"905 94 CURVE SMOOTH",
"905 384 LINE",
"634 384 LINE",
"634 62 LINE SMOOTH",
"634 -113 OFFCURVE",
"555 -195 OFFCURVE",
"370 -207 CURVE SMOOTH",
"170 -220 LINE",
"180 -480 LINE"
);
},
{
closed = 1;
nodes = (
"905 350 LINE",
"905 1060 LINE",
"634 1060 LINE",
"634 350 LINE"
);
},
{
closed = 1;
nodes = (
"650 810 LINE",
"650 1060 LINE",
"264 1060 LINE",
"264 810 LINE"
);
},
{
closed = 1;
nodes = (
"855 1203 OFFCURVE",
"925 1273 OFFCURVE",
"925 1376 CURVE SMOOTH",
"925 1479 OFFCURVE",
"855 1549 OFFCURVE",
"752 1549 CURVE SMOOTH",
"649 1549 OFFCURVE",
"579 1479 OFFCURVE",
"579 1376 CURVE SMOOTH",
"579 1273 OFFCURVE",
"649 1203 OFFCURVE",
"752 1203 CURVE SMOOTH"
);
}
);
width = 1200;
},
{
anchors = (
{
name = bottom;
position = "{423, -480}";
},
{
name = top;
position = "{581, 1480}";
}
);
layerId = "8A5928CE-31B2-4F56-BC21-FB6F481DC46A";
paths = (
{
closed = 1;
nodes = (
"255 -469 LINE SMOOTH",
"554 -439 OFFCURVE",
"685 -286 OFFCURVE",
"685 94 CURVE SMOOTH",
"685 384 LINE",
"502 384 LINE",
"502 62 LINE SMOOTH",
"502 -159 OFFCURVE",
"434 -260 OFFCURVE",
"268 -283 CURVE SMOOTH",
"132 -301 LINE",
"139 -480 LINE"
);
},
{
closed = 1;
nodes = (
"685 350 LINE",
"685 1060 LINE",
"502 1060 LINE",
"502 350 LINE"
);
},
{
closed = 1;
nodes = (
"512 887 LINE",
"511 1060 LINE",
"195 1060 LINE",
"195 887 LINE"
);
},
{
closed = 1;
nodes = (
"650 1243 OFFCURVE",
"712 1305 OFFCURVE",
"712 1383 CURVE SMOOTH",
"712 1460 OFFCURVE",
"650 1522 OFFCURVE",
"572 1522 CURVE SMOOTH",
"495 1522 OFFCURVE",
"433 1460 OFFCURVE",
"433 1383 CURVE SMOOTH",
"433 1305 OFFCURVE",
"495 1243 OFFCURVE",
"572 1243 CURVE SMOOTH"
);
}
);
width = 900;
},
{
anchors = (
{
name = bottom;
position = "{422, -480}";
},
{
name = top;
position = "{583, 1480}";
}
);
layerId = "A3FCBCC7-55DF-4604-8A77-DC78C4EF6076";
paths = (
{
closed = 1;
nodes = (
"248 -468 LINE SMOOTH",
"570 -431 OFFCURVE",
"698 -288 OFFCURVE",
"698 64 CURVE SMOOTH",
"698 384 LINE",
"462 384 LINE",
"462 32 LINE SMOOTH",
"462 -139 OFFCURVE",
"405 -211 OFFCURVE",
"261 -226 CURVE SMOOTH",
"122 -240 LINE",
"130 -480 LINE"
);
},
{
closed = 1;
nodes = (
"698 350 LINE",
"698 1060 LINE",
"462 1060 LINE",
"462 350 LINE"
);
},
{
closed = 1;
nodes = (
"472 825 LINE",
"472 1060 LINE",
"186 1060 LINE",
"186 825 LINE"
);
},
{
closed = 1;
nodes = (
"656 1229 OFFCURVE",
"721 1294 OFFCURVE",
"721 1389 CURVE SMOOTH",
"721 1484 OFFCURVE",
"656 1549 OFFCURVE",
"561 1549 CURVE SMOOTH",
"465 1549 OFFCURVE",
"401 1484 OFFCURVE",
"401 1389 CURVE SMOOTH",
"401 1294 OFFCURVE",
"465 1229 OFFCURVE",
"561 1229 CURVE SMOOTH"
);
}
);
width = 900;
},
{
anchors = (
{
name = bottom;
position = "{423, -480}";
},
{
name = top;
position = "{598, 1480}";
}
);
layerId = "4AED55CC-054D-4448-879E-1FE49A52CF83";
paths = (
{
closed = 1;
nodes = (
"262 -468 LINE SMOOTH",
"541 -430 OFFCURVE",
"661 -311 OFFCURVE",
"661 -2 CURVE SMOOTH",
"661 384 LINE",
"566 384 LINE",
"566 -34 LINE SMOOTH",
"566 -258 OFFCURVE",
"474 -345 OFFCURVE",
"270 -377 CURVE SMOOTH",
"152 -394 LINE",
"161 -480 LINE"
);
},
{
closed = 1;
nodes = (
"661 350 LINE",
"661 1060 LINE",
"566 1060 LINE",
"566 350 LINE"
);
},
{
closed = 1;
nodes = (
"577 970 LINE",
"577 1060 LINE",
"215 1060 LINE",
"215 970 LINE"
);
},
{
closed = 1;
nodes = (
"651 1331 OFFCURVE",
"694 1373 OFFCURVE",
"694 1426 CURVE SMOOTH",
"694 1479 OFFCURVE",
"651 1522 OFFCURVE",
"598 1522 CURVE SMOOTH",
"545 1522 OFFCURVE",
"502 1479 OFFCURVE",
"502 1426 CURVE SMOOTH",
"502 1373 OFFCURVE",
"545 1331 OFFCURVE",
"598 1331 CURVE SMOOTH"
);
}
);
width = 900;
}
);
unicode = 006A;
}
{
glyphname = k;
layers = (
{
anchors = (
{
name = bottom;
position = "{310, 0}";
},
{
name = top;
position = "{149, 1500}";
}
);
layerId = m004;
paths = (
{
closed = 1;
nodes = (
"218 432 LINE SMOOTH",
"395 432 OFFCURVE",
"489 629 OFFCURVE",
"518 1060 CURVE",
"424 1060 LINE",
"400 665 OFFCURVE",
"341 522 OFFCURVE",
"202 522 CURVE SMOOTH",
"140 522 LINE",
"140 432 LINE"
);
},
{
closed = 1;
nodes = (
"196 0 LINE",
"196 1500 LINE",
"102 1500 LINE",
"102 0 LINE"
);
},
{
closed = 1;
nodes = (
"550 0 LINE",
"384 598 LINE",
"308 546 LINE",
"456 0 LINE"
);
}
);
width = 600;
},
{
anchors = (
{
name = bottom;
position = "{310, 0}";
},
{
name = top;
position = "{159, 1500}";
}
);
layerId = m005;
paths = (
{
closed = 1;
nodes = (
"241 402 LINE SMOOTH",
"415 402 OFFCURVE",
"521 614 OFFCURVE",
"550 1060 CURVE",
"396 1060 LINE",
"379 696 OFFCURVE",
"336 572 OFFCURVE",
"241 572 CURVE SMOOTH",
"187 572 LINE",
"187 402 LINE"
);
},
{
closed = 1;
nodes = (
"237 0 LINE",
"237 1500 LINE",
"83 1500 LINE",
"83 0 LINE"
);
},
{
closed = 1;
nodes = (
"583 0 LINE",
"441 598 LINE",
"312 516 LINE",
"429 0 LINE"
);
}
);
width = 600;
},
{
anchors = (
{
name = bottom;
position = "{310, 0}";
},
{
name = top;
position = "{154, 1500}";
}
);
layerId = m006;
paths = (
{
closed = 1;
nodes = (
"275 377 LINE SMOOTH",
"434 377 OFFCURVE",
"532 603 OFFCURVE",
"558 1060 CURVE",
"358 1060 LINE",
"345 728 OFFCURVE",
"314 607 OFFCURVE",
"240 607 CURVE SMOOTH",
"186 607 LINE",
"186 377 LINE"
);
},
{
closed = 1;
nodes = (
"250 0 LINE",
"250 1500 LINE",
"50 1500 LINE",
"50 0 LINE"
);
},
{
closed = 1;
nodes = (
"592 0 LINE",
"422 598 LINE",
"249 516 LINE",
"363 0 LINE"
);
}
);
width = 600;
},
{
anchors = (
{
name = bottom;
position = "{620, 0}";
},
{
name = top;
position = "{229, 1500}";
}
);
layerId = m007;
paths = (
{
closed = 1;
nodes = (
"370 432 LINE SMOOTH",
"778 432 OFFCURVE",
"980 620 OFFCURVE",
"1048 1060 CURVE",
"948 1060 LINE",
"883 666 OFFCURVE",
"725 522 OFFCURVE",
"350 522 CURVE SMOOTH",
"212 522 LINE",
"212 432 LINE"
);
},
{
closed = 1;
nodes = (
"278 0 LINE",
"278 1500 LINE",
"184 1500 LINE",
"184 0 LINE"
);
},
{
closed = 1;
nodes = (
"1116 0 LINE",
"776 598 LINE",
"698 546 LINE",
"1001 0 LINE"
);
}
);
width = 1200;
},
{
anchors = (
{
name = bottom;
position = "{620, 0}";
},
{
name = top;
position = "{264, 1500}";
}
);
layerId = m008;
paths = (
{
closed = 1;
nodes = (
"480 402 LINE SMOOTH",
"822 402 OFFCURVE",
"1016 618 OFFCURVE",
"1072 1060 CURVE",
"852 1060 LINE",
"806 717 OFFCURVE",
"694 592 OFFCURVE",
"430 592 CURVE SMOOTH",
"310 592 LINE",
"310 402 LINE"
);
},
{
closed = 1;
nodes = (
"372 0 LINE",
"372 1500 LINE",
"160 1500 LINE",
"160 0 LINE"
);
},
{
closed = 1;
nodes = (
"1140 0 LINE",
"776 598 LINE",
"576 516 LINE",
"878 0 LINE"
);
}
);
width = 1200;
},
{
anchors = (
{
name = bottom;
position = "{620, 0}";
},
{
name = top;
position = "{278, 1500}";
}
);
layerId = m009;
paths = (
{
closed = 1;
nodes = (
"480 377 LINE SMOOTH",
"832 377 OFFCURVE",
"1031 601 OFFCURVE",
"1089 1060 CURVE",
"810 1060 LINE",
"769 748 OFFCURVE",
"668 634 OFFCURVE",
"430 634 CURVE SMOOTH",
"310 634 LINE",
"310 377 LINE"
);
},
{
closed = 1;
nodes = (
"414 0 LINE",
"414 1500 LINE",
"143 1500 LINE",
"143 0 LINE"
);
},
{
closed = 1;
nodes = (
"1157 0 LINE",
"818 598 LINE",
"576 516 LINE",
"836 0 LINE"
);
}
);
width = 1200;
},
{
anchors = (
{
name = bottom;
position = "{465, 0}";
},
{
name = top;
position = "{212, 1500}";
}
);
layerId = "8A5928CE-31B2-4F56-BC21-FB6F481DC46A";
paths = (
{
closed = 1;
nodes = (
"361 402 LINE SMOOTH",
"619 402 OFFCURVE",
"769 616 OFFCURVE",
"811 1060 CURVE",
"624 1060 LINE",
"593 707 OFFCURVE",
"515 582 OFFCURVE",
"336 582 CURVE SMOOTH",
"249 582 LINE",
"249 402 LINE"
);
},
{
closed = 1;
nodes = (
"305 0 LINE",
"305 1500 LINE",
"122 1500 LINE",
"122 0 LINE"
);
},
{
closed = 1;
nodes = (
"862 0 LINE",
"609 598 LINE",
"444 516 LINE",
"654 0 LINE"
);
}
);
width = 900;
},
{
anchors = (
{
name = bottom;
position = "{465, 0}";
},
{
name = top;
position = "{216, 1500}";
}
);
layerId = "A3FCBCC7-55DF-4604-8A77-DC78C4EF6076";
paths = (
{
closed = 1;
nodes = (
"378 377 LINE SMOOTH",
"633 377 OFFCURVE",
"782 602 OFFCURVE",
"824 1060 CURVE",
"584 1060 LINE",
"557 738 OFFCURVE",
"491 621 OFFCURVE",
"335 621 CURVE SMOOTH",
"248 621 LINE",
"248 377 LINE"
);
},
{
closed = 1;
nodes = (
"332 0 LINE",
"332 1500 LINE",
"97 1500 LINE",
"97 0 LINE"
);
},
{
closed = 1;
nodes = (
"875 0 LINE",
"620 598 LINE",
"413 516 LINE",
"600 0 LINE"
);
}
);
width = 900;
},
{
anchors = (
{
name = bottom;
position = "{465, 0}";
},
{
name = top;
position = "{189, 1500}";
}
);
layerId = "4AED55CC-054D-4448-879E-1FE49A52CF83";
paths = (
{
closed = 1;
nodes = (
"294 432 LINE SMOOTH",
"587 432 OFFCURVE",
"735 625 OFFCURVE",
"783 1060 CURVE",
"686 1060 LINE",
"642 666 OFFCURVE",
"533 522 OFFCURVE",
"276 522 CURVE SMOOTH",
"176 522 LINE",
"176 432 LINE"
);
},
{
closed = 1;
nodes = (
"237 0 LINE",
"237 1500 LINE",
"143 1500 LINE",
"143 0 LINE"
);
},
{
closed = 1;
nodes = (
"833 0 LINE",
"580 598 LINE",
"503 546 LINE",
"729 0 LINE"
);
}
);
width = 900;
}
);
unicode = 006B;
}
{
glyphname = m;
layers = (
{
anchors = (
{
name = bottom;
position = "{300, 0}";
},
{
name = top;
position = "{300, 1060}";
}
);
layerId = m004;
paths = (
{
closed = 1;
nodes = (
"534 0 LINE",
"534 911 LINE SMOOTH",
"534 1022 OFFCURVE",
"502 1080 OFFCURVE",
"442 1080 CURVE SMOOTH",
"388 1080 OFFCURVE",
"355 1045 OFFCURVE",
"347 979 CURVE",
"297 979 LINE",
"336 857 LINE",
"336 947 OFFCURVE",
"353 988 OFFCURVE",
"390 988 CURVE SMOOTH",
"424 988 OFFCURVE",
"440 958 OFFCURVE",
"440 891 CURVE SMOOTH",
"440 0 LINE"
);
},
{
closed = 1;
nodes = (
"160 0 LINE",
"160 917 LINE",
"136 1060 LINE",
"66 1060 LINE",
"66 0 LINE"
);
},
{
closed = 1;
nodes = (
"336 0 LINE",
"336 916 LINE",
"336 931 LINE SMOOTH",
"336 1029 OFFCURVE",
"305 1080 OFFCURVE",
"245 1080 CURVE SMOOTH",
"199 1080 OFFCURVE",
"171 1045 OFFCURVE",
"164 979 CURVE",
"130 979 LINE",
"160 857 LINE",
"160 947 OFFCURVE",
"178 988 OFFCURVE",
"218 988 CURVE SMOOTH",
"249 988 OFFCURVE",
"264 964 OFFCURVE",
"264 911 CURVE SMOOTH",
"264 0 LINE"
);
}
);
width = 600;
},
{
anchors = (
{
name = bottom;
position = "{300, 0}";
},
{
name = top;
position = "{300, 1060}";
}
);
layerId = m005;
paths = (
{
closed = 1;
nodes = (
"548 0 LINE",
"548 891 LINE SMOOTH",
"548 1015 OFFCURVE",
"517 1080 OFFCURVE",
"457 1080 CURVE SMOOTH",
"400 1080 OFFCURVE",
"368 1035 OFFCURVE",
"363 948 CURVE",
"325 948 LINE",
"354 837 LINE",
"354 894 OFFCURVE",
"362 920 OFFCURVE",
"382 920 CURVE SMOOTH",
"397 920 OFFCURVE",
"404 905 OFFCURVE",
"404 871 CURVE SMOOTH",
"404 0 LINE"
);
},
{
closed = 1;
nodes = (
"196 0 LINE",
"196 856 LINE",
"182 1060 LINE",
"52 1060 LINE",
"52 0 LINE"
);
},
{
closed = 1;
nodes = (
"354 0 LINE",
"354 852 LINE",
"354 870 LINE SMOOTH",
"354 1008 OFFCURVE",
"328 1080 OFFCURVE",
"277 1080 CURVE SMOOTH",
"232 1080 OFFCURVE",
"206 1035 OFFCURVE",
"201 948 CURVE",
"177 948 LINE",
"196 837 LINE",
"196 894 OFFCURVE",
"204 920 OFFCURVE",
"223 920 CURVE SMOOTH",
"239 920 OFFCURVE",
"246 904 OFFCURVE",
"246 870 CURVE SMOOTH",
"246 0 LINE"
);
}
);
width = 600;
},
{
anchors = (
{
name = bottom;
position = "{300, 0}";
},
{
name = top;
position = "{300, 1060}";
}
);
layerId = m006;
paths = (
{
closed = 1;
nodes = (
"585 0 LINE",
"585 870 LINE SMOOTH",
"585 1008 OFFCURVE",
"547 1080 OFFCURVE",
"475 1080 CURVE SMOOTH",
"413 1080 OFFCURVE",
"379 1028 OFFCURVE",
"375 928 CURVE",
"333 928 LINE",
"344 780 LINE",
"344 812 OFFCURVE",
"353 828 OFFCURVE",
"371 828 CURVE SMOOTH",
"389 828 OFFCURVE",
"398 815 OFFCURVE",
"398 789 CURVE SMOOTH",
"398 0 LINE"
);
},
{
closed = 1;
nodes = (
"203 0 LINE",
"203 826 LINE",
"188 1060 LINE",
"15 1060 LINE",
"15 0 LINE"
);
},
{
closed = 1;
nodes = (
"344 0 LINE",
"344 870 LINE",
"359 921 LINE",
"359 1025 OFFCURVE",
"335 1080 OFFCURVE",
"289 1080 CURVE SMOOTH",
"243 1080 OFFCURVE",
"217 1028 OFFCURVE",
"212 928 CURVE",
"172 928 LINE",
"203 780 LINE",
"203 812 OFFCURVE",
"213 828 OFFCURVE",
"233 828 CURVE SMOOTH",
"251 828 OFFCURVE",
"260 815 OFFCURVE",
"260 789 CURVE SMOOTH",
"260 0 LINE"
);
}
);
width = 600;
},
{
anchors = (
{
name = bottom;
position = "{600, 0}";
},
{
name = top;
position = "{600, 1060}";
}
);
layerId = m007;
paths = (
{
closed = 1;
nodes = (
"1064 0 LINE",
"1064 830 LINE SMOOTH",
"1064 997 OFFCURVE",
"992 1080 OFFCURVE",
"848 1080 CURVE SMOOTH",
"733 1080 OFFCURVE",
"666 1030 OFFCURVE",
"645 928 CURVE",
"575 928 LINE",
"647 776 LINE",
"647 917 OFFCURVE",
"705 988 OFFCURVE",
"824 988 CURVE SMOOTH",
"924 988 OFFCURVE",
"970 930 OFFCURVE",
"970 810 CURVE SMOOTH",
"970 0 LINE"
);
},
{
closed = 1;
nodes = (
"230 0 LINE",
"230 836 LINE",
"216 1060 LINE",
"136 1060 LINE",
"136 0 LINE"
);
},
{
closed = 1;
nodes = (
"647 0 LINE",
"647 841 LINE",
"647 850 LINE SMOOTH",
"647 1004 OFFCURVE",
"579 1080 OFFCURVE",
"442 1080 CURVE SMOOTH",
"325 1080 OFFCURVE",
"255 1030 OFFCURVE",
"231 928 CURVE",
"168 928 LINE",
"230 776 LINE",
"230 917 OFFCURVE",
"289 988 OFFCURVE",
"406 988 CURVE SMOOTH",
"504 988 OFFCURVE",
"553 935 OFFCURVE",
"553 830 CURVE SMOOTH",
"553 0 LINE"
);
}
);
width = 1200;
},
{
anchors = (
{
name = bottom;
position = "{600, 0}";
},
{
name = top;
position = "{600, 1060}";
}
);
layerId = m008;
paths = (
{
closed = 1;
nodes = (
"1088 0 LINE",
"1088 830 LINE SMOOTH",
"1088 1006 OFFCURVE",
"1024 1080 OFFCURVE",
"878 1080 CURVE SMOOTH",
"766 1080 OFFCURVE",
"706 1010 OFFCURVE",
"700 928 CURVE",
"618 928 LINE",
"690 776 LINE",
"690 872 OFFCURVE",
"724 920 OFFCURVE",
"794 920 CURVE SMOOTH",
"850 920 OFFCURVE",
"876 884 OFFCURVE",
"876 810 CURVE SMOOTH",
"876 0 LINE"
);
},
{
closed = 1;
nodes = (
"324 0 LINE",
"324 836 LINE",
"300 1060 LINE",
"112 1060 LINE",
"112 0 LINE"
);
},
{
closed = 1;
nodes = (
"690 0 LINE",
"690 839 LINE",
"690 850 LINE SMOOTH",
"690 1004 OFFCURVE",
"622 1080 OFFCURVE",
"512 1080 CURVE SMOOTH",
"396 1080 OFFCURVE",
"338 1030 OFFCURVE",
"330 928 CURVE",
"262 928 LINE",
"324 776 LINE",
"324 872 OFFCURVE",
"358 920 OFFCURVE",
"426 920 CURVE SMOOTH",
"482 920 OFFCURVE",
"510 890 OFFCURVE",
"510 830 CURVE SMOOTH",
"510 0 LINE"
);
}
);
width = 1200;
},
{
anchors = (
{
name = bottom;
position = "{600, 0}";
},
{
name = top;
position = "{600, 1060}";
}
);
layerId = m009;
paths = (
{
closed = 1;
nodes = (
"1105 0 LINE",
"1105 830 LINE SMOOTH",
"1105 1006 OFFCURVE",
"1042 1080 OFFCURVE",
"899 1080 CURVE SMOOTH",
"797 1080 OFFCURVE",
"733 1023 OFFCURVE",
"721 928 CURVE",
"631 928 LINE",
"703 709 LINE",
"703 789 OFFCURVE",
"727 828 OFFCURVE",
"775 828 CURVE SMOOTH",
"818 828 OFFCURVE",
"839 792 OFFCURVE",
"839 718 CURVE SMOOTH",
"839 0 LINE"
);
},
{
closed = 1;
nodes = (
"362 0 LINE",
"362 836 LINE",
"338 1060 LINE",
"95 1060 LINE",
"95 0 LINE"
);
},
{
closed = 1;
nodes = (
"703 0 LINE",
"703 826 LINE",
"703 850 LINE SMOOTH",
"703 1004 OFFCURVE",
"640 1080 OFFCURVE",
"537 1080 CURVE SMOOTH",
"447 1080 OFFCURVE",
"390 1026 OFFCURVE",
"376 928 CURVE",
"300 928 LINE",
"362 709 LINE",
"362 789 OFFCURVE",
"387 828 OFFCURVE",
"438 828 CURVE SMOOTH",
"480 828 OFFCURVE",
"502 798 OFFCURVE",
"502 738 CURVE SMOOTH",
"502 0 LINE"
);
}
);
width = 1200;
},
{
anchors = (
{
name = bottom;
position = "{450, 0}";
},
{
name = top;
position = "{450, 1060}";
}
);
layerId = "8A5928CE-31B2-4F56-BC21-FB6F481DC46A";
paths = (
{
closed = 1;
nodes = (
"818 0 LINE",
"818 861 LINE SMOOTH",
"818 1011 OFFCURVE",
"771 1080 OFFCURVE",
"668 1080 CURVE SMOOTH",
"583 1080 OFFCURVE",
"537 1023 OFFCURVE",
"532 938 CURVE",
"472 938 LINE",
"522 807 LINE",
"522 883 OFFCURVE",
"543 920 OFFCURVE",
"588 920 CURVE SMOOTH",
"624 920 OFFCURVE",
"640 895 OFFCURVE",
"640 841 CURVE SMOOTH",
"640 0 LINE"
);
},
{
closed = 1;
nodes = (
"260 0 LINE",
"260 846 LINE",
"241 1060 LINE",
"82 1060 LINE",
"82 0 LINE"
);
},
{
closed = 1;
nodes = (
"522 0 LINE",
"522 846 LINE",
"522 860 LINE SMOOTH",
"522 1006 OFFCURVE",
"475 1080 OFFCURVE",
"395 1080 CURVE SMOOTH",
"314 1080 OFFCURVE",
"272 1033 OFFCURVE",
"266 938 CURVE",
"220 938 LINE",
"260 807 LINE",
"260 883 OFFCURVE",
"281 920 OFFCURVE",
"325 920 CURVE SMOOTH",
"361 920 OFFCURVE",
"378 897 OFFCURVE",
"378 850 CURVE SMOOTH",
"378 0 LINE"
);
}
);
width = 900;
},
{
anchors = (
{
name = bottom;
position = "{450, 0}";
},
{
name = top;
position = "{450, 1060}";
}
);
layerId = "A3FCBCC7-55DF-4604-8A77-DC78C4EF6076";
paths = (
{
closed = 1;
nodes = (
"845 0 LINE",
"845 850 LINE SMOOTH",
"845 1007 OFFCURVE",
"795 1080 OFFCURVE",
"687 1080 CURVE SMOOTH",
"605 1080 OFFCURVE",
"556 1026 OFFCURVE",
"548 928 CURVE",
"482 928 LINE",
"524 745 LINE",
"524 801 OFFCURVE",
"540 828 OFFCURVE",
"573 828 CURVE SMOOTH",
"604 828 OFFCURVE",
"619 804 OFFCURVE",
"619 754 CURVE SMOOTH",
"619 0 LINE"
);
},
{
closed = 1;
nodes = (
"283 0 LINE",
"283 831 LINE",
"263 1060 LINE",
"55 1060 LINE",
"55 0 LINE"
);
},
{
closed = 1;
nodes = (
"524 0 LINE",
"524 848 LINE",
"531 886 LINE",
"531 1015 OFFCURVE",
"488 1080 OFFCURVE",
"413 1080 CURVE SMOOTH",
"345 1080 OFFCURVE",
"304 1027 OFFCURVE",
"294 928 CURVE",
"236 928 LINE",
"283 745 LINE",
"283 801 OFFCURVE",
"300 828 OFFCURVE",
"336 828 CURVE SMOOTH",
"366 828 OFFCURVE",
"381 807 OFFCURVE",
"381 764 CURVE SMOOTH",
"381 0 LINE"
);
}
);
width = 900;
},
{
anchors = (
{
name = bottom;
position = "{450, 0}";
},
{
name = top;
position = "{450, 1060}";
}
);
layerId = "4AED55CC-054D-4448-879E-1FE49A52CF83";
paths = (
{
closed = 1;
nodes = (
"799 0 LINE",
"799 871 LINE SMOOTH",
"799 1010 OFFCURVE",
"747 1080 OFFCURVE",
"645 1080 CURVE SMOOTH",
"561 1080 OFFCURVE",
"511 1038 OFFCURVE",
"496 954 CURVE",
"436 954 LINE",
"492 817 LINE",
"492 932 OFFCURVE",
"529 988 OFFCURVE",
"607 988 CURVE SMOOTH",
"674 988 OFFCURVE",
"705 944 OFFCURVE",
"705 851 CURVE SMOOTH",
"705 0 LINE"
);
},
{
closed = 1;
nodes = (
"195 0 LINE",
"195 877 LINE",
"176 1060 LINE",
"101 1060 LINE",
"101 0 LINE"
);
},
{
closed = 1;
nodes = (
"492 0 LINE",
"492 879 LINE",
"492 891 LINE SMOOTH",
"492 1017 OFFCURVE",
"442 1080 OFFCURVE",
"344 1080 CURVE SMOOTH",
"262 1080 OFFCURVE",
"213 1038 OFFCURVE",
"198 954 CURVE",
"149 954 LINE",
"195 817 LINE",
"195 932 OFFCURVE",
"234 988 OFFCURVE",
"312 988 CURVE SMOOTH",
"377 988 OFFCURVE",
"409 950 OFFCURVE",
"409 871 CURVE SMOOTH",
"409 0 LINE"
);
}
);
width = 900;
}
);
unicode = 006D;
}
{
glyphname = o;
layers = (
{
anchors = (
{
name = bottom;
position = "{300, 0}";
},
{
name = center;
position = "{300, 530}";
},
{
name = ogonek;
position = "{300, 10}";
},
{
name = top;
position = "{300, 1060}";
},
{
name = topright;
position = "{485, 1060}";
}
);
layerId = m004;
paths = (
{
closed = 1;
nodes = (
"458 -20 OFFCURVE",
"530 153 OFFCURVE",
"530 530 CURVE SMOOTH",
"530 907 OFFCURVE",
"458 1080 OFFCURVE",
"300 1080 CURVE SMOOTH",
"142 1080 OFFCURVE",
"70 907 OFFCURVE",
"70 530 CURVE SMOOTH",
"70 153 OFFCURVE",
"142 -20 OFFCURVE",
"300 -20 CURVE SMOOTH"
);
},
{
closed = 1;
nodes = (
"208 72 OFFCURVE",
"166 216 OFFCURVE",
"166 530 CURVE SMOOTH",
"166 844 OFFCURVE",
"208 988 OFFCURVE",
"300 988 CURVE SMOOTH",
"392 988 OFFCURVE",
"434 844 OFFCURVE",
"434 530 CURVE SMOOTH",
"434 216 OFFCURVE",
"392 72 OFFCURVE",
"300 72 CURVE SMOOTH"
);
}
);
width = 600;
},
{
anchors = (
{
name = bottom;
position = "{300, 0}";
},
{
name = center;
position = "{300, 530}";
},
{
name = ogonek;
position = "{300, 10}";
},
{
name = top;
position = "{300, 1060}";
},
{
name = topright;
position = "{487, 1060}";
}
);
layerId = m005;
paths = (
{
closed = 1;
nodes = (
"471 -20 OFFCURVE",
"530 121 OFFCURVE",
"530 530 CURVE SMOOTH",
"530 939 OFFCURVE",
"471 1080 OFFCURVE",
"300 1080 CURVE SMOOTH",
"129 1080 OFFCURVE",
"70 939 OFFCURVE",
"70 530 CURVE SMOOTH",
"70 121 OFFCURVE",
"129 -20 OFFCURVE",
"300 -20 CURVE SMOOTH"
);
},
{
closed = 1;
nodes = (
"249 150 OFFCURVE",
"232 248 OFFCURVE",
"232 530 CURVE SMOOTH",
"232 812 OFFCURVE",
"249 910 OFFCURVE",
"300 910 CURVE SMOOTH",
"351 910 OFFCURVE",
"368 812 OFFCURVE",
"368 530 CURVE SMOOTH",
"368 248 OFFCURVE",
"351 150 OFFCURVE",
"300 150 CURVE SMOOTH"
);
}
);
width = 600;
},
{
anchors = (
{
name = bottom;
position = "{300, 0}";
},
{
name = center;
position = "{300, 530}";
},
{
name = ogonek;
position = "{300, 10}";
},
{
name = top;
position = "{300, 1060}";
},
{
name = topright;
position = "{497, 1060}";
}
);
layerId = m006;
paths = (
{
closed = 1;
nodes = (
"478 -20 OFFCURVE",
"560 153 OFFCURVE",
"560 530 CURVE SMOOTH",
"560 907 OFFCURVE",
"478 1080 OFFCURVE",
"300 1080 CURVE SMOOTH",
"122 1080 OFFCURVE",
"40 907 OFFCURVE",
"40 530 CURVE SMOOTH",
"40 153 OFFCURVE",
"122 -20 OFFCURVE",
"300 -20 CURVE SMOOTH"
);
},
{
closed = 1;
nodes = (
"262 200 OFFCURVE",
"245 303 OFFCURVE",
"245 530 CURVE SMOOTH",
"245 757 OFFCURVE",
"262 860 OFFCURVE",
"300 860 CURVE SMOOTH",
"338 860 OFFCURVE",
"355 757 OFFCURVE",
"355 530 CURVE SMOOTH",
"355 303 OFFCURVE",
"338 200 OFFCURVE",
"300 200 CURVE SMOOTH"
);
}
);
width = 600;
},
{
anchors = (
{
name = bottom;
position = "{600, 0}";
},
{
name = center;
position = "{600, 530}";
},
{
name = ogonek;
position = "{600, 10}";
},
{
name = top;
position = "{600, 1060}";
},
{
name = topright;
position = "{1017, 1060}";
}
);
layerId = m007;
paths = (
{
closed = 1;
nodes = (
"878 -20 OFFCURVE",
"1040 180 OFFCURVE",
"1040 530 CURVE SMOOTH",
"1040 880 OFFCURVE",
"878 1080 OFFCURVE",
"600 1080 CURVE SMOOTH",
"322 1080 OFFCURVE",
"160 880 OFFCURVE",
"160 530 CURVE SMOOTH",
"160 180 OFFCURVE",
"322 -20 OFFCURVE",
"600 -20 CURVE SMOOTH"
);
},
{
closed = 1;
nodes = (
"381 72 OFFCURVE",
"256 238 OFFCURVE",
"256 530 CURVE SMOOTH",
"256 822 OFFCURVE",
"381 988 OFFCURVE",
"600 988 CURVE SMOOTH",
"819 988 OFFCURVE",
"944 822 OFFCURVE",
"944 530 CURVE SMOOTH",
"944 238 OFFCURVE",
"819 72 OFFCURVE",
"600 72 CURVE SMOOTH"
);
}
);
width = 1200;
},
{
anchors = (
{
name = bottom;
position = "{600, 0}";
},
{
name = center;
position = "{600, 530}";
},
{
name = ogonek;
position = "{600, 10}";
},
{
name = top;
position = "{600, 1060}";
},
{
name = topright;
position = "{1017, 1060}";
}
);
layerId = m008;
paths = (
{
closed = 1;
nodes = (
"894 -20 OFFCURVE",
"1064 180 OFFCURVE",
"1064 530 CURVE SMOOTH",
"1064 880 OFFCURVE",
"894 1080 OFFCURVE",
"600 1080 CURVE SMOOTH",
"306 1080 OFFCURVE",
"136 880 OFFCURVE",
"136 530 CURVE SMOOTH",
"136 180 OFFCURVE",
"306 -20 OFFCURVE",
"600 -20 CURVE SMOOTH"
);
},
{
closed = 1;
nodes = (
"444 170 OFFCURVE",
"356 300 OFFCURVE",
"356 530 CURVE SMOOTH",
"356 760 OFFCURVE",
"444 890 OFFCURVE",
"600 890 CURVE SMOOTH",
"756 890 OFFCURVE",
"844 760 OFFCURVE",
"844 530 CURVE SMOOTH",
"844 300 OFFCURVE",
"756 170 OFFCURVE",
"600 170 CURVE SMOOTH"
);
}
);
width = 1200;
},
{
anchors = (
{
name = bottom;
position = "{600, 0}";
},
{
name = center;
position = "{600, 530}";
},
{
name = ogonek;
position = "{600, 10}";
},
{
name = top;
position = "{600, 1060}";
},
{
name = topright;
position = "{1017, 1060}";
}
);
layerId = m009;
paths = (
{
closed = 1;
nodes = (
"905 -20 OFFCURVE",
"1081 180 OFFCURVE",
"1081 530 CURVE SMOOTH",
"1081 880 OFFCURVE",
"905 1080 OFFCURVE",
"600 1080 CURVE SMOOTH",
"295 1080 OFFCURVE",
"119 880 OFFCURVE",
"119 530 CURVE SMOOTH",
"119 180 OFFCURVE",
"295 -20 OFFCURVE",
"600 -20 CURVE SMOOTH"
);
},
{
closed = 1;
nodes = (
"471 237 OFFCURVE",
"396 343 OFFCURVE",
"396 530 CURVE SMOOTH",
"396 718 OFFCURVE",
"471 823 OFFCURVE",
"600 823 CURVE SMOOTH",
"730 823 OFFCURVE",
"804 718 OFFCURVE",
"804 530 CURVE SMOOTH",
"804 343 OFFCURVE",
"730 237 OFFCURVE",
"600 237 CURVE SMOOTH"
);
}
);
width = 1200;
},
{
anchors = (
{
name = bottom;
position = "{450, 0}";
},
{
name = center;
position = "{450, 530}";
},
{
name = ogonek;
position = "{450, 10}";
},
{
name = top;
position = "{450, 1060}";
},
{
name = topright;
position = "{752, 1060}";
}
);
layerId = "8A5928CE-31B2-4F56-BC21-FB6F481DC46A";
paths = (
{
closed = 1;
nodes = (
"683 -20 OFFCURVE",
"797 151 OFFCURVE",
"797 530 CURVE SMOOTH",
"797 910 OFFCURVE",
"683 1080 OFFCURVE",
"450 1080 CURVE SMOOTH",
"218 1080 OFFCURVE",
"103 910 OFFCURVE",
"103 530 CURVE SMOOTH",
"103 151 OFFCURVE",
"218 -20 OFFCURVE",
"450 -20 CURVE SMOOTH"
);
},
{
closed = 1;
nodes = (
"347 160 OFFCURVE",
"294 274 OFFCURVE",
"294 530 CURVE SMOOTH",
"294 786 OFFCURVE",
"347 900 OFFCURVE",
"450 900 CURVE SMOOTH",
"554 900 OFFCURVE",
"606 786 OFFCURVE",
"606 530 CURVE SMOOTH",
"606 274 OFFCURVE",
"554 160 OFFCURVE",
"450 160 CURVE SMOOTH"
);
}
);
width = 900;
},
{
anchors = (
{
name = bottom;
position = "{450, 0}";
},
{
name = center;
position = "{450, 530}";
},
{
name = ogonek;
position = "{450, 10}";
},
{
name = top;
position = "{450, 1060}";
},
{
name = topright;
position = "{757, 1060}";
}
);
layerId = "A3FCBCC7-55DF-4604-8A77-DC78C4EF6076";
paths = (
{
closed = 1;
nodes = (
"692 -20 OFFCURVE",
"821 167 OFFCURVE",
"821 530 CURVE SMOOTH",
"821 894 OFFCURVE",
"692 1080 OFFCURVE",
"450 1080 CURVE SMOOTH",
"209 1080 OFFCURVE",
"80 894 OFFCURVE",
"80 530 CURVE SMOOTH",
"80 167 OFFCURVE",
"209 -20 OFFCURVE",
"450 -20 CURVE SMOOTH"
);
},
{
closed = 1;
nodes = (
"367 219 OFFCURVE",
"321 323 OFFCURVE",
"321 530 CURVE SMOOTH",
"321 738 OFFCURVE",
"367 842 OFFCURVE",
"450 842 CURVE SMOOTH",
"534 842 OFFCURVE",
"580 738 OFFCURVE",
"580 530 CURVE SMOOTH",
"580 323 OFFCURVE",
"534 219 OFFCURVE",
"450 219 CURVE SMOOTH"
);
}
);
width = 900;
},
{
anchors = (
{
name = bottom;
position = "{450, 0}";
},
{
name = center;
position = "{450, 530}";
},
{
name = ogonek;
position = "{450, 10}";
},
{
name = top;
position = "{450, 1060}";
},
{
name = topright;
position = "{751, 1060}";
}
);
layerId = "4AED55CC-054D-4448-879E-1FE49A52CF83";
paths = (
{
closed = 1;
nodes = (
"668 -20 OFFCURVE",
"785 167 OFFCURVE",
"785 530 CURVE SMOOTH",
"785 894 OFFCURVE",
"668 1080 OFFCURVE",
"450 1080 CURVE SMOOTH",
"232 1080 OFFCURVE",
"115 894 OFFCURVE",
"115 530 CURVE SMOOTH",
"115 167 OFFCURVE",
"232 -20 OFFCURVE",
"450 -20 CURVE SMOOTH"
);
},
{
closed = 1;
nodes = (
"295 72 OFFCURVE",
"211 227 OFFCURVE",
"211 530 CURVE SMOOTH",
"211 833 OFFCURVE",
"295 988 OFFCURVE",
"450 988 CURVE SMOOTH",
"606 988 OFFCURVE",
"689 833 OFFCURVE",
"689 530 CURVE SMOOTH",
"689 227 OFFCURVE",
"606 72 OFFCURVE",
"450 72 CURVE SMOOTH"
);
}
);
width = 900;
}
);
unicode = 006F;
}
{
glyphname = bar;
layers = (
{
layerId = m004;
paths = (
{
closed = 1;
nodes = (
"347 -310 LINE",
"347 1730 LINE",
"253 1730 LINE",
"253 -310 LINE"
);
}
);
width = 600;
},
{
layerId = m005;
paths = (
{
closed = 1;
nodes = (
"379 -310 LINE",
"379 1730 LINE",
"221 1730 LINE",
"221 -310 LINE"
);
}
);
width = 600;
},
{
layerId = m006;
paths = (
{
closed = 1;
nodes = (
"402 -310 LINE",
"402 1730 LINE",
"198 1730 LINE",
"198 -310 LINE"
);
}
);
width = 600;
},
{
layerId = m007;
paths = (
{
closed = 1;
nodes = (
"647 -310 LINE",
"647 1730 LINE",
"553 1730 LINE",
"553 -310 LINE"
);
}
);
width = 1200;
},
{
layerId = m008;
paths = (
{
closed = 1;
nodes = (
"704 -310 LINE",
"704 1730 LINE",
"496 1730 LINE",
"496 -310 LINE"
);
}
);
width = 1200;
},
{
layerId = m009;
paths = (
{
closed = 1;
nodes = (
"732 -310 LINE",
"732 1730 LINE",
"468 1730 LINE",
"468 -310 LINE"
);
}
);
width = 1200;
},
{
layerId = "8A5928CE-31B2-4F56-BC21-FB6F481DC46A";
paths = (
{
closed = 1;
nodes = (
"542 -310 LINE",
"542 1730 LINE",
"359 1730 LINE",
"359 -310 LINE"
);
}
);
width = 900;
},
{
layerId = "A3FCBCC7-55DF-4604-8A77-DC78C4EF6076";
paths = (
{
closed = 1;
nodes = (
"567 -310 LINE",
"567 1730 LINE",
"333 1730 LINE",
"333 -310 LINE"
);
}
);
width = 900;
},
{
layerId = "4AED55CC-054D-4448-879E-1FE49A52CF83";
paths = (
{
closed = 1;
nodes = (
"497 -310 LINE",
"497 1730 LINE",
"403 1730 LINE",
"403 -310 LINE"
);
}
);
width = 900;
}
);
unicode = 007C;
}
{
glyphname = braceleft;
layers = (
{
background = {
paths = (
{
closed = 1;
nodes = (
"384 -214 OFFCURVE",
"397 -207 OFFCURVE",
"411 -194 CURVE",
"404 -112 LINE",
"389 -120 OFFCURVE",
"377 -124 OFFCURVE",
"368 -124 CURVE SMOOTH",
"342 -124 OFFCURVE",
"319 -31 OFFCURVE",
"325 144 CURVE SMOOTH",
"329 257 OFFCURVE",
"350 363 OFFCURVE",
"350 488 CURVE SMOOTH",
"350 619 OFFCURVE",
"317 699 OFFCURVE",
"262 702 CURVE",
"262 710 LINE",
"317 713 OFFCURVE",
"350 795 OFFCURVE",
"350 942 CURVE SMOOTH",
"350 1062 OFFCURVE",
"329 1168 OFFCURVE",
"325 1287 CURVE SMOOTH",
"320 1447 OFFCURVE",
"341 1536 OFFCURVE",
"368 1536 CURVE SMOOTH",
"377 1536 OFFCURVE",
"389 1532 OFFCURVE",
"404 1524 CURVE",
"411 1606 LINE",
"397 1619 OFFCURVE",
"384 1626 OFFCURVE",
"362 1626 CURVE SMOOTH",
"302 1626 OFFCURVE",
"255 1505 OFFCURVE",
"264 1288 CURVE SMOOTH",
"269 1172 OFFCURVE",
"288 1065 OFFCURVE",
"288 938 CURVE SMOOTH",
"288 832 OFFCURVE",
"230 772 OFFCURVE",
"199 772 CURVE",
"199 640 LINE",
"232 640 OFFCURVE",
"288 607 OFFCURVE",
"288 492 CURVE SMOOTH",
"288 370 OFFCURVE",
"269 259 OFFCURVE",
"264 142 CURVE SMOOTH",
"255 -76 OFFCURVE",
"299 -214 OFFCURVE",
"362 -214 CURVE SMOOTH"
);
}
);
};
layerId = m004;
paths = (
{
closed = 1;
nodes = (
"469 -214 OFFCURVE",
"495 -206 OFFCURVE",
"520 -194 CURVE",
"507 -112 LINE",
"484 -119 OFFCURVE",
"461 -124 OFFCURVE",
"443 -124 CURVE SMOOTH",
"351 -124 OFFCURVE",
"297 -53 OFFCURVE",
"320 75 CURVE SMOOTH",
"344 211 OFFCURVE",
"396 338 OFFCURVE",
"396 488 CURVE SMOOTH",
"396 618 OFFCURVE",
"321 699 OFFCURVE",
"199 702 CURVE",
"199 710 LINE",
"321 713 OFFCURVE",
"396 796 OFFCURVE",
"396 942 CURVE SMOOTH",
"396 1090 OFFCURVE",
"347 1223 OFFCURVE",
"320 1365 CURVE SMOOTH",
"298 1475 OFFCURVE",
"351 1536 OFFCURVE",
"443 1536 CURVE SMOOTH",
"461 1536 OFFCURVE",
"483 1531 OFFCURVE",
"506 1524 CURVE",
"520 1606 LINE",
"495 1618 OFFCURVE",
"469 1626 OFFCURVE",
"425 1626 CURVE SMOOTH",
"287 1626 OFFCURVE",
"194 1533 OFFCURVE",
"224 1365 CURVE SMOOTH",
"249 1227 OFFCURVE",
"296 1093 OFFCURVE",
"296 938 CURVE SMOOTH",
"296 832 OFFCURVE",
"231 772 OFFCURVE",
"121 772 CURVE",
"121 640 LINE",
"234 640 OFFCURVE",
"296 607 OFFCURVE",
"296 492 CURVE SMOOTH",
"296 347 OFFCURVE",
"247 212 OFFCURVE",
"224 75 CURVE SMOOTH",
"192 -109 OFFCURVE",
"287 -214 OFFCURVE",
"425 -214 CURVE SMOOTH"
);
}
);
width = 600;
},
{
background = {
paths = (
{
closed = 1;
nodes = (
"903 -214 OFFCURVE",
"944 -206 OFFCURVE",
"982 -194 CURVE",
"969 -112 LINE",
"927 -119 OFFCURVE",
"887 -124 OFFCURVE",
"854 -124 CURVE SMOOTH",
"708 -124 OFFCURVE",
"590 -21 OFFCURVE",
"630 156 CURVE SMOOTH",
"654 264 OFFCURVE",
"716 367 OFFCURVE",
"716 488 CURVE SMOOTH",
"716 618 OFFCURVE",
"587 699 OFFCURVE",
"368 702 CURVE",
"368 710 LINE",
"587 713 OFFCURVE",
"716 796 OFFCURVE",
"716 942 CURVE SMOOTH",
"716 1058 OFFCURVE",
"657 1161 OFFCURVE",
"630 1274 CURVE SMOOTH",
"590 1439 OFFCURVE",
"708 1536 OFFCURVE",
"854 1536 CURVE SMOOTH",
"887 1536 OFFCURVE",
"926 1531 OFFCURVE",
"968 1524 CURVE",
"982 1606 LINE",
"944 1618 OFFCURVE",
"903 1626 OFFCURVE",
"836 1626 CURVE SMOOTH",
"644 1626 OFFCURVE",
"494 1498 OFFCURVE",
"534 1274 CURVE SMOOTH",
"554 1164 OFFCURVE",
"616 1060 OFFCURVE",
"616 938 CURVE SMOOTH",
"616 832 OFFCURVE",
"495 772 OFFCURVE",
"290 772 CURVE",
"290 640 LINE",
"501 640 OFFCURVE",
"616 607 OFFCURVE",
"616 492 CURVE SMOOTH",
"616 375 OFFCURVE",
"553 267 OFFCURVE",
"534 156 CURVE SMOOTH",
"494 -77 OFFCURVE",
"644 -214 OFFCURVE",
"836 -214 CURVE SMOOTH"
);
}
);
};
layerId = m005;
paths = (
{
closed = 1;
nodes = (
"469 -214 OFFCURVE",
"495 -206 OFFCURVE",
"520 -195 CURVE",
"507 -33 LINE",
"484 -40 OFFCURVE",
"461 -44 OFFCURVE",
"443 -44 CURVE SMOOTH",
"396 -44 OFFCURVE",
"367 -1 OFFCURVE",
"381 75 CURVE SMOOTH",
"405 211 OFFCURVE",
"457 338 OFFCURVE",
"457 488 CURVE SMOOTH",
"457 618 OFFCURVE",
"366 699 OFFCURVE",
"219 702 CURVE",
"219 710 LINE",
"366 713 OFFCURVE",
"457 796 OFFCURVE",
"457 942 CURVE SMOOTH",
"457 1090 OFFCURVE",
"408 1223 OFFCURVE",
"381 1365 CURVE SMOOTH",
"369 1424 OFFCURVE",
"396 1456 OFFCURVE",
"443 1456 CURVE SMOOTH",
"461 1456 OFFCURVE",
"483 1451 OFFCURVE",
"506 1444 CURVE",
"520 1606 LINE",
"495 1618 OFFCURVE",
"469 1626 OFFCURVE",
"425 1626 CURVE SMOOTH",
"285 1626 OFFCURVE",
"191 1533 OFFCURVE",
"221 1365 CURVE SMOOTH",
"246 1227 OFFCURVE",
"293 1093 OFFCURVE",
"293 938 CURVE SMOOTH",
"293 845 OFFCURVE",
"229 792 OFFCURVE",
"120 792 CURVE",
"120 620 LINE",
"232 620 OFFCURVE",
"293 591 OFFCURVE",
"293 492 CURVE SMOOTH",
"293 347 OFFCURVE",
"244 212 OFFCURVE",
"221 75 CURVE SMOOTH",
"189 -109 OFFCURVE",
"285 -214 OFFCURVE",
"425 -214 CURVE SMOOTH"
);
}
);
width = 600;
},
{
background = {
paths = (
{
closed = 1;
nodes = (
"401 -214 OFFCURVE",
"424 -206 OFFCURVE",
"444 -194 CURVE",
"431 47 LINE",
"419 41 OFFCURVE",
"408 37 OFFCURVE",
"399 37 CURVE SMOOTH",
"397 37 OFFCURVE",
"391 102 OFFCURVE",
"396 219 CURVE SMOOTH",
"400 305 OFFCURVE",
"419 390 OFFCURVE",
"419 488 CURVE SMOOTH",
"419 608 OFFCURVE",
"388 682 OFFCURVE",
"335 685 CURVE",
"335 727 LINE",
"388 730 OFFCURVE",
"419 807 OFFCURVE",
"419 942 CURVE SMOOTH",
"419 1035 OFFCURVE",
"402 1121 OFFCURVE",
"396 1209 CURVE SMOOTH",
"389 1317 OFFCURVE",
"397 1375 OFFCURVE",
"399 1375 CURVE SMOOTH",
"408 1375 OFFCURVE",
"420 1371 OFFCURVE",
"432 1365 CURVE",
"444 1606 LINE",
"424 1618 OFFCURVE",
"401 1626 OFFCURVE",
"365 1626 CURVE SMOOTH",
"278 1626 OFFCURVE",
"218 1492 OFFCURVE",
"232 1269 CURVE SMOOTH",
"238 1177 OFFCURVE",
"260 1088 OFFCURVE",
"260 985 CURVE SMOOTH",
"260 883 OFFCURVE",
"208 832 OFFCURVE",
"150 832 CURVE",
"150 580 LINE",
"207 580 OFFCURVE",
"260 538 OFFCURVE",
"260 445 CURVE SMOOTH",
"260 339 OFFCURVE",
"235 236 OFFCURVE",
"231 143 CURVE SMOOTH",
"222 -72 OFFCURVE",
"277 -214 OFFCURVE",
"365 -214 CURVE SMOOTH"
);
}
);
};
layerId = m006;
paths = (
{
closed = 1;
nodes = (
"469 -214 OFFCURVE",
"495 -206 OFFCURVE",
"520 -195 CURVE",
"507 28 LINE",
"484 21 OFFCURVE",
"461 17 OFFCURVE",
"443 17 CURVE SMOOTH",
"411 17 OFFCURVE",
"387 60 OFFCURVE",
"401 136 CURVE SMOOTH",
"422 251 OFFCURVE",
"457 360 OFFCURVE",
"457 488 CURVE SMOOTH",
"457 615 OFFCURVE",
"385 694 OFFCURVE",
"270 697 CURVE",
"270 715 LINE",
"385 718 OFFCURVE",
"457 799 OFFCURVE",
"457 942 CURVE SMOOTH",
"457 1069 OFFCURVE",
"424 1183 OFFCURVE",
"401 1304 CURVE SMOOTH",
"389 1363 OFFCURVE",
"411 1395 OFFCURVE",
"443 1395 CURVE SMOOTH",
"461 1395 OFFCURVE",
"483 1390 OFFCURVE",
"506 1383 CURVE",
"520 1606 LINE",
"495 1618 OFFCURVE",
"469 1626 OFFCURVE",
"425 1626 CURVE SMOOTH",
"253 1626 OFFCURVE",
"144 1534 OFFCURVE",
"175 1365 CURVE SMOOTH",
"198 1236 OFFCURVE",
"247 1112 OFFCURVE",
"247 968 CURVE SMOOTH",
"247 872 OFFCURVE",
"200 817 OFFCURVE",
"120 817 CURVE",
"120 595 LINE",
"202 595 OFFCURVE",
"247 565 OFFCURVE",
"247 462 CURVE SMOOTH",
"247 327 OFFCURVE",
"196 202 OFFCURVE",
"175 75 CURVE SMOOTH",
"142 -110 OFFCURVE",
"253 -214 OFFCURVE",
"425 -214 CURVE SMOOTH"
);
}
);
width = 600;
},
{
layerId = m007;
paths = (
{
closed = 1;
nodes = (
"903 -214 OFFCURVE",
"944 -206 OFFCURVE",
"982 -194 CURVE",
"969 -112 LINE",
"927 -119 OFFCURVE",
"887 -124 OFFCURVE",
"854 -124 CURVE SMOOTH",
"708 -124 OFFCURVE",
"598 -21 OFFCURVE",
"630 156 CURVE SMOOTH",
"650 266 OFFCURVE",
"716 367 OFFCURVE",
"716 488 CURVE SMOOTH",
"716 618 OFFCURVE",
"587 699 OFFCURVE",
"368 702 CURVE",
"368 710 LINE",
"587 713 OFFCURVE",
"716 796 OFFCURVE",
"716 942 CURVE SMOOTH",
"716 1058 OFFCURVE",
"652 1161 OFFCURVE",
"630 1274 CURVE SMOOTH",
"598 1439 OFFCURVE",
"708 1536 OFFCURVE",
"854 1536 CURVE SMOOTH",
"887 1536 OFFCURVE",
"926 1531 OFFCURVE",
"968 1524 CURVE",
"982 1606 LINE",
"944 1618 OFFCURVE",
"903 1626 OFFCURVE",
"836 1626 CURVE SMOOTH",
"644 1626 OFFCURVE",
"494 1498 OFFCURVE",
"534 1274 CURVE SMOOTH",
"554 1164 OFFCURVE",
"616 1060 OFFCURVE",
"616 938 CURVE SMOOTH",
"616 832 OFFCURVE",
"495 772 OFFCURVE",
"290 772 CURVE",
"290 640 LINE",
"501 640 OFFCURVE",
"616 607 OFFCURVE",
"616 492 CURVE SMOOTH",
"616 375 OFFCURVE",
"553 267 OFFCURVE",
"534 156 CURVE SMOOTH",
"494 -77 OFFCURVE",
"644 -214 OFFCURVE",
"836 -214 CURVE SMOOTH"
);
}
);
width = 1200;
},
{
background = {
paths = (
{
closed = 1;
nodes = (
"903 -214 OFFCURVE",
"944 -206 OFFCURVE",
"982 -194 CURVE",
"969 -112 LINE",
"927 -119 OFFCURVE",
"887 -124 OFFCURVE",
"854 -124 CURVE SMOOTH",
"708 -124 OFFCURVE",
"590 -21 OFFCURVE",
"630 156 CURVE SMOOTH",
"654 264 OFFCURVE",
"716 367 OFFCURVE",
"716 488 CURVE SMOOTH",
"716 618 OFFCURVE",
"587 699 OFFCURVE",
"368 702 CURVE",
"368 710 LINE",
"587 713 OFFCURVE",
"716 796 OFFCURVE",
"716 942 CURVE SMOOTH",
"716 1058 OFFCURVE",
"657 1161 OFFCURVE",
"630 1274 CURVE SMOOTH",
"590 1439 OFFCURVE",
"708 1536 OFFCURVE",
"854 1536 CURVE SMOOTH",
"887 1536 OFFCURVE",
"926 1531 OFFCURVE",
"968 1524 CURVE",
"982 1606 LINE",
"944 1618 OFFCURVE",
"903 1626 OFFCURVE",
"836 1626 CURVE SMOOTH",
"644 1626 OFFCURVE",
"494 1498 OFFCURVE",
"534 1274 CURVE SMOOTH",
"554 1164 OFFCURVE",
"616 1060 OFFCURVE",
"616 938 CURVE SMOOTH",
"616 832 OFFCURVE",
"495 772 OFFCURVE",
"290 772 CURVE",
"290 640 LINE",
"501 640 OFFCURVE",
"616 607 OFFCURVE",
"616 492 CURVE SMOOTH",
"616 375 OFFCURVE",
"553 267 OFFCURVE",
"534 156 CURVE SMOOTH",
"494 -77 OFFCURVE",
"644 -214 OFFCURVE",
"836 -214 CURVE SMOOTH"
);
}
);
};
layerId = m008;
paths = (
{
closed = 1;
nodes = (
"894 -214 OFFCURVE",
"942 -206 OFFCURVE",
"986 -194 CURVE",
"962 -20 LINE",
"915 -26 OFFCURVE",
"871 -30 OFFCURVE",
"834 -30 CURVE SMOOTH",
"739 -30 OFFCURVE",
"667 38 OFFCURVE",
"688 156 CURVE SMOOTH",
"708 269 OFFCURVE",
"774 367 OFFCURVE",
"774 488 CURVE SMOOTH",
"774 610 OFFCURVE",
"662 686 OFFCURVE",
"472 689 CURVE",
"472 723 LINE",
"662 726 OFFCURVE",
"774 804 OFFCURVE",
"774 942 CURVE SMOOTH",
"774 1058 OFFCURVE",
"708 1156 OFFCURVE",
"688 1274 CURVE SMOOTH",
"670 1380 OFFCURVE",
"739 1442 OFFCURVE",
"834 1442 CURVE SMOOTH",
"871 1442 OFFCURVE",
"915 1438 OFFCURVE",
"962 1432 CURVE",
"986 1606 LINE",
"942 1618 OFFCURVE",
"894 1626 OFFCURVE",
"816 1626 CURVE SMOOTH",
"599 1626 OFFCURVE",
"434 1496 OFFCURVE",
"474 1273 CURVE SMOOTH",
"494 1160 OFFCURVE",
"556 1060 OFFCURVE",
"556 938 CURVE SMOOTH",
"556 840 OFFCURVE",
"352 785 OFFCURVE",
"246 785 CURVE",
"246 627 LINE",
"356 627 OFFCURVE",
"556 597 OFFCURVE",
"556 492 CURVE SMOOTH",
"556 375 OFFCURVE",
"494 269 OFFCURVE",
"474 156 CURVE SMOOTH",
"433 -75 OFFCURVE",
"599 -214 OFFCURVE",
"816 -214 CURVE SMOOTH"
);
}
);
width = 1200;
},
{
layerId = m009;
paths = (
{
closed = 1;
nodes = (
"902 -214 OFFCURVE",
"955 -206 OFFCURVE",
"1003 -194 CURVE",
"979 47 LINE",
"941 41 OFFCURVE",
"905 37 OFFCURVE",
"876 37 CURVE SMOOTH",
"795 37 OFFCURVE",
"726 103 OFFCURVE",
"751 227 CURVE SMOOTH",
"768 310 OFFCURVE",
"827 393 OFFCURVE",
"827 488 CURVE SMOOTH",
"827 608 OFFCURVE",
"715 682 OFFCURVE",
"525 685 CURVE",
"525 727 LINE",
"715 730 OFFCURVE",
"827 807 OFFCURVE",
"827 942 CURVE SMOOTH",
"827 1033 OFFCURVE",
"772 1119 OFFCURVE",
"751 1203 CURVE SMOOTH",
"723 1315 OFFCURVE",
"795 1375 OFFCURVE",
"876 1375 CURVE SMOOTH",
"905 1375 OFFCURVE",
"941 1371 OFFCURVE",
"979 1365 CURVE",
"1003 1606 LINE",
"955 1618 OFFCURVE",
"902 1626 OFFCURVE",
"816 1626 CURVE SMOOTH",
"599 1626 OFFCURVE",
"434 1499 OFFCURVE",
"474 1274 CURVE SMOOTH",
"491 1179 OFFCURVE",
"556 1090 OFFCURVE",
"556 985 CURVE SMOOTH",
"556 883 OFFCURVE",
"431 832 OFFCURVE",
"229 832 CURVE",
"229 580 LINE",
"432 580 OFFCURVE",
"556 538 OFFCURVE",
"556 445 CURVE SMOOTH",
"556 344 OFFCURVE",
"490 251 OFFCURVE",
"474 156 CURVE SMOOTH",
"434 -78 OFFCURVE",
"599 -214 OFFCURVE",
"816 -214 CURVE SMOOTH"
);
}
);
width = 1200;
},
{
layerId = "8A5928CE-31B2-4F56-BC21-FB6F481DC46A";
paths = (
{
closed = 1;
nodes = (
"682 -214 OFFCURVE",
"719 -206 OFFCURVE",
"753 -194 CURVE",
"735 -26 LINE",
"700 -33 OFFCURVE",
"666 -37 OFFCURVE",
"639 -37 CURVE SMOOTH",
"568 -37 OFFCURVE",
"517 19 OFFCURVE",
"535 116 CURVE SMOOTH",
"557 240 OFFCURVE",
"616 353 OFFCURVE",
"616 488 CURVE SMOOTH",
"616 614 OFFCURVE",
"514 693 OFFCURVE",
"346 696 CURVE",
"346 717 LINE",
"514 720 OFFCURVE",
"616 800 OFFCURVE",
"616 942 CURVE SMOOTH",
"616 1074 OFFCURVE",
"558 1190 OFFCURVE",
"535 1320 CURVE SMOOTH",
"520 1402 OFFCURVE",
"568 1449 OFFCURVE",
"639 1449 CURVE SMOOTH",
"666 1449 OFFCURVE",
"699 1445 OFFCURVE",
"734 1438 CURVE",
"753 1606 LINE",
"719 1618 OFFCURVE",
"682 1626 OFFCURVE",
"621 1626 CURVE SMOOTH",
"442 1626 OFFCURVE",
"313 1515 OFFCURVE",
"348 1319 CURVE SMOOTH",
"370 1194 OFFCURVE",
"425 1077 OFFCURVE",
"425 938 CURVE SMOOTH",
"425 843 OFFCURVE",
"291 789 OFFCURVE",
"183 789 CURVE",
"183 624 LINE",
"294 624 OFFCURVE",
"425 594 OFFCURVE",
"425 492 CURVE SMOOTH",
"425 361 OFFCURVE",
"369 241 OFFCURVE",
"348 116 CURVE SMOOTH",
"311 -92 OFFCURVE",
"442 -214 OFFCURVE",
"621 -214 CURVE SMOOTH"
);
}
);
width = 900;
},
{
layerId = "A3FCBCC7-55DF-4604-8A77-DC78C4EF6076";
paths = (
{
closed = 1;
nodes = (
"686 -214 OFFCURVE",
"725 -206 OFFCURVE",
"762 -194 CURVE",
"743 38 LINE",
"713 31 OFFCURVE",
"683 27 OFFCURVE",
"660 27 CURVE SMOOTH",
"603 27 OFFCURVE",
"557 82 OFFCURVE",
"576 182 CURVE SMOOTH",
"595 281 OFFCURVE",
"642 377 OFFCURVE",
"642 488 CURVE SMOOTH",
"642 612 OFFCURVE",
"550 688 OFFCURVE",
"398 691 CURVE",
"398 721 LINE",
"550 724 OFFCURVE",
"642 803 OFFCURVE",
"642 942 CURVE SMOOTH",
"642 1051 OFFCURVE",
"598 1151 OFFCURVE",
"576 1254 CURVE SMOOTH",
"556 1339 OFFCURVE",
"603 1385 OFFCURVE",
"660 1385 CURVE SMOOTH",
"683 1385 OFFCURVE",
"712 1381 OFFCURVE",
"743 1374 CURVE",
"762 1606 LINE",
"725 1618 OFFCURVE",
"686 1626 OFFCURVE",
"621 1626 CURVE SMOOTH",
"426 1626 OFFCURVE",
"289 1517 OFFCURVE",
"325 1320 CURVE SMOOTH",
"345 1208 OFFCURVE",
"402 1101 OFFCURVE",
"402 977 CURVE SMOOTH",
"402 878 OFFCURVE",
"316 825 OFFCURVE",
"175 825 CURVE",
"175 588 LINE",
"317 588 OFFCURVE",
"402 552 OFFCURVE",
"402 454 CURVE SMOOTH",
"402 336 OFFCURVE",
"343 227 OFFCURVE",
"325 116 CURVE SMOOTH",
"288 -94 OFFCURVE",
"426 -214 OFFCURVE",
"621 -214 CURVE SMOOTH"
);
}
);
width = 900;
},
{
layerId = "4AED55CC-054D-4448-879E-1FE49A52CF83";
paths = (
{
closed = 1;
nodes = (
"686 -214 OFFCURVE",
"720 -206 OFFCURVE",
"751 -194 CURVE",
"738 -112 LINE",
"706 -119 OFFCURVE",
"674 -124 OFFCURVE",
"649 -124 CURVE SMOOTH",
"530 -124 OFFCURVE",
"448 -37 OFFCURVE",
"475 116 CURVE SMOOTH",
"497 239 OFFCURVE",
"556 353 OFFCURVE",
"556 488 CURVE SMOOTH",
"556 618 OFFCURVE",
"454 699 OFFCURVE",
"284 702 CURVE",
"284 710 LINE",
"454 713 OFFCURVE",
"556 796 OFFCURVE",
"556 942 CURVE SMOOTH",
"556 1074 OFFCURVE",
"500 1192 OFFCURVE",
"475 1320 CURVE SMOOTH",
"448 1457 OFFCURVE",
"530 1536 OFFCURVE",
"649 1536 CURVE SMOOTH",
"674 1536 OFFCURVE",
"705 1531 OFFCURVE",
"737 1524 CURVE",
"751 1606 LINE",
"720 1618 OFFCURVE",
"686 1626 OFFCURVE",
"631 1626 CURVE SMOOTH",
"466 1626 OFFCURVE",
"344 1516 OFFCURVE",
"379 1320 CURVE SMOOTH",
"402 1196 OFFCURVE",
"456 1077 OFFCURVE",
"456 938 CURVE SMOOTH",
"456 832 OFFCURVE",
"363 772 OFFCURVE",
"206 772 CURVE",
"206 640 LINE",
"368 640 OFFCURVE",
"456 607 OFFCURVE",
"456 492 CURVE SMOOTH",
"456 361 OFFCURVE",
"400 240 OFFCURVE",
"379 116 CURVE SMOOTH",
"343 -93 OFFCURVE",
"466 -214 OFFCURVE",
"631 -214 CURVE SMOOTH"
);
}
);
width = 900;
}
);
unicode = 007B;
}
{
glyphname = braceright;
layers = (
{
background = {
paths = (
{
closed = 1;
nodes = (
"556 -214 OFFCURVE",
"706 -77 OFFCURVE",
"666 156 CURVE SMOOTH",
"647 267 OFFCURVE",
"584 375 OFFCURVE",
"584 492 CURVE SMOOTH",
"584 607 OFFCURVE",
"699 640 OFFCURVE",
"910 640 CURVE",
"910 772 LINE",
"705 772 OFFCURVE",
"584 832 OFFCURVE",
"584 938 CURVE SMOOTH",
"584 1060 OFFCURVE",
"646 1164 OFFCURVE",
"666 1274 CURVE SMOOTH",
"706 1498 OFFCURVE",
"556 1626 OFFCURVE",
"364 1626 CURVE SMOOTH",
"297 1626 OFFCURVE",
"256 1618 OFFCURVE",
"218 1606 CURVE",
"232 1524 LINE",
"274 1531 OFFCURVE",
"313 1536 OFFCURVE",
"346 1536 CURVE SMOOTH",
"492 1536 OFFCURVE",
"610 1439 OFFCURVE",
"570 1274 CURVE SMOOTH",
"543 1161 OFFCURVE",
"484 1058 OFFCURVE",
"484 942 CURVE SMOOTH",
"484 796 OFFCURVE",
"613 713 OFFCURVE",
"832 710 CURVE",
"832 702 LINE",
"613 699 OFFCURVE",
"484 618 OFFCURVE",
"484 488 CURVE SMOOTH",
"484 367 OFFCURVE",
"546 264 OFFCURVE",
"570 156 CURVE SMOOTH",
"610 -21 OFFCURVE",
"492 -124 OFFCURVE",
"346 -124 CURVE SMOOTH",
"313 -124 OFFCURVE",
"273 -119 OFFCURVE",
"231 -112 CURVE",
"218 -194 LINE",
"256 -206 OFFCURVE",
"297 -214 OFFCURVE",
"364 -214 CURVE SMOOTH"
);
}
);
};
layerId = m004;
paths = (
{
closed = 1;
nodes = (
"313 -214 OFFCURVE",
"407 -109 OFFCURVE",
"376 75 CURVE SMOOTH",
"353 212 OFFCURVE",
"304 347 OFFCURVE",
"304 492 CURVE SMOOTH",
"304 607 OFFCURVE",
"366 640 OFFCURVE",
"479 640 CURVE",
"479 772 LINE",
"369 772 OFFCURVE",
"304 832 OFFCURVE",
"304 938 CURVE SMOOTH",
"304 1093 OFFCURVE",
"351 1227 OFFCURVE",
"376 1365 CURVE SMOOTH",
"406 1534 OFFCURVE",
"313 1626 OFFCURVE",
"175 1626 CURVE SMOOTH",
"131 1626 OFFCURVE",
"105 1618 OFFCURVE",
"80 1606 CURVE",
"94 1524 LINE",
"117 1531 OFFCURVE",
"139 1536 OFFCURVE",
"157 1536 CURVE SMOOTH",
"249 1536 OFFCURVE",
"301 1475 OFFCURVE",
"280 1365 CURVE SMOOTH",
"252 1223 OFFCURVE",
"204 1090 OFFCURVE",
"204 942 CURVE SMOOTH",
"204 796 OFFCURVE",
"279 713 OFFCURVE",
"401 710 CURVE",
"401 702 LINE",
"279 699 OFFCURVE",
"204 618 OFFCURVE",
"204 488 CURVE SMOOTH",
"204 338 OFFCURVE",
"255 211 OFFCURVE",
"280 75 CURVE SMOOTH",
"303 -53 OFFCURVE",
"249 -124 OFFCURVE",
"157 -124 CURVE SMOOTH",
"139 -124 OFFCURVE",
"116 -119 OFFCURVE",
"93 -112 CURVE",
"80 -194 LINE",
"105 -206 OFFCURVE",
"131 -214 OFFCURVE",
"175 -214 CURVE SMOOTH"
);
}
);
width = 600;
},
{
background = {
paths = (
{
closed = 1;
nodes = (
"603 -214 OFFCURVE",
"769 -75 OFFCURVE",
"728 156 CURVE SMOOTH",
"708 271 OFFCURVE",
"646 375 OFFCURVE",
"646 492 CURVE SMOOTH",
"646 597 OFFCURVE",
"846 627 OFFCURVE",
"956 627 CURVE",
"956 785 LINE",
"850 785 OFFCURVE",
"646 840 OFFCURVE",
"646 938 CURVE SMOOTH",
"646 1060 OFFCURVE",
"708 1159 OFFCURVE",
"728 1274 CURVE SMOOTH",
"768 1496 OFFCURVE",
"603 1626 OFFCURVE",
"386 1626 CURVE SMOOTH",
"308 1626 OFFCURVE",
"260 1618 OFFCURVE",
"216 1606 CURVE",
"240 1432 LINE",
"287 1438 OFFCURVE",
"331 1442 OFFCURVE",
"368 1442 CURVE SMOOTH",
"463 1442 OFFCURVE",
"532 1380 OFFCURVE",
"514 1274 CURVE SMOOTH",
"494 1156 OFFCURVE",
"428 1058 OFFCURVE",
"428 942 CURVE SMOOTH",
"428 804 OFFCURVE",
"540 726 OFFCURVE",
"730 723 CURVE",
"730 689 LINE",
"540 686 OFFCURVE",
"428 610 OFFCURVE",
"428 488 CURVE SMOOTH",
"428 367 OFFCURVE",
"494 269 OFFCURVE",
"514 156 CURVE SMOOTH",
"535 38 OFFCURVE",
"463 -30 OFFCURVE",
"368 -30 CURVE SMOOTH",
"331 -30 OFFCURVE",
"287 -26 OFFCURVE",
"240 -20 CURVE",
"216 -194 LINE",
"260 -206 OFFCURVE",
"308 -214 OFFCURVE",
"386 -214 CURVE SMOOTH"
);
}
);
};
layerId = m005;
paths = (
{
closed = 1;
nodes = (
"315 -214 OFFCURVE",
"411 -109 OFFCURVE",
"379 75 CURVE SMOOTH",
"356 212 OFFCURVE",
"307 347 OFFCURVE",
"307 492 CURVE SMOOTH",
"307 591 OFFCURVE",
"368 620 OFFCURVE",
"480 620 CURVE",
"480 792 LINE",
"371 792 OFFCURVE",
"307 845 OFFCURVE",
"307 938 CURVE SMOOTH",
"307 1093 OFFCURVE",
"354 1227 OFFCURVE",
"379 1365 CURVE SMOOTH",
"409 1533 OFFCURVE",
"315 1626 OFFCURVE",
"175 1626 CURVE SMOOTH",
"131 1626 OFFCURVE",
"105 1618 OFFCURVE",
"80 1606 CURVE",
"94 1444 LINE",
"117 1451 OFFCURVE",
"139 1456 OFFCURVE",
"157 1456 CURVE SMOOTH",
"204 1456 OFFCURVE",
"231 1424 OFFCURVE",
"219 1365 CURVE SMOOTH",
"192 1223 OFFCURVE",
"143 1090 OFFCURVE",
"143 942 CURVE SMOOTH",
"143 796 OFFCURVE",
"234 713 OFFCURVE",
"381 710 CURVE",
"381 702 LINE",
"234 699 OFFCURVE",
"143 618 OFFCURVE",
"143 488 CURVE SMOOTH",
"143 338 OFFCURVE",
"195 211 OFFCURVE",
"219 75 CURVE SMOOTH",
"233 -1 OFFCURVE",
"204 -44 OFFCURVE",
"157 -44 CURVE SMOOTH",
"139 -44 OFFCURVE",
"116 -40 OFFCURVE",
"93 -33 CURVE",
"80 -195 LINE",
"105 -206 OFFCURVE",
"131 -214 OFFCURVE",
"175 -214 CURVE SMOOTH"
);
}
);
width = 600;
},
{
background = {
paths = (
{
closed = 1;
nodes = (
"603 -214 OFFCURVE",
"768 -78 OFFCURVE",
"728 156 CURVE SMOOTH",
"712 251 OFFCURVE",
"646 344 OFFCURVE",
"646 445 CURVE SMOOTH",
"646 538 OFFCURVE",
"770 580 OFFCURVE",
"973 580 CURVE",
"973 832 LINE",
"771 832 OFFCURVE",
"646 883 OFFCURVE",
"646 985 CURVE SMOOTH",
"646 1090 OFFCURVE",
"711 1179 OFFCURVE",
"728 1274 CURVE SMOOTH",
"768 1499 OFFCURVE",
"603 1626 OFFCURVE",
"386 1626 CURVE SMOOTH",
"300 1626 OFFCURVE",
"247 1618 OFFCURVE",
"199 1606 CURVE",
"223 1365 LINE",
"261 1371 OFFCURVE",
"297 1375 OFFCURVE",
"326 1375 CURVE SMOOTH",
"407 1375 OFFCURVE",
"479 1315 OFFCURVE",
"451 1203 CURVE SMOOTH",
"430 1119 OFFCURVE",
"375 1033 OFFCURVE",
"375 942 CURVE SMOOTH",
"375 807 OFFCURVE",
"487 730 OFFCURVE",
"677 727 CURVE",
"677 685 LINE",
"487 682 OFFCURVE",
"375 608 OFFCURVE",
"375 488 CURVE SMOOTH",
"375 393 OFFCURVE",
"434 310 OFFCURVE",
"451 227 CURVE SMOOTH",
"476 103 OFFCURVE",
"407 37 OFFCURVE",
"326 37 CURVE SMOOTH",
"297 37 OFFCURVE",
"261 41 OFFCURVE",
"223 47 CURVE",
"199 -194 LINE",
"247 -206 OFFCURVE",
"300 -214 OFFCURVE",
"386 -214 CURVE SMOOTH"
);
}
);
};
layerId = m006;
paths = (
{
closed = 1;
nodes = (
"347 -214 OFFCURVE",
"458 -110 OFFCURVE",
"425 75 CURVE SMOOTH",
"404 202 OFFCURVE",
"353 327 OFFCURVE",
"353 462 CURVE SMOOTH",
"353 565 OFFCURVE",
"398 595 OFFCURVE",
"480 595 CURVE",
"480 817 LINE",
"400 817 OFFCURVE",
"353 872 OFFCURVE",
"353 968 CURVE SMOOTH",
"353 1112 OFFCURVE",
"402 1236 OFFCURVE",
"425 1365 CURVE SMOOTH",
"456 1534 OFFCURVE",
"347 1626 OFFCURVE",
"175 1626 CURVE SMOOTH",
"131 1626 OFFCURVE",
"105 1618 OFFCURVE",
"80 1606 CURVE",
"94 1383 LINE",
"117 1390 OFFCURVE",
"139 1395 OFFCURVE",
"157 1395 CURVE SMOOTH",
"189 1395 OFFCURVE",
"211 1363 OFFCURVE",
"199 1304 CURVE SMOOTH",
"176 1183 OFFCURVE",
"143 1069 OFFCURVE",
"143 942 CURVE SMOOTH",
"143 799 OFFCURVE",
"215 718 OFFCURVE",
"330 715 CURVE",
"330 697 LINE",
"215 694 OFFCURVE",
"143 615 OFFCURVE",
"143 488 CURVE SMOOTH",
"143 360 OFFCURVE",
"178 251 OFFCURVE",
"199 136 CURVE SMOOTH",
"213 60 OFFCURVE",
"189 17 OFFCURVE",
"157 17 CURVE SMOOTH",
"139 17 OFFCURVE",
"116 21 OFFCURVE",
"93 28 CURVE",
"80 -195 LINE",
"105 -206 OFFCURVE",
"131 -214 OFFCURVE",
"175 -214 CURVE SMOOTH"
);
}
);
width = 600;
},
{
background = {
paths = (
{
closed = 1;
nodes = (
"556 -214 OFFCURVE",
"706 -77 OFFCURVE",
"666 156 CURVE SMOOTH",
"647 267 OFFCURVE",
"584 375 OFFCURVE",
"584 492 CURVE SMOOTH",
"584 607 OFFCURVE",
"699 640 OFFCURVE",
"910 640 CURVE",
"910 772 LINE",
"705 772 OFFCURVE",
"584 832 OFFCURVE",
"584 938 CURVE SMOOTH",
"584 1060 OFFCURVE",
"646 1164 OFFCURVE",
"666 1274 CURVE SMOOTH",
"706 1498 OFFCURVE",
"556 1626 OFFCURVE",
"364 1626 CURVE SMOOTH",
"297 1626 OFFCURVE",
"256 1618 OFFCURVE",
"218 1606 CURVE",
"232 1524 LINE",
"274 1531 OFFCURVE",
"313 1536 OFFCURVE",
"346 1536 CURVE SMOOTH",
"492 1536 OFFCURVE",
"610 1439 OFFCURVE",
"570 1274 CURVE SMOOTH",
"543 1161 OFFCURVE",
"484 1058 OFFCURVE",
"484 942 CURVE SMOOTH",
"484 796 OFFCURVE",
"613 713 OFFCURVE",
"832 710 CURVE",
"832 702 LINE",
"613 699 OFFCURVE",
"484 618 OFFCURVE",
"484 488 CURVE SMOOTH",
"484 367 OFFCURVE",
"546 264 OFFCURVE",
"570 156 CURVE SMOOTH",
"610 -21 OFFCURVE",
"492 -124 OFFCURVE",
"346 -124 CURVE SMOOTH",
"313 -124 OFFCURVE",
"273 -119 OFFCURVE",
"231 -112 CURVE",
"218 -194 LINE",
"256 -206 OFFCURVE",
"297 -214 OFFCURVE",
"364 -214 CURVE SMOOTH"
);
}
);
};
layerId = m007;
paths = (
{
closed = 1;
nodes = (
"556 -214 OFFCURVE",
"706 -77 OFFCURVE",
"666 156 CURVE SMOOTH",
"647 267 OFFCURVE",
"584 375 OFFCURVE",
"584 492 CURVE SMOOTH",
"584 607 OFFCURVE",
"699 640 OFFCURVE",
"910 640 CURVE",
"910 772 LINE",
"705 772 OFFCURVE",
"584 832 OFFCURVE",
"584 938 CURVE SMOOTH",
"584 1060 OFFCURVE",
"646 1164 OFFCURVE",
"666 1274 CURVE SMOOTH",
"706 1498 OFFCURVE",
"556 1626 OFFCURVE",
"364 1626 CURVE SMOOTH",
"297 1626 OFFCURVE",
"256 1618 OFFCURVE",
"218 1606 CURVE",
"232 1524 LINE",
"274 1531 OFFCURVE",
"313 1536 OFFCURVE",
"346 1536 CURVE SMOOTH",
"492 1536 OFFCURVE",
"598 1439 OFFCURVE",
"570 1274 CURVE SMOOTH",
"551 1161 OFFCURVE",
"484 1058 OFFCURVE",
"484 942 CURVE SMOOTH",
"484 796 OFFCURVE",
"613 713 OFFCURVE",
"832 710 CURVE",
"832 702 LINE",
"613 699 OFFCURVE",
"484 618 OFFCURVE",
"484 488 CURVE SMOOTH",
"484 367 OFFCURVE",
"554 264 OFFCURVE",
"570 156 CURVE SMOOTH",
"596 -21 OFFCURVE",
"492 -124 OFFCURVE",
"346 -124 CURVE SMOOTH",
"313 -124 OFFCURVE",
"273 -119 OFFCURVE",
"231 -112 CURVE",
"218 -194 LINE",
"256 -206 OFFCURVE",
"297 -214 OFFCURVE",
"364 -214 CURVE SMOOTH"
);
}
);
width = 1200;
},
{
background = {
paths = (
{
closed = 1;
nodes = (
"603 -214 OFFCURVE",
"769 -75 OFFCURVE",
"728 156 CURVE SMOOTH",
"708 271 OFFCURVE",
"646 375 OFFCURVE",
"646 492 CURVE SMOOTH",
"646 597 OFFCURVE",
"846 627 OFFCURVE",
"956 627 CURVE",
"956 785 LINE",
"850 785 OFFCURVE",
"646 840 OFFCURVE",
"646 938 CURVE SMOOTH",
"646 1060 OFFCURVE",
"708 1159 OFFCURVE",
"728 1274 CURVE SMOOTH",
"768 1496 OFFCURVE",
"603 1626 OFFCURVE",
"386 1626 CURVE SMOOTH",
"308 1626 OFFCURVE",
"260 1618 OFFCURVE",
"216 1606 CURVE",
"240 1432 LINE",
"287 1438 OFFCURVE",
"331 1442 OFFCURVE",
"368 1442 CURVE SMOOTH",
"463 1442 OFFCURVE",
"532 1380 OFFCURVE",
"514 1274 CURVE SMOOTH",
"494 1156 OFFCURVE",
"428 1058 OFFCURVE",
"428 942 CURVE SMOOTH",
"428 804 OFFCURVE",
"540 726 OFFCURVE",
"730 723 CURVE",
"730 689 LINE",
"540 686 OFFCURVE",
"428 610 OFFCURVE",
"428 488 CURVE SMOOTH",
"428 367 OFFCURVE",
"494 269 OFFCURVE",
"514 156 CURVE SMOOTH",
"535 38 OFFCURVE",
"463 -30 OFFCURVE",
"368 -30 CURVE SMOOTH",
"331 -30 OFFCURVE",
"287 -26 OFFCURVE",
"240 -20 CURVE",
"216 -194 LINE",
"260 -206 OFFCURVE",
"308 -214 OFFCURVE",
"386 -214 CURVE SMOOTH"
);
}
);
};
layerId = m008;
paths = (
{
closed = 1;
nodes = (
"601 -214 OFFCURVE",
"767 -75 OFFCURVE",
"726 156 CURVE SMOOTH",
"706 269 OFFCURVE",
"644 375 OFFCURVE",
"644 492 CURVE SMOOTH",
"644 597 OFFCURVE",
"844 627 OFFCURVE",
"954 627 CURVE",
"954 785 LINE",
"848 785 OFFCURVE",
"644 840 OFFCURVE",
"644 938 CURVE SMOOTH",
"644 1060 OFFCURVE",
"706 1160 OFFCURVE",
"726 1273 CURVE SMOOTH",
"766 1496 OFFCURVE",
"601 1626 OFFCURVE",
"384 1626 CURVE SMOOTH",
"306 1626 OFFCURVE",
"258 1618 OFFCURVE",
"214 1606 CURVE",
"238 1432 LINE",
"285 1438 OFFCURVE",
"329 1442 OFFCURVE",
"366 1442 CURVE SMOOTH",
"461 1442 OFFCURVE",
"530 1380 OFFCURVE",
"512 1274 CURVE SMOOTH",
"492 1156 OFFCURVE",
"426 1058 OFFCURVE",
"426 942 CURVE SMOOTH",
"426 804 OFFCURVE",
"538 726 OFFCURVE",
"728 723 CURVE",
"728 689 LINE",
"538 686 OFFCURVE",
"426 610 OFFCURVE",
"426 488 CURVE SMOOTH",
"426 367 OFFCURVE",
"492 269 OFFCURVE",
"512 156 CURVE SMOOTH",
"533 38 OFFCURVE",
"461 -30 OFFCURVE",
"366 -30 CURVE SMOOTH",
"329 -30 OFFCURVE",
"285 -26 OFFCURVE",
"238 -20 CURVE",
"214 -194 LINE",
"258 -206 OFFCURVE",
"306 -214 OFFCURVE",
"384 -214 CURVE SMOOTH"
);
}
);
width = 1200;
},
{
background = {
paths = (
{
closed = 1;
nodes = (
"603 -214 OFFCURVE",
"768 -78 OFFCURVE",
"728 156 CURVE SMOOTH",
"712 251 OFFCURVE",
"646 344 OFFCURVE",
"646 445 CURVE SMOOTH",
"646 538 OFFCURVE",
"770 580 OFFCURVE",
"973 580 CURVE",
"973 832 LINE",
"771 832 OFFCURVE",
"646 883 OFFCURVE",
"646 985 CURVE SMOOTH",
"646 1090 OFFCURVE",
"711 1179 OFFCURVE",
"728 1274 CURVE SMOOTH",
"768 1499 OFFCURVE",
"603 1626 OFFCURVE",
"386 1626 CURVE SMOOTH",
"300 1626 OFFCURVE",
"247 1618 OFFCURVE",
"199 1606 CURVE",
"223 1365 LINE",
"261 1371 OFFCURVE",
"297 1375 OFFCURVE",
"326 1375 CURVE SMOOTH",
"407 1375 OFFCURVE",
"479 1315 OFFCURVE",
"451 1203 CURVE SMOOTH",
"430 1119 OFFCURVE",
"375 1033 OFFCURVE",
"375 942 CURVE SMOOTH",
"375 807 OFFCURVE",
"487 730 OFFCURVE",
"677 727 CURVE",
"677 685 LINE",
"487 682 OFFCURVE",
"375 608 OFFCURVE",
"375 488 CURVE SMOOTH",
"375 393 OFFCURVE",
"434 310 OFFCURVE",
"451 227 CURVE SMOOTH",
"476 103 OFFCURVE",
"407 37 OFFCURVE",
"326 37 CURVE SMOOTH",
"297 37 OFFCURVE",
"261 41 OFFCURVE",
"223 47 CURVE",
"199 -194 LINE",
"247 -206 OFFCURVE",
"300 -214 OFFCURVE",
"386 -214 CURVE SMOOTH"
);
}
);
};
layerId = m009;
paths = (
{
closed = 1;
nodes = (
"601 -214 OFFCURVE",
"766 -78 OFFCURVE",
"726 156 CURVE SMOOTH",
"710 251 OFFCURVE",
"644 344 OFFCURVE",
"644 445 CURVE SMOOTH",
"644 538 OFFCURVE",
"768 580 OFFCURVE",
"971 580 CURVE",
"971 832 LINE",
"769 832 OFFCURVE",
"644 883 OFFCURVE",
"644 985 CURVE SMOOTH",
"644 1090 OFFCURVE",
"709 1179 OFFCURVE",
"726 1274 CURVE SMOOTH",
"766 1499 OFFCURVE",
"601 1626 OFFCURVE",
"384 1626 CURVE SMOOTH",
"298 1626 OFFCURVE",
"245 1618 OFFCURVE",
"197 1606 CURVE",
"221 1365 LINE",
"259 1371 OFFCURVE",
"295 1375 OFFCURVE",
"324 1375 CURVE SMOOTH",
"405 1375 OFFCURVE",
"477 1315 OFFCURVE",
"449 1203 CURVE SMOOTH",
"428 1119 OFFCURVE",
"373 1033 OFFCURVE",
"373 942 CURVE SMOOTH",
"373 807 OFFCURVE",
"485 730 OFFCURVE",
"675 727 CURVE",
"675 685 LINE",
"485 682 OFFCURVE",
"373 608 OFFCURVE",
"373 488 CURVE SMOOTH",
"373 393 OFFCURVE",
"432 310 OFFCURVE",
"449 227 CURVE SMOOTH",
"474 103 OFFCURVE",
"405 37 OFFCURVE",
"324 37 CURVE SMOOTH",
"295 37 OFFCURVE",
"259 41 OFFCURVE",
"221 47 CURVE",
"197 -194 LINE",
"245 -206 OFFCURVE",
"298 -214 OFFCURVE",
"384 -214 CURVE SMOOTH"
);
}
);
width = 1200;
},
{
layerId = "8A5928CE-31B2-4F56-BC21-FB6F481DC46A";
paths = (
{
closed = 1;
nodes = (
"458 -214 OFFCURVE",
"589 -92 OFFCURVE",
"553 116 CURVE SMOOTH",
"531 241 OFFCURVE",
"476 361 OFFCURVE",
"476 492 CURVE SMOOTH",
"476 594 OFFCURVE",
"606 624 OFFCURVE",
"717 624 CURVE",
"717 789 LINE",
"610 789 OFFCURVE",
"476 843 OFFCURVE",
"476 938 CURVE SMOOTH",
"476 1077 OFFCURVE",
"530 1194 OFFCURVE",
"553 1319 CURVE SMOOTH",
"588 1515 OFFCURVE",
"458 1626 OFFCURVE",
"280 1626 CURVE SMOOTH",
"219 1626 OFFCURVE",
"182 1618 OFFCURVE",
"147 1606 CURVE",
"166 1438 LINE",
"201 1445 OFFCURVE",
"234 1449 OFFCURVE",
"262 1449 CURVE SMOOTH",
"333 1449 OFFCURVE",
"381 1402 OFFCURVE",
"366 1320 CURVE SMOOTH",
"342 1190 OFFCURVE",
"285 1074 OFFCURVE",
"285 942 CURVE SMOOTH",
"285 800 OFFCURVE",
"386 720 OFFCURVE",
"555 717 CURVE",
"555 696 LINE",
"386 693 OFFCURVE",
"285 614 OFFCURVE",
"285 488 CURVE SMOOTH",
"285 353 OFFCURVE",
"344 240 OFFCURVE",
"366 116 CURVE SMOOTH",
"383 19 OFFCURVE",
"333 -37 OFFCURVE",
"262 -37 CURVE SMOOTH",
"234 -37 OFFCURVE",
"201 -33 OFFCURVE",
"166 -26 CURVE",
"147 -194 LINE",
"182 -206 OFFCURVE",
"219 -214 OFFCURVE",
"280 -214 CURVE SMOOTH"
);
}
);
width = 900;
},
{
layerId = "A3FCBCC7-55DF-4604-8A77-DC78C4EF6076";
paths = (
{
closed = 1;
nodes = (
"474 -214 OFFCURVE",
"612 -94 OFFCURVE",
"576 116 CURVE SMOOTH",
"557 227 OFFCURVE",
"499 336 OFFCURVE",
"499 454 CURVE SMOOTH",
"499 552 OFFCURVE",
"583 588 OFFCURVE",
"726 588 CURVE",
"726 825 LINE",
"585 825 OFFCURVE",
"499 878 OFFCURVE",
"499 977 CURVE SMOOTH",
"499 1101 OFFCURVE",
"556 1208 OFFCURVE",
"576 1320 CURVE SMOOTH",
"611 1517 OFFCURVE",
"474 1626 OFFCURVE",
"280 1626 CURVE SMOOTH",
"215 1626 OFFCURVE",
"175 1618 OFFCURVE",
"139 1606 CURVE",
"158 1374 LINE",
"188 1381 OFFCURVE",
"217 1385 OFFCURVE",
"241 1385 CURVE SMOOTH",
"297 1385 OFFCURVE",
"344 1339 OFFCURVE",
"324 1254 CURVE SMOOTH",
"302 1151 OFFCURVE",
"258 1051 OFFCURVE",
"258 942 CURVE SMOOTH",
"258 803 OFFCURVE",
"350 724 OFFCURVE",
"503 721 CURVE",
"503 691 LINE",
"350 688 OFFCURVE",
"258 612 OFFCURVE",
"258 488 CURVE SMOOTH",
"258 377 OFFCURVE",
"305 281 OFFCURVE",
"324 182 CURVE SMOOTH",
"344 82 OFFCURVE",
"297 27 OFFCURVE",
"241 27 CURVE SMOOTH",
"217 27 OFFCURVE",
"188 31 OFFCURVE",
"157 38 CURVE",
"139 -194 LINE",
"175 -206 OFFCURVE",
"215 -214 OFFCURVE",
"280 -214 CURVE SMOOTH"
);
}
);
width = 900;
},
{
layerId = "4AED55CC-054D-4448-879E-1FE49A52CF83";
paths = (
{
closed = 1;
nodes = (
"435 -214 OFFCURVE",
"557 -93 OFFCURVE",
"521 116 CURVE SMOOTH",
"500 240 OFFCURVE",
"444 361 OFFCURVE",
"444 492 CURVE SMOOTH",
"444 607 OFFCURVE",
"533 640 OFFCURVE",
"695 640 CURVE",
"695 772 LINE",
"537 772 OFFCURVE",
"444 832 OFFCURVE",
"444 938 CURVE SMOOTH",
"444 1077 OFFCURVE",
"499 1196 OFFCURVE",
"521 1320 CURVE SMOOTH",
"556 1516 OFFCURVE",
"435 1626 OFFCURVE",
"270 1626 CURVE SMOOTH",
"214 1626 OFFCURVE",
"181 1618 OFFCURVE",
"149 1606 CURVE",
"163 1524 LINE",
"196 1531 OFFCURVE",
"226 1536 OFFCURVE",
"252 1536 CURVE SMOOTH",
"371 1536 OFFCURVE",
"450 1457 OFFCURVE",
"425 1320 CURVE SMOOTH",
"402 1192 OFFCURVE",
"344 1074 OFFCURVE",
"344 942 CURVE SMOOTH",
"344 796 OFFCURVE",
"446 713 OFFCURVE",
"617 710 CURVE",
"617 702 LINE",
"446 699 OFFCURVE",
"344 618 OFFCURVE",
"344 488 CURVE SMOOTH",
"344 353 OFFCURVE",
"405 238 OFFCURVE",
"425 116 CURVE SMOOTH",
"450 -37 OFFCURVE",
"371 -124 OFFCURVE",
"252 -124 CURVE SMOOTH",
"226 -124 OFFCURVE",
"195 -119 OFFCURVE",
"162 -112 CURVE",
"149 -194 LINE",
"181 -206 OFFCURVE",
"214 -214 OFFCURVE",
"270 -214 CURVE SMOOTH"
);
}
);
width = 900;
}
);
unicode = 007D;
}
{
glyphname = z;
layers = (
{
anchors = (
{
name = bottom;
position = "{300, 0}";
},
{
name = center;
position = "{300, 530}";
},
{
name = top;
position = "{300, 1060}";
}
);
layerId = m004;
paths = (
{
closed = 1;
nodes = (
"474 970 LINE",
"404 1025 LINE",
"118 90 LINE",
"188 33 LINE"
);
},
{
closed = 1;
nodes = (
"482 0 LINE",
"482 90 LINE",
"118 90 LINE",
"118 0 LINE"
);
},
{
closed = 1;
nodes = (
"474 970 LINE",
"474 1060 LINE",
"118 1060 LINE",
"118 970 LINE"
);
}
);
width = 600;
},
{
anchors = (
{
name = bottom;
position = "{300, 0}";
},
{
name = center;
position = "{300, 530}";
},
{
name = top;
position = "{300, 1060}";
}
);
layerId = m005;
paths = (
{
closed = 1;
nodes = (
"487 900 LINE",
"373 1000 LINE",
"104 160 LINE",
"227 56 LINE"
);
},
{
closed = 1;
nodes = (
"496 0 LINE",
"496 160 LINE",
"104 160 LINE",
"104 0 LINE"
);
},
{
closed = 1;
nodes = (
"487 900 LINE",
"487 1060 LINE",
"104 1060 LINE",
"104 900 LINE"
);
}
);
width = 600;
},
{
anchors = (
{
name = bottom;
position = "{300, 0}";
},
{
name = center;
position = "{300, 530}";
},
{
name = top;
position = "{300, 1060}";
}
);
layerId = m006;
paths = (
{
closed = 1;
nodes = (
"487 840 LINE",
"347 958 LINE",
"104 220 LINE",
"254 98 LINE"
);
},
{
closed = 1;
nodes = (
"496 0 LINE",
"496 220 LINE",
"104 220 LINE",
"104 0 LINE"
);
},
{
closed = 1;
nodes = (
"487 840 LINE",
"487 1060 LINE",
"104 1060 LINE",
"104 840 LINE"
);
}
);
width = 600;
},
{
anchors = (
{
name = bottom;
position = "{600, 0}";
},
{
name = center;
position = "{600, 530}";
},
{
name = top;
position = "{600, 1060}";
}
);
layerId = m007;
paths = (
{
closed = 1;
nodes = (
"992 970 LINE",
"927 1025 LINE",
"188 90 LINE",
"253 33 LINE"
);
},
{
closed = 1;
nodes = (
"1012 0 LINE",
"1012 90 LINE",
"188 90 LINE",
"188 0 LINE"
);
},
{
closed = 1;
nodes = (
"992 970 LINE",
"992 1060 LINE",
"188 1060 LINE",
"188 970 LINE"
);
}
);
width = 1200;
},
{
anchors = (
{
name = bottom;
position = "{600, 0}";
},
{
name = center;
position = "{600, 530}";
},
{
name = top;
position = "{600, 1060}";
}
);
layerId = m008;
paths = (
{
closed = 1;
nodes = (
"1016 872 LINE",
"870 990 LINE",
"164 188 LINE",
"310 66 LINE"
);
},
{
closed = 1;
nodes = (
"1036 0 LINE",
"1036 188 LINE",
"164 188 LINE",
"164 0 LINE"
);
},
{
closed = 1;
nodes = (
"1016 872 LINE",
"1016 1060 LINE",
"164 1060 LINE",
"164 872 LINE"
);
}
);
width = 1200;
},
{
anchors = (
{
name = bottom;
position = "{600, 0}";
},
{
name = center;
position = "{600, 530}";
},
{
name = top;
position = "{600, 1060}";
}
);
layerId = m009;
paths = (
{
closed = 1;
nodes = (
"1016 827 LINE",
"820 945 LINE",
"164 233 LINE",
"373 111 LINE"
);
},
{
closed = 1;
nodes = (
"1036 0 LINE",
"1036 233 LINE",
"164 233 LINE",
"164 0 LINE"
);
},
{
closed = 1;
nodes = (
"1016 827 LINE",
"1016 1060 LINE",
"164 1060 LINE",
"164 827 LINE"
);
}
);
width = 1200;
},
{
anchors = (
{
name = bottom;
position = "{450, 0}";
},
{
name = center;
position = "{450, 530}";
},
{
name = top;
position = "{450, 1060}";
}
);
layerId = "8A5928CE-31B2-4F56-BC21-FB6F481DC46A";
paths = (
{
closed = 1;
nodes = (
"752 886 LINE",
"622 995 LINE",
"134 174 LINE",
"269 61 LINE"
);
},
{
closed = 1;
nodes = (
"766 0 LINE",
"766 174 LINE",
"134 174 LINE",
"134 0 LINE"
);
},
{
closed = 1;
nodes = (
"752 886 LINE",
"752 1060 LINE",
"134 1060 LINE",
"134 886 LINE"
);
}
);
width = 900;
},
{
anchors = (
{
name = bottom;
position = "{450, 0}";
},
{
name = center;
position = "{450, 530}";
},
{
name = top;
position = "{450, 1060}";
}
);
layerId = "A3FCBCC7-55DF-4604-8A77-DC78C4EF6076";
paths = (
{
closed = 1;
nodes = (
"752 834 LINE",
"584 952 LINE",
"134 227 LINE",
"314 105 LINE"
);
},
{
closed = 1;
nodes = (
"766 0 LINE",
"766 227 LINE",
"134 227 LINE",
"134 0 LINE"
);
},
{
closed = 1;
nodes = (
"752 834 LINE",
"752 1060 LINE",
"134 1060 LINE",
"134 834 LINE"
);
}
);
width = 900;
},
{
anchors = (
{
name = bottom;
position = "{450, 0}";
},
{
name = center;
position = "{450, 530}";
},
{
name = top;
position = "{450, 1060}";
}
);
layerId = "4AED55CC-054D-4448-879E-1FE49A52CF83";
paths = (
{
closed = 1;
nodes = (
"733 970 LINE",
"666 1025 LINE",
"153 90 LINE",
"221 33 LINE"
);
},
{
closed = 1;
nodes = (
"747 0 LINE",
"747 90 LINE",
"153 90 LINE",
"153 0 LINE"
);
},
{
closed = 1;
nodes = (
"733 970 LINE",
"733 1060 LINE",
"153 1060 LINE",
"153 970 LINE"
);
}
);
width = 900;
}
);
unicode = 007A;
}
{
glyphname = numbersign;
layers = (
{
layerId = m004;
paths = (
{
closed = 1;
nodes = (
"404 0 LINE",
"462 1420 LINE",
"373 1420 LINE",
"355 976 LINE",
"358 952 LINE",
"339 480 LINE",
"334 456 LINE",
"315 0 LINE"
);
},
{
closed = 1;
nodes = (
"536 419 LINE",
"536 509 LINE",
"64 509 LINE",
"64 419 LINE"
);
},
{
closed = 1;
nodes = (
"227 0 LINE",
"246 464 LINE",
"243 485 LINE",
"262 951 LINE",
"267 970 LINE",
"285 1420 LINE",
"196 1420 LINE",
"138 0 LINE"
);
},
{
closed = 1;
nodes = (
"536 910 LINE",
"536 1000 LINE",
"64 1000 LINE",
"64 910 LINE"
);
}
);
width = 600;
},
{
layerId = m005;
paths = (
{
closed = 1;
nodes = (
"453 0 LINE",
"512 1420 LINE",
"378 1420 LINE",
"361 1012 LINE",
"359 962 LINE",
"339 480 LINE",
"337 433 LINE",
"319 0 LINE"
);
},
{
closed = 1;
nodes = (
"580 360 LINE",
"580 520 LINE",
"20 520 LINE",
"20 360 LINE"
);
},
{
closed = 1;
nodes = (
"222 0 LINE",
"240 432 LINE",
"242 486 LINE",
"262 973 LINE",
"264 1013 LINE",
"281 1420 LINE",
"147 1420 LINE",
"88 0 LINE"
);
},
{
closed = 1;
nodes = (
"580 900 LINE",
"580 1060 LINE",
"20 1060 LINE",
"20 900 LINE"
);
}
);
width = 600;
},
{
layerId = m006;
paths = (
{
closed = 1;
nodes = (
"478 0 LINE",
"539 1420 LINE",
"358 1420 LINE",
"340 1013 LINE",
"357 946 LINE",
"336 459 LINE",
"314 409 LINE",
"296 0 LINE"
);
},
{
closed = 1;
nodes = (
"597 310 LINE",
"597 530 LINE",
"3 530 LINE",
"3 310 LINE"
);
},
{
closed = 1;
nodes = (
"242 0 LINE",
"260 413 LINE",
"242 453 LINE",
"264 976 LINE",
"286 1016 LINE",
"304 1420 LINE",
"122 1420 LINE",
"61 0 LINE"
);
},
{
closed = 1;
nodes = (
"597 890 LINE",
"597 1110 LINE",
"3 1110 LINE",
"3 890 LINE"
);
}
);
width = 600;
},
{
layerId = m007;
paths = (
{
closed = 1;
nodes = (
"808 0 LINE",
"928 1420 LINE",
"838 1420 LINE",
"800 973 LINE",
"798 948 LINE",
"759 489 LINE",
"757 463 LINE",
"718 0 LINE"
);
},
{
closed = 1;
nodes = (
"1076 419 LINE",
"1076 509 LINE",
"124 509 LINE",
"124 419 LINE"
);
},
{
closed = 1;
nodes = (
"362 0 LINE",
"402 470 LINE",
"403 487 LINE",
"442 946 LINE",
"445 978 LINE",
"482 1420 LINE",
"392 1420 LINE",
"272 0 LINE"
);
},
{
closed = 1;
nodes = (
"1076 911 LINE",
"1076 1001 LINE",
"124 1001 LINE",
"124 911 LINE"
);
}
);
width = 1200;
},
{
layerId = m008;
paths = (
{
closed = 1;
nodes = (
"846 0 LINE",
"966 1420 LINE",
"790 1420 LINE",
"756 1016 LINE",
"751 960 LINE",
"710 477 LINE",
"707 440 LINE",
"670 0 LINE"
);
},
{
closed = 1;
nodes = (
"1100 360 LINE",
"1100 530 LINE",
"100 530 LINE",
"100 360 LINE"
);
},
{
closed = 1;
nodes = (
"410 0 LINE",
"448 442 LINE",
"451 480 LINE",
"492 972 LINE",
"495 1005 LINE",
"530 1420 LINE",
"354 1420 LINE",
"234 0 LINE"
);
},
{
closed = 1;
nodes = (
"1100 890 LINE",
"1100 1060 LINE",
"100 1060 LINE",
"100 890 LINE"
);
}
);
width = 1200;
},
{
layerId = m009;
paths = (
{
closed = 1;
nodes = (
"871 0 LINE",
"991 1420 LINE",
"748 1420 LINE",
"715 1028 LINE",
"711 976 LINE",
"670 493 LINE",
"666 442 LINE",
"628 0 LINE"
);
},
{
closed = 1;
nodes = (
"1117 310 LINE",
"1117 558 LINE",
"83 558 LINE",
"83 310 LINE"
);
},
{
closed = 1;
nodes = (
"452 0 LINE",
"490 447 LINE",
"494 492 LINE",
"535 979 LINE",
"539 1027 LINE",
"572 1420 LINE",
"329 1420 LINE",
"209 0 LINE"
);
},
{
closed = 1;
nodes = (
"1117 862 LINE",
"1117 1110 LINE",
"83 1110 LINE",
"83 862 LINE"
);
}
);
width = 1200;
},
{
layerId = "8A5928CE-31B2-4F56-BC21-FB6F481DC46A";
paths = (
{
closed = 1;
nodes = (
"650 0 LINE",
"739 1420 LINE",
"584 1420 LINE",
"559 1014 LINE",
"555 961 LINE",
"525 479 LINE",
"522 437 LINE",
"495 0 LINE"
);
},
{
closed = 1;
nodes = (
"840 360 LINE",
"840 525 LINE",
"60 525 LINE",
"60 360 LINE"
);
},
{
closed = 1;
nodes = (
"316 0 LINE",
"344 437 LINE",
"347 483 LINE",
"377 973 LINE",
"380 1009 LINE",
"406 1420 LINE",
"251 1420 LINE",
"161 0 LINE"
);
},
{
closed = 1;
nodes = (
"840 895 LINE",
"840 1060 LINE",
"60 1060 LINE",
"60 895 LINE"
);
}
);
width = 900;
},
{
layerId = "A3FCBCC7-55DF-4604-8A77-DC78C4EF6076";
paths = (
{
closed = 1;
nodes = (
"675 0 LINE",
"765 1420 LINE",
"553 1420 LINE",
"528 1021 LINE",
"534 961 LINE",
"503 476 LINE",
"490 426 LINE",
"462 0 LINE"
);
},
{
closed = 1;
nodes = (
"857 310 LINE",
"857 544 LINE",
"43 544 LINE",
"43 310 LINE"
);
},
{
closed = 1;
nodes = (
"347 0 LINE",
"375 430 LINE",
"368 473 LINE",
"400 978 LINE",
"413 1022 LINE",
"438 1420 LINE",
"226 1420 LINE",
"135 0 LINE"
);
},
{
closed = 1;
nodes = (
"857 876 LINE",
"857 1110 LINE",
"43 1110 LINE",
"43 876 LINE"
);
}
);
width = 900;
},
{
layerId = "4AED55CC-054D-4448-879E-1FE49A52CF83";
paths = (
{
closed = 1;
nodes = (
"606 0 LINE",
"695 1420 LINE",
"606 1420 LINE",
"578 975 LINE",
"578 950 LINE",
"549 485 LINE",
"546 460 LINE",
"517 0 LINE"
);
},
{
closed = 1;
nodes = (
"806 419 LINE",
"806 509 LINE",
"94 509 LINE",
"94 419 LINE"
);
},
{
closed = 1;
nodes = (
"295 0 LINE",
"324 467 LINE",
"323 486 LINE",
"352 949 LINE",
"356 974 LINE",
"384 1420 LINE",
"294 1420 LINE",
"205 0 LINE"
);
},
{
closed = 1;
nodes = (
"806 911 LINE",
"806 1001 LINE",
"94 1001 LINE",
"94 911 LINE"
);
}
);
width = 900;
}
);
unicode = 0023;
}
{
glyphname = dollar;
layers = (
{
components = (
{
name = S;
}
);
layerId = m004;
paths = (
{
closed = 1;
nodes = (
"355 -320 LINE",
"355 1740 LINE",
"261 1740 LINE",
"261 -320 LINE"
);
}
);
userData = {
com.schriftgestaltung.Glyphs.glyph.leftMetricsKey = "=S";
com.schriftgestaltung.Glyphs.glyph.rightMetricsKey = "=S";
};
width = 600;
},
{
associatedMasterId = m004;
components = (
{
name = S;
}
);
layerId = "D1888E45-1D9F-493D-BC41-D121D43F6103";
name = "[600]";
paths = (
{
closed = 1;
nodes = (
"355 1379 LINE",
"355 1740 LINE",
"261 1740 LINE",
"261 1379 LINE"
);
},
{
closed = 1;
nodes = (
"355 -320 LINE",
"355 33 LINE",
"261 33 LINE",
"261 -320 LINE"
);
}
);
userData = {
com.schriftgestaltung.Glyphs.glyph.leftMetricsKey = "=S";
com.schriftgestaltung.Glyphs.glyph.rightMetricsKey = "=S";
};
width = 600;
},
{
components = (
{
name = S;
}
);
layerId = m005;
paths = (
{
closed = 1;
nodes = (
"363 -320 LINE",
"363 1740 LINE",
"225 1740 LINE",
"225 -320 LINE"
);
}
);
userData = {
com.schriftgestaltung.Glyphs.glyph.leftMetricsKey = "=S";
com.schriftgestaltung.Glyphs.glyph.rightMetricsKey = "=S";
};
width = 600;
},
{
associatedMasterId = m005;
components = (
{
name = S;
}
);
layerId = "2598C637-2535-44F6-B589-A441973E7DC9";
name = "[600]";
paths = (
{
closed = 1;
nodes = (
"363 1340 LINE",
"363 1740 LINE",
"225 1740 LINE",
"225 1340 LINE"
);
},
{
closed = 1;
nodes = (
"363 -320 LINE",
"363 80 LINE",
"225 80 LINE",
"225 -320 LINE"
);
}
);
userData = {
com.schriftgestaltung.Glyphs.glyph.leftMetricsKey = "=S";
com.schriftgestaltung.Glyphs.glyph.rightMetricsKey = "=S";
};
width = 600;
},
{
components = (
{
alignment = -1;
name = S;
}
);
layerId = m006;
paths = (
{
closed = 1;
nodes = (
"397 -320 LINE",
"397 1740 LINE",
"192 1740 LINE",
"192 -320 LINE"
);
}
);
userData = {
com.schriftgestaltung.Glyphs.glyph.leftMetricsKey = "=S";
com.schriftgestaltung.Glyphs.glyph.rightMetricsKey = "=S";
};
width = 600;
},
{
associatedMasterId = m006;
components = (
{
alignment = -1;
name = S;
}
);
layerId = "F95ACA5E-3DBB-4F61-9EC2-F02682C1F14F";
name = "[600]";
paths = (
{
closed = 1;
nodes = (
"398 1303 LINE",
"398 1740 LINE",
"193 1740 LINE",
"193 1303 LINE"
);
},
{
closed = 1;
nodes = (
"398 -320 LINE",
"398 88 LINE",
"193 88 LINE",
"193 -320 LINE"
);
}
);
userData = {
com.schriftgestaltung.Glyphs.glyph.leftMetricsKey = "=S";
com.schriftgestaltung.Glyphs.glyph.rightMetricsKey = "=S";
};
width = 600;
},
{
components = (
{
name = S;
}
);
layerId = m007;
paths = (
{
closed = 1;
nodes = (
"660 -320 LINE",
"660 1740 LINE",
"566 1740 LINE",
"566 -320 LINE"
);
}
);
userData = {
com.schriftgestaltung.Glyphs.glyph.leftMetricsKey = "=S";
com.schriftgestaltung.Glyphs.glyph.rightMetricsKey = "=S";
};
width = 1200;
},
{
associatedMasterId = m007;
components = (
{
name = S;
}
);
layerId = "35569CB8-E4C6-4B27-BC4C-0E111EC7C62B";
name = "[600]";
paths = (
{
closed = 1;
nodes = (
"660 1393 LINE",
"660 1740 LINE",
"566 1740 LINE",
"566 1393 LINE"
);
},
{
closed = 1;
nodes = (
"660 -320 LINE",
"660 38 LINE",
"566 38 LINE",
"566 -320 LINE"
);
}
);
userData = {
com.schriftgestaltung.Glyphs.glyph.leftMetricsKey = "=S";
com.schriftgestaltung.Glyphs.glyph.rightMetricsKey = "=S";
};
width = 1200;
},
{
components = (
{
name = S;
}
);
layerId = m008;
paths = (
{
closed = 1;
nodes = (
"682 -320 LINE",
"682 1740 LINE",
"544 1740 LINE",
"544 -320 LINE"
);
}
);
userData = {
com.schriftgestaltung.Glyphs.glyph.leftMetricsKey = "=S";
com.schriftgestaltung.Glyphs.glyph.rightMetricsKey = "=S";
};
width = 1200;
},
{
associatedMasterId = m008;
components = (
{
name = S;
}
);
layerId = "9431FDC0-34ED-4F90-97DB-4F56408A0056";
name = "[600]";
paths = (
{
closed = 1;
nodes = (
"682 1336 LINE",
"682 1740 LINE",
"544 1740 LINE",
"544 1336 LINE"
);
},
{
closed = 1;
nodes = (
"682 -320 LINE",
"682 82 LINE",
"544 82 LINE",
"544 -320 LINE"
);
}
);
userData = {
com.schriftgestaltung.Glyphs.glyph.leftMetricsKey = "=S";
com.schriftgestaltung.Glyphs.glyph.rightMetricsKey = "=S";
};
width = 1200;
},
{
components = (
{
alignment = -1;
name = S;
}
);
layerId = m009;
paths = (
{
closed = 1;
nodes = (
"740 -320 LINE",
"740 1740 LINE",
"487 1740 LINE",
"487 -320 LINE"
);
}
);
userData = {
com.schriftgestaltung.Glyphs.glyph.leftMetricsKey = "=S";
com.schriftgestaltung.Glyphs.glyph.rightMetricsKey = "=S";
};
width = 1200;
},
{
associatedMasterId = m009;
components = (
{
alignment = -1;
name = S;
}
);
layerId = "A42F9FF7-7ACE-4966-879F-57F25E1420DB";
name = "[600]";
paths = (
{
closed = 1;
nodes = (
"740 1288 LINE",
"740 1740 LINE",
"487 1740 LINE",
"487 1288 LINE"
);
},
{
closed = 1;
nodes = (
"740 -320 LINE",
"740 131 LINE",
"487 131 LINE",
"487 -320 LINE"
);
}
);
userData = {
com.schriftgestaltung.Glyphs.glyph.leftMetricsKey = "=S";
com.schriftgestaltung.Glyphs.glyph.rightMetricsKey = "=S";
};
width = 1200;
},
{
components = (
{
alignment = -1;
name = S;
}
);
layerId = "8A5928CE-31B2-4F56-BC21-FB6F481DC46A";
paths = (
{
closed = 1;
nodes = (
"523 -320 LINE",
"523 1740 LINE",
"385 1740 LINE",
"385 -320 LINE"
);
}
);
userData = {
com.schriftgestaltung.Glyphs.glyph.leftMetricsKey = "=S";
com.schriftgestaltung.Glyphs.glyph.rightMetricsKey = "=S";
};
width = 900;
},
{
components = (
{
alignment = -1;
name = S;
}
);
layerId = "A3FCBCC7-55DF-4604-8A77-DC78C4EF6076";
name = "[600]";
paths = (
{
closed = 1;
nodes = (
"569 1296 LINE",
"569 1740 LINE",
"340 1740 LINE",
"340 1296 LINE"
);
},
{
closed = 1;
nodes = (
"569 -320 LINE",
"569 110 LINE",
"340 110 LINE",
"340 -320 LINE"
);
}
);
userData = {
com.schriftgestaltung.Glyphs.glyph.leftMetricsKey = "=S";
com.schriftgestaltung.Glyphs.glyph.rightMetricsKey = "=S";
};
width = 900;
},
{
components = (
{
alignment = -1;
name = S;
}
);
layerId = "4AED55CC-054D-4448-879E-1FE49A52CF83";
paths = (
{
closed = 1;
nodes = (
"508 -320 LINE",
"508 1740 LINE",
"414 1740 LINE",
"414 -320 LINE"
);
}
);
userData = {
com.schriftgestaltung.Glyphs.glyph.leftMetricsKey = "=S";
com.schriftgestaltung.Glyphs.glyph.rightMetricsKey = "=S";
};
width = 900;
}
);
leftMetricsKey = "=S";
rightMetricsKey = "=S";
unicode = 0024;
}
